<svg width="246" height="202" viewBox="0 0 246 202" fill="none" xmlns="http://www.w3.org/2000/svg">
<g clip-path="url(#clip0_150_923)">
<path d="M87.0743 31.9344L83.9653 30.5366C82.7935 30.0109 82.2674 28.6251 82.7935 27.4543L89.394 12.8072C89.9201 11.6364 91.3072 11.1107 92.479 11.6364L95.588 13.0342C96.7598 13.5599 97.2859 14.9457 96.7598 16.1165L90.1593 30.7636C89.6332 31.9344 88.2461 32.4601 87.0743 31.9344Z" fill="black" stroke="black" stroke-width="0.5124" stroke-miterlimit="10"/>
<path d="M172.917 70.5471L169.808 69.1493C168.636 68.6236 168.11 67.2378 168.636 66.067L175.236 51.42C175.762 50.2491 177.149 49.7235 178.321 50.2491L181.43 51.6469C182.602 52.1726 183.128 53.5585 182.602 54.7293L176.002 69.3763C175.463 70.5471 174.076 71.0728 172.917 70.5471Z" fill="black" stroke="black" stroke-width="0.5124" stroke-miterlimit="10"/>
<path d="M76.671 55.028L73.562 53.6301C72.3902 53.1045 71.8641 51.7186 72.3902 50.5478L78.9907 35.9008C79.5168 34.73 80.9039 34.2043 82.0757 34.73L85.1846 36.1278C86.3565 36.6535 86.8826 38.0393 86.3565 39.2101L79.756 53.8571C79.2179 55.028 77.8308 55.5536 76.671 55.028Z" fill="black" stroke="black" stroke-width="0.5124" stroke-miterlimit="10"/>
<path d="M105.25 200.686L31.0776 167.318C26.8567 165.418 24.9554 160.413 26.8567 156.207L94.7509 5.54347C96.6521 1.32617 101.662 -0.573401 105.871 1.32617L180.043 34.6942C184.264 36.5937 186.165 41.5995 184.264 45.8049L116.37 196.457C114.481 200.686 109.47 202.574 105.25 200.686Z" fill="white"/>
<path d="M105.56 200.148C99.9283 197.615 94.2964 195.083 88.6644 192.55C77.6158 187.58 66.5791 182.61 55.5304 177.64C47.8657 174.187 40.1891 170.747 32.5244 167.294C31.9624 167.043 31.3764 166.804 30.8264 166.505C27.2511 164.57 25.8402 160.185 27.3946 156.482C27.8131 155.502 28.2795 154.535 28.7099 153.555C31.4362 147.498 34.1745 141.429 36.9008 135.372C41.3011 125.611 45.7014 115.838 50.1018 106.078C55.1837 94.7876 60.2775 83.4977 65.3594 72.2197C70.2141 61.4435 75.0689 50.6673 79.9236 39.903C83.5706 31.8149 87.2056 23.7387 90.8527 15.6506C92.3234 12.3891 93.7224 9.10365 95.2649 5.86601C97.1064 1.98323 101.566 0.203129 105.56 1.86376C106.027 2.05492 106.469 2.26996 106.923 2.47306C109.913 3.82307 112.902 5.16114 115.891 6.51115C126.438 11.2541 136.984 15.9971 147.519 20.74C156.81 24.9215 166.113 29.1029 175.404 33.2844C177.173 34.0848 179.17 34.7539 180.82 35.8172C184.049 37.9079 185.173 42.0535 183.702 45.542C183.57 45.8526 183.427 46.1633 183.284 46.4739C181.083 51.3483 178.895 56.2107 176.695 61.0851C172.606 70.1648 168.516 79.2445 164.415 88.3243C159.405 99.435 154.406 110.546 149.396 121.644C144.41 132.707 139.424 143.758 134.449 154.821C130.432 163.746 126.402 172.682 122.384 181.606C120.304 186.23 118.223 190.842 116.143 195.465C114.229 199.694 109.913 201.988 105.393 200.089C104.663 199.778 104.341 200.973 105.07 201.271C109.877 203.29 114.995 200.949 117.099 196.325C117.781 194.82 118.462 193.303 119.144 191.797C122.289 184.82 125.434 177.831 128.578 170.854C133.278 160.412 137.989 149.983 142.688 139.541C147.878 128.012 153.079 116.495 158.269 104.966C163.016 94.4292 167.775 83.88 172.522 73.3427C175.762 66.1506 179.003 58.9585 182.243 51.7664C182.985 50.1177 183.738 48.4571 184.479 46.8084C186.213 42.9615 185.878 38.5172 182.53 35.5902C180.844 34.1087 178.441 33.3202 176.42 32.4123C172.474 30.6441 168.54 28.864 164.594 27.0958C153.426 22.0662 142.258 17.0484 131.077 12.0187C123.162 8.45851 115.246 4.8983 107.342 1.33809C106.84 1.1111 106.338 0.872162 105.823 0.669063C102.117 -0.848207 97.7162 0.322599 95.2649 3.5005C94.3562 4.67131 93.8181 6.093 93.2202 7.43107C90.6015 13.2373 87.9829 19.0436 85.3762 24.8498C80.9758 34.6105 76.5755 44.3832 72.1752 54.1439C66.9976 65.6249 61.82 77.118 56.6425 88.599C51.6921 99.5783 46.7537 110.546 41.8033 121.525C38.0965 129.745 34.3897 137.976 30.6829 146.196C29.2241 149.433 27.7055 152.647 26.3065 155.908C24.7281 159.6 25.5771 163.961 28.7099 166.577C29.5828 167.306 30.5514 167.784 31.5678 168.238C34.3538 169.492 37.1399 170.747 39.938 172.001C50.4605 176.732 60.983 181.463 71.4936 186.194C81.1074 190.519 90.7092 194.844 100.323 199.157C101.853 199.85 103.384 200.531 104.915 201.223C105.656 201.534 106.278 200.471 105.56 200.148Z" fill="black"/>
<path d="M104.197 194.187L37.0563 163.985C33.1582 162.228 31.4124 157.617 33.1582 153.722L96.9869 12.0785C98.7447 8.18375 103.36 6.43949 107.258 8.18375L174.399 38.3858C178.297 40.142 180.043 44.7535 178.297 48.6483L114.469 190.292C112.711 194.187 108.083 195.931 104.197 194.187Z" fill="white"/>
<path d="M104.508 193.649C99.175 191.248 93.83 188.846 88.497 186.445C78.2614 181.845 68.0259 177.234 57.7903 172.634C51.142 169.636 44.4698 166.673 37.8334 163.65C33.9831 161.906 32.058 157.88 33.7679 153.854C34.2701 152.695 34.8082 151.548 35.3223 150.401C37.9888 144.487 40.6553 138.573 43.3218 132.648C47.4711 123.448 51.6083 114.249 55.7576 105.05C60.4807 94.5606 65.2159 84.0592 69.9391 73.5697C74.4231 63.6178 78.9071 53.666 83.3912 43.7141C86.7392 36.2711 90.0993 28.8282 93.4474 21.3971C94.7985 18.3984 96.0899 15.3639 97.5009 12.401C99.1989 8.84081 103.264 7.20407 106.935 8.72134C107.39 8.91249 107.82 9.11559 108.263 9.31869C111.108 10.597 113.966 11.8873 116.812 13.1656C126.689 17.6099 136.578 22.0542 146.455 26.4985C154.705 30.214 162.956 33.9176 171.206 37.6331C173.957 38.8636 176.791 39.903 177.915 43.057C178.787 45.5062 178.07 47.6088 177.09 49.7832C174.901 54.6456 172.713 59.4961 170.525 64.3586C166.651 72.9485 162.776 81.5503 158.902 90.1402C154.239 100.486 149.575 110.832 144.912 121.19C140.285 131.453 135.657 141.727 131.03 151.99C127.323 160.209 123.628 168.417 119.921 176.637C118.02 180.866 116.107 185.083 114.205 189.312C112.448 193.207 108.502 195.322 104.329 193.577C103.599 193.267 103.276 194.461 104.006 194.76C108.454 196.624 113.201 194.473 115.15 190.196C115.772 188.822 116.382 187.449 117.003 186.075C119.885 179.671 122.779 173.256 125.661 166.852C130.001 157.223 134.342 147.581 138.682 137.952C143.525 127.2 148.368 116.459 153.211 105.707C157.659 95.8389 162.095 85.9826 166.543 76.1144C169.676 69.1613 172.809 62.2081 175.942 55.2669C177.735 51.2885 180.737 46.6531 178.883 42.2207C177.592 39.1384 174.949 37.9796 172.163 36.7251C168.803 35.2079 165.431 33.7025 162.071 32.1853C151.764 27.5498 141.468 22.9144 131.161 18.2789C123.664 14.9099 116.166 11.5289 108.657 8.15983C108.167 7.94479 107.689 7.70585 107.186 7.50275C103.755 6.1169 99.737 7.18018 97.4411 10.0714C96.5921 11.1466 96.0899 12.4488 95.5399 13.6913C93.1365 19.0316 90.7211 24.3719 88.3176 29.7122C84.276 38.6725 80.2344 47.6327 76.2048 56.6049C71.3859 67.2975 66.5671 77.9901 61.7482 88.6946C57.1207 98.969 52.4932 109.232 47.8657 119.506C44.3263 127.367 40.7869 135.228 37.2355 143.077C35.693 146.494 34.1146 149.899 32.62 153.328C30.7068 157.712 32.608 162.611 36.9485 164.606C39.1248 165.609 41.325 166.577 43.5132 167.557C53.115 171.882 62.7168 176.194 72.3186 180.519C81.3464 184.581 90.3862 188.643 99.4141 192.705C100.897 193.374 102.368 194.031 103.85 194.7C104.604 195.035 105.225 193.972 104.508 193.649Z" fill="black"/>
<path d="M139.185 26.391C137.427 25.6025 136.638 23.5237 137.427 21.7675C138.216 20.0113 140.297 19.2228 142.054 20.0113C143.812 20.7998 144.601 22.8786 143.812 24.6348C143.023 26.391 140.942 27.1795 139.185 26.391Z" fill="black" stroke="black" stroke-width="0.4036" stroke-miterlimit="10"/>
<path d="M189.37 189.444L189.836 195.776L179.074 201.08L194.822 199.181V189.121L189.37 189.444Z" fill="white"/>
<path d="M189.071 189.444C189.166 190.674 189.25 191.917 189.346 193.147C189.394 193.864 189.453 194.593 189.501 195.31C189.501 195.357 189.501 195.728 189.537 195.752C189.166 195.549 189.968 195.489 189.537 195.573C189.155 195.656 188.724 195.967 188.377 196.146C187.732 196.469 187.074 196.791 186.428 197.114C184.862 197.89 183.295 198.655 181.741 199.431C180.808 199.897 179.864 200.351 178.931 200.817C178.668 200.949 178.787 201.415 179.086 201.379C183.678 200.829 188.282 200.28 192.873 199.718C193.531 199.635 194.177 199.563 194.834 199.479C195.002 199.455 195.133 199.36 195.133 199.181C195.133 195.823 195.133 192.478 195.133 189.121C195.133 188.966 194.99 188.811 194.834 188.822C193.017 188.93 191.199 189.038 189.382 189.145C188.999 189.169 188.987 189.766 189.382 189.754C191.199 189.647 193.017 189.539 194.834 189.432C194.739 189.336 194.631 189.229 194.535 189.133C194.535 192.49 194.535 195.835 194.535 199.192C194.631 199.097 194.739 198.989 194.834 198.894C190.243 199.443 185.639 199.993 181.047 200.554C180.39 200.638 179.744 200.71 179.086 200.793C179.134 200.985 179.194 201.164 179.242 201.355C182.829 199.587 186.416 197.819 190.004 196.05C190.087 196.003 190.159 195.883 190.159 195.788C190.004 193.685 189.848 191.57 189.693 189.468C189.645 189.061 189.035 189.061 189.071 189.444Z" fill="black"/>
<path d="M189.681 193.996C191.187 193.996 192.682 193.996 194.189 193.996C194.404 193.996 194.619 193.996 194.822 193.996C195.217 193.996 195.217 193.386 194.822 193.386C193.316 193.386 191.821 193.386 190.314 193.386C190.099 193.386 189.884 193.386 189.681 193.386C189.286 193.398 189.286 193.996 189.681 193.996Z" fill="black"/>
<path d="M213.009 189.444L212.555 195.776L223.317 201.08L207.569 199.181V189.121L213.009 189.444Z" fill="white"/>
<path d="M212.711 189.444C212.555 191.546 212.4 193.661 212.244 195.764C212.232 195.859 212.304 195.979 212.4 196.027C215.987 197.795 219.574 199.563 223.161 201.331C223.209 201.14 223.269 200.961 223.317 200.769C218.725 200.22 214.122 199.67 209.53 199.109C208.872 199.025 208.227 198.954 207.569 198.87C207.665 198.965 207.772 199.073 207.868 199.169C207.868 195.811 207.868 192.466 207.868 189.109C207.772 189.205 207.665 189.312 207.569 189.408C209.386 189.515 211.204 189.623 213.022 189.73C213.404 189.754 213.404 189.145 213.022 189.121C211.204 189.014 209.386 188.906 207.569 188.799C207.402 188.787 207.27 188.942 207.27 189.097C207.27 192.454 207.27 195.8 207.27 199.157C207.27 199.336 207.414 199.443 207.569 199.455C212.161 200.005 216.764 200.554 221.356 201.116C222.014 201.2 222.659 201.271 223.317 201.355C223.616 201.391 223.723 200.925 223.472 200.793C221.188 199.67 218.917 198.547 216.633 197.424C215.449 196.839 214.277 196.265 213.093 195.68C213.057 195.668 212.794 195.501 212.758 195.513C212.794 195.501 212.747 195.847 212.866 195.608C212.938 195.465 212.902 195.119 212.914 194.963C212.938 194.581 212.974 194.199 212.998 193.804C213.105 192.347 213.213 190.889 213.32 189.432C213.344 189.061 212.735 189.061 212.711 189.444Z" fill="black"/>
<path d="M212.699 193.398C211.192 193.398 209.698 193.398 208.191 193.398C207.976 193.398 207.76 193.398 207.557 193.398C207.163 193.398 207.163 194.007 207.557 194.007C209.064 194.007 210.558 194.007 212.065 194.007C212.28 194.007 212.496 194.007 212.699 194.007C213.093 193.996 213.093 193.398 212.699 193.398Z" fill="black"/>
<path d="M194.775 189.862H189.681V192.215H194.775V189.862Z" fill="black"/>
<path d="M212.687 189.862H207.593V192.215H212.687V189.862Z" fill="black"/>
<path d="M207.497 100.355C211.072 102.099 214.887 109.088 217.601 132.194C220.315 155.311 218.761 190.698 218.761 190.698H204.173L199.832 111.155C199.832 111.155 199.629 109.554 199.617 109.303C199.605 109.554 199.569 111.932 199.569 111.932L198.708 190.698H183.977C183.977 190.698 182.578 155.299 185.28 132.194C187.983 109.088 191.809 102.099 195.384 100.355H207.497Z" fill="white"/>
<path d="M207.354 100.606C208.968 101.418 210.068 102.959 210.905 104.501C212.555 107.511 213.512 110.916 214.313 114.237C216.967 125.217 217.996 136.626 218.498 147.892C218.964 158.131 218.988 168.393 218.809 178.656C218.749 181.869 218.665 185.071 218.558 188.285C218.534 188.834 218.283 189.922 218.474 190.435C218.689 190.997 217.972 190.196 218.749 190.399C218.498 190.34 218.139 190.399 217.888 190.399C214.648 190.399 211.407 190.399 208.179 190.399C207.461 190.399 206.744 190.399 206.026 190.399C205.62 190.399 204.878 190.256 204.496 190.399C203.934 190.615 204.58 190.196 204.472 190.674C204.484 190.603 204.436 190.507 204.46 190.447C204.568 190.173 204.412 189.551 204.4 189.253C204.364 188.56 204.328 187.855 204.281 187.162C204.161 184.999 204.041 182.837 203.922 180.675C203.169 166.888 202.415 153.101 201.662 139.314C201.148 129.983 200.861 120.605 200.131 111.286C200.084 110.617 199.964 109.96 199.916 109.291C199.892 108.909 199.33 108.897 199.318 109.291C199.079 118.706 199.091 128.132 198.995 137.546C198.84 152.289 198.673 167.019 198.517 181.762C198.493 183.912 198.469 186.063 198.445 188.225C198.433 188.894 198.194 190.053 198.421 190.698C198.314 190.388 198.852 190.603 198.565 190.399C198.481 190.34 198.158 190.399 198.051 190.399C197.393 190.399 196.735 190.399 196.066 190.399C194.201 190.399 192.323 190.399 190.458 190.399C188.7 190.399 186.942 190.399 185.185 190.399C184.934 190.399 184.336 190.28 184.108 190.399C184.096 190.411 184.12 190.818 184.276 190.495C184.491 190.029 184.216 188.787 184.204 188.285C184.156 186.803 184.12 185.334 184.085 183.853C183.977 179.337 183.929 174.821 183.917 170.305C183.905 158.716 184.12 147.092 185.232 135.551C185.854 129.135 186.727 122.708 188.078 116.412C188.915 112.541 189.896 108.551 191.701 105.002C192.431 103.569 193.734 101.143 195.444 100.63C196.162 100.415 197.788 100.63 198.697 100.63C200.61 100.63 202.523 100.63 204.436 100.63C205.452 100.63 206.469 100.63 207.485 100.63C207.868 100.63 207.868 100.032 207.485 100.032C204.926 100.032 202.367 100.032 199.809 100.032C198.182 100.032 195.91 99.5306 194.499 100.498C190.709 103.115 189.31 108.909 188.246 113.043C185.687 123.03 184.611 133.46 183.989 143.734C183.391 153.722 183.259 163.722 183.319 173.721C183.355 179.372 183.439 185.023 183.666 190.674C183.678 190.83 183.798 190.973 183.965 190.973C188.879 190.973 193.782 190.973 198.697 190.973C198.864 190.973 198.995 190.842 198.995 190.674C199.091 181.38 199.199 172.073 199.294 162.778C199.45 148.442 199.605 134.117 199.761 119.781C199.797 116.28 199.809 112.78 199.892 109.279C199.689 109.279 199.498 109.279 199.294 109.279C199.952 118.335 200.394 127.403 200.885 136.471C201.686 151.13 202.487 165.789 203.288 180.448C203.479 183.853 203.659 187.257 203.85 190.674C203.862 190.83 203.982 190.973 204.149 190.973C209.016 190.973 213.87 190.973 218.737 190.973C218.905 190.973 219.024 190.842 219.036 190.674C219.502 179.934 219.586 169.158 219.395 158.405C219.239 150.042 218.917 141.656 218.008 133.341C217.123 125.252 216.059 116.937 213.488 109.184C212.424 105.958 210.905 101.717 207.629 100.068C207.306 99.9248 207.007 100.439 207.354 100.606Z" fill="black"/>
<path d="M119.168 46.7845C119.001 46.6053 118.833 46.4141 118.666 46.223C117.303 44.634 117.924 45.088 118.199 44.861C118.391 44.7057 118.211 44.6221 118.486 44.1442L118.498 44.0606L118.474 44.0367C118.965 43.5469 118.666 43.7858 118.965 43.5469C119.216 43.3318 119.132 43.1048 119.096 42.603L119.108 42.5791C119.503 42.1371 119.323 42.4119 119.598 42.1849C119.873 41.9579 119.455 42.2805 120.136 41.6234L120.148 41.6114C119.323 40.5362 118.056 38.5411 118.355 38.3141C118.666 38.0871 120.507 39.8552 121.476 41.0141L121.547 41.1097C121.607 41.0977 121.703 40.9185 121.739 40.8707L122.098 40.357C122.432 39.8672 122.791 39.3415 123.21 38.9114C123.281 38.8278 123.377 38.7561 123.473 38.7203C123.724 38.6366 124.059 38.7322 124.238 38.9114C124.513 39.2101 124.238 39.4849 124.035 39.7358C123.724 40.142 123.568 40.584 123.795 41.0619C123.855 41.1933 123.951 41.3128 124.047 41.4322C124.214 41.6234 124.357 41.8145 124.501 42.0057C124.609 42.1013 124.704 42.1968 124.8 42.3044L125.888 43.4871C126.462 44.0964 127.012 44.7177 127.598 45.315C128.758 46.5217 129.93 47.7044 131.125 48.8633C133.529 51.181 136.004 53.4151 138.575 55.5297C143.717 59.7709 149.181 63.582 154.945 66.8077C160.708 70.0214 166.782 72.6378 173.06 74.4179C174.638 74.8361 176.205 75.2781 177.807 75.5768C179.386 75.9471 181 76.1741 182.602 76.425C184.204 76.6759 185.819 76.7595 187.433 76.9387L189.86 77.0224L190.984 77.0582C191.199 77.0702 191.403 77.0702 191.618 77.0582C193.483 77.0343 195.074 78.6233 195.169 80.6184C195.265 82.6016 193.639 84.2384 191.522 84.2623C191.283 84.2742 191.056 84.2742 190.817 84.2623L189.573 84.2145L186.883 84.1189C185.101 83.9397 183.308 83.8322 181.538 83.5454C179.768 83.2826 177.986 83.0198 176.241 82.6016C174.483 82.2671 172.761 81.7773 171.027 81.3233C164.14 79.3759 157.563 76.5087 151.369 73.056C145.175 69.5913 139.364 65.5174 133.935 61.0373C131.209 58.8032 128.602 56.4377 126.067 53.9885C124.8 52.7699 123.556 51.5155 122.337 50.2372C121.715 49.604 121.129 48.9469 120.531 48.3137L119.383 47.0593C119.299 46.9518 119.228 46.8681 119.168 46.7845Z" fill="white"/>
<path d="M119.383 46.6053C118.976 46.1633 118.534 45.7093 118.199 45.2075C118.08 45.0283 118.128 44.9686 118.032 45.2194C118.008 45.2792 117.936 45.2553 118.068 45.2314C118.283 45.1836 118.474 45.0761 118.558 44.8491C118.618 44.6699 118.654 44.5026 118.713 44.3234C118.773 44.1562 118.809 44.0128 118.69 43.8694L118.654 44.2756L119 43.8933C119.06 43.8336 118.953 43.9411 119.012 43.8814L119.168 43.75C119.503 43.4154 119.407 42.9973 119.359 42.5672L119.311 42.7703C119.359 42.6986 119.443 42.603 119.515 42.5553C119.431 42.615 119.503 42.5672 119.562 42.5433C119.67 42.4836 119.778 42.4119 119.861 42.3283C119.873 42.3163 120.041 42.1132 119.945 42.2327C120.041 42.1252 120.148 41.9579 120.256 41.8862C120.411 41.7907 120.483 41.6114 120.352 41.4561C119.921 40.8827 119.503 40.2853 119.132 39.6641C118.965 39.3893 118.809 39.1145 118.69 38.8159C118.666 38.7442 118.63 38.565 118.582 38.5052C118.558 38.4813 118.403 38.5769 118.414 38.6008C118.426 38.6247 118.618 38.7083 118.654 38.7203C118.761 38.792 118.869 38.8756 118.976 38.9592C119.24 39.1743 119.503 39.3893 119.742 39.6282C120.304 40.1539 120.854 40.7154 121.332 41.3128C121.404 41.3964 121.559 41.4561 121.667 41.3845C121.93 41.2172 122.085 40.8827 122.253 40.6437C122.564 40.1898 122.875 39.7119 123.245 39.2937C123.425 39.0906 123.759 38.8039 123.999 39.1026C124.118 39.2579 124.023 39.3415 123.915 39.4849C123.7 39.7716 123.484 40.0703 123.425 40.4287C123.281 41.3008 124.106 42.0057 124.644 42.5792L126.665 44.7655C130.922 49.2695 135.49 53.4987 140.356 57.3337C146.945 62.5307 154.036 67.0586 161.593 70.4993C164.953 71.9927 168.385 73.3307 171.888 74.3821C175.404 75.3856 178.955 76.2458 182.554 76.7118C184.156 76.9626 185.783 77.0463 187.397 77.2135L189.824 77.2972L190.96 77.3449C191.175 77.3569 191.391 77.3569 191.594 77.3569C192.969 77.333 194.248 78.3007 194.703 79.6866C195.229 81.2636 194.5 82.9959 192.921 83.6888C192.228 83.9875 191.45 84.0233 190.697 83.9994L190.183 83.9755C184.455 83.868 178.752 83.0556 173.227 81.6459C164.69 79.4954 156.606 75.8874 149.109 71.467C141.923 67.1661 135.239 62.1006 129.092 56.4855C127.383 54.9324 125.72 53.3195 124.094 51.6828C123.281 50.8584 122.48 50.0341 121.691 49.1858L119.79 47.119C119.646 46.9159 119.503 46.7726 119.383 46.6053C119.156 46.3066 118.737 46.677 118.953 46.9757C119.132 47.2026 119.323 47.4177 119.515 47.6327C119.79 47.9195 120.053 48.2181 120.316 48.5049C122.014 50.3567 123.759 52.1368 125.553 53.893C131.281 59.4603 137.463 64.5617 144.171 68.982C151.74 73.9759 159.955 78.1932 168.731 80.9171C175.069 82.9361 181.705 84.1667 188.377 84.4415L190.255 84.5131L190.948 84.537C191.116 84.549 191.283 84.537 191.438 84.5251C192.55 84.4893 193.591 84.1069 194.356 83.3543C195.492 82.2193 195.707 80.499 195.038 79.0534C194.38 77.6556 193.029 76.7356 191.582 76.7595L191.211 76.7715L189.083 76.6998C188.27 76.652 187.445 76.6759 186.632 76.5684C180.055 76.0308 173.526 74.5852 167.273 72.2197C159.369 69.3046 151.883 65.0993 144.948 60.1054C139.256 56.0076 133.911 51.3841 128.973 46.3664L127.024 44.3354L125.374 42.5433L125.003 42.1371C124.68 41.7907 124.321 41.4442 124.082 41.0499C123.867 40.6915 123.939 40.3212 124.178 39.9867C124.369 39.7119 124.644 39.449 124.596 39.0906C124.501 38.3619 123.484 38.2663 123.006 38.7083C122.647 39.0548 122.36 39.4729 122.073 39.8672L121.619 40.5123C121.559 40.596 121.5 40.6676 121.452 40.7632C121.44 40.7752 121.32 40.9185 121.404 40.8588L121.739 40.9305C121.153 40.2017 120.483 39.5446 119.802 38.9234C119.479 38.6366 118.773 37.8481 118.259 38.0393C117.685 38.2424 118.211 39.1504 118.379 39.461C118.809 40.2734 119.347 41.0499 119.897 41.7787L120.005 41.3486C119.766 41.492 119.574 41.7309 119.419 41.9579C119.562 41.7548 119.407 41.946 119.323 41.9938C119.323 41.9938 119.18 42.0535 119.12 42.1132C118.988 42.2207 118.809 42.388 118.785 42.5672C118.749 42.7823 118.917 43.057 118.809 43.2601C118.761 43.3557 118.618 43.4274 118.546 43.511L118.271 43.8216C118.163 43.9292 118.128 44.0964 118.235 44.2278L118.259 44.2517L118.187 44.0367C118.175 44.1442 118.08 44.2637 118.056 44.3712C118.032 44.4548 118.032 44.5624 118.008 44.634C117.996 44.6579 118.008 44.646 117.948 44.6699C117.781 44.7057 117.613 44.7416 117.542 44.9208C117.458 45.1358 117.601 45.3628 117.721 45.5301C118.08 46.0557 118.51 46.5336 118.941 46.9876C119.216 47.2385 119.634 46.8681 119.383 46.6053Z" fill="black"/>
<path d="M118.45 44.0008C118.893 44.5385 119.048 45.1478 118.773 45.3748C118.51 45.6017 117.912 45.3628 117.47 44.8132C117.015 44.2637 116.872 43.6424 117.147 43.4274C117.422 43.2123 118.008 43.4632 118.45 44.0008Z" fill="white"/>
<path d="M118.235 44.1801C118.367 44.3354 118.474 44.5146 118.558 44.7057C118.582 44.7774 118.606 44.8372 118.618 44.9208C118.618 44.9566 118.63 44.9805 118.63 44.9805C118.63 45.0164 118.63 45.0642 118.618 45.1C118.63 45.0403 118.606 45.1358 118.594 45.1478C118.63 45.0761 118.558 45.2195 118.606 45.1358C118.606 45.1478 118.582 45.1478 118.582 45.1597C118.57 45.1717 118.594 45.1597 118.594 45.1597C118.594 45.1597 118.534 45.1836 118.582 45.1717C118.618 45.1597 118.558 45.1717 118.546 45.1717C118.498 45.1717 118.534 45.1717 118.546 45.1717H118.498C118.474 45.1717 118.427 45.1597 118.427 45.1597C118.391 45.1478 118.271 45.1 118.223 45.0761C117.865 44.885 117.578 44.5385 117.41 44.1681C117.374 44.0845 117.35 44.0367 117.338 43.9531C117.315 43.8575 117.315 43.8217 117.315 43.75L117.326 43.7022C117.326 43.7022 117.315 43.738 117.326 43.7141L117.338 43.6664C117.326 43.7141 117.35 43.6305 117.338 43.6664C117.338 43.6544 117.374 43.6186 117.35 43.6544C117.326 43.6783 117.35 43.6544 117.362 43.6544C117.41 43.6186 117.362 43.6544 117.35 43.6544C117.362 43.6425 117.434 43.6305 117.362 43.6425C117.374 43.6425 117.458 43.6305 117.41 43.6305C117.458 43.6305 117.506 43.6425 117.542 43.6425C117.506 43.6305 117.602 43.6664 117.613 43.6664C117.649 43.6783 117.709 43.7141 117.733 43.7261C117.912 43.8456 118.092 44.0128 118.235 44.1801C118.474 44.4668 118.905 44.1084 118.666 43.8217C118.343 43.4394 117.829 43.0093 117.303 43.069C116.776 43.1168 116.645 43.6783 116.776 44.1203C116.944 44.6699 117.338 45.2075 117.829 45.5181C118.211 45.7571 118.797 45.9124 119.084 45.4584C119.407 44.9447 118.989 44.2398 118.666 43.8217C118.439 43.5349 117.996 43.8934 118.235 44.1801Z" fill="black"/>
<path d="M119.299 42.8779C119.742 43.4155 119.885 44.0128 119.61 44.2398C119.347 44.4668 118.761 44.2279 118.319 43.6783C117.876 43.1407 117.745 42.5195 118.008 42.3044C118.283 42.0894 118.857 42.3522 119.299 42.8779Z" fill="white"/>
<path d="M119.084 43.0571C119.216 43.2124 119.323 43.3916 119.395 43.5827C119.419 43.6544 119.443 43.7141 119.455 43.7978C119.455 43.8336 119.467 43.8575 119.467 43.8575C119.467 43.8933 119.467 43.9411 119.455 43.977C119.467 43.9292 119.443 44.0128 119.431 44.0248C119.467 43.9531 119.395 44.0964 119.443 44.0128C119.443 44.0248 119.419 44.0248 119.419 44.0367C119.407 44.0487 119.431 44.0367 119.431 44.0367C119.431 44.0367 119.371 44.0606 119.419 44.0487C119.455 44.0367 119.395 44.0487 119.383 44.0487C119.335 44.0487 119.371 44.0487 119.383 44.0487H119.335C119.311 44.0487 119.264 44.0367 119.264 44.0367C119.228 44.0248 119.108 43.977 119.072 43.9531C118.725 43.7619 118.427 43.4155 118.271 43.0571C118.235 42.9734 118.211 42.9256 118.199 42.842C118.175 42.7464 118.175 42.7106 118.175 42.6389L118.187 42.5911C118.187 42.5911 118.175 42.627 118.187 42.6031L118.199 42.5553C118.187 42.6031 118.211 42.5194 118.199 42.5553C118.199 42.5433 118.235 42.5075 118.211 42.5433C118.187 42.5672 118.211 42.5433 118.223 42.5433C118.271 42.5075 118.223 42.5433 118.211 42.5433C118.223 42.5314 118.295 42.5194 118.223 42.5314C118.235 42.5314 118.319 42.5194 118.271 42.5194C118.319 42.5194 118.367 42.5314 118.403 42.5314C118.367 42.5194 118.462 42.5553 118.474 42.5553C118.51 42.5672 118.57 42.5911 118.594 42.6031C118.761 42.7225 118.941 42.8778 119.084 43.0571C119.323 43.3438 119.754 42.9854 119.515 42.6986C119.192 42.3283 118.69 41.8982 118.163 41.9579C117.637 42.0177 117.506 42.5553 117.625 43.0093C117.781 43.5588 118.175 44.0845 118.666 44.3951C119.048 44.6341 119.634 44.7774 119.909 44.3354C120.232 43.8217 119.826 43.1168 119.503 42.7106C119.287 42.4119 118.845 42.7703 119.084 43.0571Z" fill="black"/>
<path d="M120.351 41.8145C120.782 42.3402 120.925 42.9495 120.65 43.1645C120.375 43.3915 119.801 43.1526 119.371 42.615C118.929 42.0893 118.809 41.4681 119.084 41.253C119.359 41.038 119.921 41.3008 120.351 41.8145Z" fill="white"/>
<path d="M120.136 41.9937C120.268 42.149 120.375 42.3163 120.447 42.5075C120.471 42.5791 120.495 42.6389 120.507 42.7225L120.519 42.7822C120.519 42.8181 120.519 42.8659 120.507 42.9017C120.519 42.8539 120.495 42.9375 120.483 42.9495C120.519 42.8778 120.435 43.0212 120.495 42.9375C120.495 42.9495 120.471 42.9495 120.471 42.9614C120.459 42.9734 120.483 42.9614 120.483 42.9614C120.483 42.9614 120.423 42.9853 120.471 42.9734C120.507 42.9614 120.447 42.9734 120.435 42.9734C120.387 42.9734 120.423 42.9734 120.435 42.9734H120.387C120.364 42.9734 120.316 42.9614 120.316 42.9614C120.28 42.9495 120.16 42.9017 120.124 42.8778C119.778 42.6867 119.491 42.3521 119.335 41.9937C119.299 41.922 119.275 41.8623 119.263 41.7787C119.24 41.6831 119.24 41.6473 119.251 41.5756L119.263 41.5278C119.263 41.5278 119.251 41.5636 119.263 41.5397L119.275 41.492C119.251 41.5397 119.287 41.4561 119.275 41.492C119.275 41.48 119.311 41.4442 119.287 41.48C119.263 41.5039 119.287 41.48 119.299 41.48C119.347 41.4442 119.299 41.48 119.287 41.48C119.299 41.4681 119.359 41.4561 119.299 41.4681C119.311 41.4681 119.395 41.4561 119.347 41.4561C119.395 41.4561 119.431 41.4681 119.479 41.4681C119.443 41.4561 119.538 41.492 119.55 41.492C119.586 41.5039 119.634 41.5278 119.67 41.5397C119.825 41.6712 119.993 41.8265 120.136 41.9937C120.375 42.2685 120.806 41.9101 120.567 41.6353C120.256 41.265 119.754 40.8468 119.228 40.9066C118.713 40.9663 118.57 41.5039 118.689 41.9459C118.833 42.4955 119.228 43.0092 119.718 43.3079C120.1 43.5468 120.674 43.6783 120.961 43.2362C121.284 42.7344 120.89 42.0296 120.567 41.6234C120.34 41.3605 119.909 41.7189 120.136 41.9937Z" fill="black"/>
<path d="M126.569 44.204L122.468 49.1142L121.882 49.831C121.655 50.1058 122.408 50.9182 122.647 50.6314L126.701 45.6854L127.287 44.9805C127.502 44.7057 126.808 43.9292 126.569 44.204Z" fill="black"/>
<path d="M195.074 76.7237C198.888 76.3414 205.058 76.0905 211.802 77.2972C211.802 77.2972 214.241 84.9552 207.76 100.283C202.583 102.278 195.145 100.271 195.145 100.271C188.664 84.9433 191.104 77.2852 191.104 77.2852C191.104 77.2852 192.586 76.9746 195.074 76.7237Z" fill="white"/>
<path d="M195.073 77.0343C198.637 76.6759 202.236 76.6162 205.811 76.8671C206.828 76.9387 207.844 77.0343 208.86 77.1657C209.506 77.2494 210.164 77.3927 210.809 77.4405C210.57 77.4166 211.622 77.5122 211.515 77.4047C211.622 77.5242 211.634 77.9303 211.67 78.0737C212.46 82.1715 211.694 86.6397 210.714 90.63C210.259 92.4699 209.697 94.2739 209.076 96.0659C208.717 97.0934 208.322 98.1208 207.916 99.1243C207.7 99.6381 207.581 99.9606 207.067 100.2C206.672 100.379 206.182 100.45 205.751 100.534C202.666 101.155 199.366 100.857 196.317 100.212C196.078 100.164 195.635 100.152 195.432 100.008C195.097 99.7934 194.882 98.7301 194.703 98.2761C193.961 96.3885 193.304 94.4531 192.742 92.5057C191.893 89.5548 191.271 86.5322 191.068 83.4738C190.948 81.7414 190.948 79.9494 191.247 78.229C191.295 77.9542 191.343 77.6675 191.426 77.3927C191.438 77.3449 191.139 77.5839 191.283 77.5719C191.462 77.56 191.642 77.5003 191.821 77.4764C192.873 77.2852 193.973 77.1538 195.073 77.0343C195.468 76.9865 195.48 76.3653 195.073 76.4011C193.71 76.5445 192.347 76.6998 191.008 76.9746C190.9 76.9985 190.817 77.0941 190.793 77.1896C190.219 79.0175 190.278 81.1441 190.374 83.0198C190.506 85.4092 190.888 87.7986 191.438 90.1282C191.797 91.6575 192.228 93.1747 192.718 94.6801C193.304 96.484 193.878 98.4434 194.751 100.14C195.002 100.63 195.193 100.618 195.731 100.737C196.652 100.94 197.573 101.096 198.505 101.227C201.315 101.597 204.305 101.681 207.055 100.857C207.449 100.737 207.808 100.666 208.071 100.367C208.322 100.068 208.454 99.4469 208.597 99.0885C208.812 98.5389 209.028 97.9894 209.243 97.4398C209.865 95.7672 210.427 94.0708 210.917 92.3384C211.622 89.8296 212.149 87.261 212.412 84.6685C212.651 82.303 212.842 79.5432 212.125 77.2255C212.089 77.1299 212.017 77.0224 211.909 77.0104C206.361 76.0427 200.705 75.8755 195.097 76.425C194.679 76.4489 194.667 77.0821 195.073 77.0343Z" fill="black"/>
<path d="M192.969 63.8448C192.921 63.8448 192.885 63.8448 192.838 63.8448C191.678 63.8448 190.721 62.901 190.721 61.7302C190.721 60.5714 191.666 59.6156 192.838 59.6156C193.268 59.6156 193.675 59.747 194.009 59.974" fill="white"/>
<path d="M192.969 63.6657C191.714 63.7254 190.673 62.5785 190.948 61.324C191.247 59.9979 192.79 59.4006 193.926 60.1413C194.117 60.2727 194.297 59.9621 194.105 59.8307C193.089 59.1736 191.714 59.4125 190.996 60.3802C190.315 61.2882 190.434 62.6143 191.259 63.3909C191.714 63.8329 192.335 64.048 192.969 64.0241C193.196 64.0121 193.208 63.6537 192.969 63.6657Z" fill="black"/>
<path d="M193.196 58.624C192.838 58.5045 192.431 58.4807 192.049 58.5165C191.176 58.6001 190.41 59.0302 189.848 59.6873C189.693 59.8665 189.956 60.1174 190.099 59.9382C190.614 59.3408 191.307 58.9227 192.108 58.863C192.443 58.8391 192.778 58.851 193.089 58.9705C193.328 59.0541 193.424 58.6957 193.196 58.624Z" fill="black"/>
<path d="M194.261 57.704C194.261 57.704 198.972 55.3027 200.132 59.8664C200.132 59.8664 199.94 64.2749 201.901 63.4506L202.559 66.5687C202.906 68.767 200.945 75.8396 200.945 75.8396C203.277 73.7489 210.893 72.0763 210.893 72.0763C209.482 69.4838 209.327 55.2668 204.054 53.7974C200.622 52.8416 199.51 53.7257 197.274 53.9766C189.657 54.8487 194.261 57.704 194.261 57.704Z" fill="black"/>
<path d="M194.344 57.8594C195.54 57.262 197.214 56.9395 198.422 57.6324C200.347 58.7435 199.677 60.7147 200.203 62.459C200.359 62.9846 200.646 63.5939 201.244 63.7134C201.375 63.7373 201.483 63.7254 201.602 63.7134C201.889 63.7015 201.614 63.4506 201.734 63.6059C201.913 63.8448 201.937 64.5497 201.997 64.8364C202.14 65.5413 202.368 66.2701 202.403 66.9988C202.463 68.086 202.236 69.1971 202.045 70.2604C201.698 72.1241 201.267 73.9639 200.753 75.7918C200.705 75.971 200.921 76.0786 201.052 75.971C202.69 74.5613 205.034 73.8923 207.067 73.271C208.334 72.8887 209.626 72.5303 210.929 72.2555C211.049 72.2316 211.085 72.0883 211.037 71.9927C210.606 71.1564 210.475 70.1529 210.307 69.2449C210.056 67.9188 209.865 66.5926 209.626 65.2785C209.123 62.4231 208.585 59.4483 207.294 56.8319C206.038 54.2992 204.077 53.1881 201.208 53.2C199.629 53.212 198.015 53.6899 196.449 53.9169C195.384 54.0722 193.686 54.2753 192.957 55.243C192.204 56.2465 193.352 57.3576 194.177 57.8713C194.368 57.9908 194.559 57.6802 194.356 57.5607C193.495 57.0231 192.491 55.9598 193.615 55.1355C194.834 54.2514 196.664 54.3111 198.075 54.0483C199.713 53.7496 201.172 53.4151 202.846 53.7138C204.113 53.9408 205.118 54.3589 205.943 55.3625C206.708 56.2824 207.21 57.4173 207.617 58.5284C208.502 60.9537 208.956 63.5103 209.387 66.0431C209.721 67.9904 209.793 70.3798 210.714 72.1719C210.75 72.0883 210.786 71.9927 210.821 71.9091C209.351 72.2316 207.904 72.6259 206.469 73.0799C204.532 73.6892 202.356 74.3701 200.789 75.7202C200.885 75.7799 200.992 75.8396 201.088 75.8994C201.698 73.6892 202.248 71.4431 202.571 69.1732C202.87 67.1064 202.475 65.4338 202.045 63.4147C202.021 63.3192 201.913 63.2594 201.817 63.2833C200.311 63.8209 200.311 61.1568 200.275 60.2607C200.227 59.2691 199.785 58.2656 198.996 57.6204C197.644 56.5094 195.6 56.8319 194.141 57.5607C193.961 57.6563 194.141 57.9669 194.344 57.8594Z" fill="black"/>
<path d="M197.023 76.5923C197.023 76.5923 192.108 90.1402 195.911 105.301L190.291 101.693C190.291 101.693 189.035 80.5826 191.092 77.2852C191.092 77.2852 194.404 76.0188 197.106 76.7834" fill="white"/>
<path d="M196.736 76.5206C195.695 79.4118 195.109 82.53 194.703 85.5764C193.806 92.1831 194.045 98.9093 195.636 105.397C195.779 105.277 195.934 105.17 196.078 105.05C194.32 103.915 192.551 102.458 190.661 101.562C190.267 101.382 190.637 101.777 190.601 101.585C190.566 101.37 190.578 101.155 190.566 100.94C190.518 100.056 190.482 99.1721 190.446 98.2881C190.207 92.5057 189.92 86.58 190.578 80.8096C190.685 79.9016 190.721 78.4202 191.271 77.6317C191.391 77.4644 191.14 77.6556 191.522 77.4644C191.857 77.2972 192.311 77.2255 192.67 77.1538C194.129 76.8193 195.6 76.7237 197.058 77.0821C197.441 77.1777 197.597 76.5923 197.214 76.4967C195.337 76.0427 193.268 76.2339 191.438 76.8671C190.685 77.1299 190.554 77.6795 190.362 78.4321C189.657 81.1441 189.681 84.107 189.645 86.8906C189.597 90.2238 189.669 93.557 189.788 96.8903C189.836 98.0491 189.884 99.208 189.944 100.367C189.968 100.737 189.872 101.358 190.016 101.717C190.314 102.434 191.749 102.995 192.383 103.401C193.519 104.13 194.655 104.859 195.791 105.588C196.018 105.731 196.293 105.492 196.233 105.241C194.009 96.1376 194.129 85.6003 197.345 76.6879C197.441 76.3056 196.855 76.1503 196.736 76.5206Z" fill="black"/>
<path d="M204.209 62.6263C205.68 63.0802 206.302 64.8962 205.393 66.1387C204.963 66.736 204.269 67.0944 203.528 67.0944C203.348 67.0944 203.169 67.0706 202.99 67.0228C202.99 67.3931 202.99 67.7515 202.99 68.1219C202.99 70.9414 202.99 73.7728 202.99 76.5923C202.99 76.6759 202.93 76.7357 202.858 76.7596C201.698 77.2016 200.538 77.6914 199.426 78.253C198.852 78.5397 198.231 78.8503 197.752 79.2804C197.537 79.4715 197.286 79.7344 197.119 79.3282C196.951 78.8981 197.035 78.2649 197.047 77.8109C197.059 77.4644 197.083 77.118 197.095 76.7715C197.154 75.0153 197.095 73.2472 197.095 71.4909C196.628 71.5387 196.15 71.5387 195.708 71.4909C194.847 71.4073 194.105 70.9772 193.675 70.2126C193.149 69.2569 193.089 68.0024 193.268 66.9272C192.802 66.9272 192.347 66.8913 191.905 66.7838C191.63 66.7121 191.283 66.6046 191.164 66.3179C191.008 65.9475 191.307 65.5891 191.522 65.3143C191.953 64.7528 192.527 64.2869 192.85 63.6418C193.173 63.0086 193.412 62.2918 193.567 61.5988C193.842 60.3563 193.95 59.0302 193.998 57.7638C193.998 57.7041 194.033 57.6444 194.081 57.6085C194.584 57.3576 195.146 57.1784 195.696 57.0709C196.533 56.9036 197.429 56.8917 198.231 57.2382C199.247 57.6802 199.917 58.6838 200.18 59.747C200.395 60.6192 200.012 64.0241 201.758 63.3431C201.758 63.3431 201.758 63.3431 201.77 63.3431C202.38 62.6621 203.336 62.3634 204.209 62.6263ZM203.839 66.7241C205.106 66.521 205.847 65.0993 205.262 63.9524C205.01 63.4626 204.568 63.1041 204.042 62.9608C203.994 62.9369 203.946 62.9249 203.898 62.9249C203.193 62.7935 202.499 63.0683 202.045 63.6059C202.009 63.6418 201.973 63.6537 201.937 63.6657C201.925 63.6776 201.901 63.6895 201.878 63.7015C200.18 64.3705 199.928 61.778 199.893 60.6908C199.881 60.4758 199.905 60.2488 199.881 60.0218C199.857 59.6395 199.653 59.2333 199.474 58.8988C199.044 58.0983 198.326 57.5368 197.429 57.3815C196.736 57.2621 196.006 57.3576 195.337 57.5488C195.134 57.6085 194.428 57.728 194.309 57.9311C194.356 57.8594 194.368 58.0864 194.368 58.0984C194.38 58.2059 194.356 58.3492 194.344 58.4568C194.332 58.6121 194.309 58.7674 194.297 58.9107C194.225 59.532 194.177 60.1532 194.093 60.7745C193.938 61.9333 193.639 63.2833 192.933 64.2511C192.539 64.7887 192.037 65.2307 191.666 65.7803C191.367 66.2343 191.666 66.3776 192.12 66.4732C192.969 66.6405 193.89 66.5807 194.751 66.4971C194.99 66.4732 194.978 66.8436 194.751 66.8555C194.392 66.8913 194.022 66.9152 193.651 66.9272C193.651 66.9391 193.651 66.9511 193.651 66.963C193.579 67.3453 193.567 67.7874 193.579 68.1936C193.603 68.8626 193.723 69.5675 194.081 70.1529C194.572 70.9414 195.409 71.1684 196.281 71.1564C197.334 71.1445 198.446 70.9892 199.355 70.4396C199.618 70.2843 199.94 70.0334 200.084 69.7945C200.204 69.5914 200.514 69.7706 200.395 69.9737C200.156 70.3799 199.677 70.6905 199.271 70.8936C198.721 71.1684 198.099 71.3476 197.465 71.4432C197.465 72.3511 197.465 73.271 197.465 74.179C197.465 75.0392 197.489 75.9113 197.465 76.7715C197.453 77.0702 197.429 77.3808 197.417 77.6795C197.405 77.9662 197.405 78.253 197.405 78.5397C197.405 78.6591 197.465 78.8861 197.465 79.0534C197.465 79.0534 197.465 79.0534 197.477 79.0534C197.549 78.9817 197.633 78.922 197.716 78.8623C197.932 78.695 198.159 78.5516 198.398 78.4083C199.008 78.0499 199.63 77.7512 200.275 77.4525C201.052 77.0941 201.83 76.7715 202.631 76.4609C202.631 76.1025 202.631 75.7321 202.631 75.3737C202.631 72.5423 202.631 69.7228 202.631 66.9033C202.631 66.9033 202.631 66.9033 202.631 66.8913C202.2 66.7121 201.83 66.3896 201.567 65.9834C201.483 65.852 201.603 65.7205 201.734 65.7205C201.794 65.7205 201.842 65.7444 201.878 65.8042C202.308 66.4732 203.061 66.8436 203.839 66.7241Z" fill="black"/>
<path d="M205.262 63.9524C205.847 65.0993 205.106 66.521 203.839 66.7241C203.061 66.8435 202.308 66.4732 201.89 65.828C201.854 65.7683 201.794 65.7444 201.746 65.7444L202.32 65.3979C202.38 65.5413 202.655 65.5055 202.667 65.3143C202.691 64.944 202.81 64.5855 203.002 64.2869C203.049 64.3108 203.085 64.3227 203.133 64.3466C203.169 64.3705 203.217 64.3944 203.253 64.4183C203.277 64.4302 203.301 64.4541 203.313 64.4661C203.324 64.478 203.336 64.478 203.348 64.49L203.36 64.5019C203.372 64.5139 203.396 64.5378 203.408 64.5497C203.432 64.5736 203.456 64.5855 203.48 64.6094C203.528 64.6453 203.564 64.6931 203.599 64.7409C203.611 64.7528 203.623 64.7648 203.635 64.7767C203.647 64.7767 203.647 64.7886 203.647 64.7886C203.671 64.8125 203.683 64.8484 203.707 64.8842C203.719 64.9081 203.743 64.944 203.755 64.9798C203.755 64.9917 203.767 65.0156 203.779 65.0276C203.779 65.0395 203.791 65.0515 203.791 65.0634C203.827 65.1471 203.91 65.2187 204.018 65.1829C204.102 65.159 204.173 65.0515 204.138 64.9559C203.982 64.5139 203.611 64.1913 203.205 63.9762C203.408 63.7612 203.611 63.6059 203.886 63.4864C203.898 63.4864 203.922 63.4745 203.934 63.4625C203.946 63.4625 203.958 63.4506 203.97 63.4506C203.982 63.4386 203.994 63.4386 204.018 63.4386C204.209 63.3789 204.161 63.1161 204.018 63.0802L204.054 62.9608C204.568 63.1041 205.01 63.4625 205.262 63.9524Z" fill="white"/>
<path d="M204.138 64.956C204.173 65.0515 204.102 65.1471 204.018 65.183C203.922 65.2188 203.827 65.1471 203.791 65.0635C203.791 65.0515 203.779 65.0396 203.779 65.0276C203.767 65.0157 203.767 65.0037 203.755 64.9799C203.743 64.944 203.719 64.9201 203.707 64.8843C203.683 64.8484 203.671 64.8245 203.647 64.7887L203.635 64.7768C203.623 64.7648 203.611 64.7529 203.6 64.7409C203.564 64.6931 203.516 64.6573 203.48 64.6095C203.456 64.5856 203.432 64.5617 203.408 64.5498C203.396 64.5378 203.372 64.5139 203.36 64.502L203.348 64.49C203.336 64.4781 203.324 64.4781 203.313 64.4661C203.289 64.4542 203.265 64.4422 203.253 64.4183C203.217 64.3945 203.169 64.3706 203.133 64.3467C203.085 64.3228 203.049 64.2989 203.002 64.2869C202.81 64.5976 202.703 64.956 202.667 65.3144C202.655 65.5175 202.38 65.5414 202.32 65.398C202.308 65.3741 202.308 65.3502 202.308 65.3144C202.332 64.9679 202.404 64.6453 202.559 64.3347C202.822 63.7852 203.336 63.2834 203.934 63.1042C203.97 63.0922 203.994 63.0922 204.03 63.1042C204.185 63.14 204.221 63.4028 204.03 63.4626C204.018 63.4626 204.006 63.4745 203.982 63.4745C203.97 63.4745 203.958 63.4865 203.946 63.4865C203.934 63.4865 203.898 63.4984 203.898 63.5104C203.623 63.6418 203.42 63.7971 203.217 64.0002C203.611 64.1914 203.982 64.5259 204.138 64.956Z" fill="black"/>
<path d="M203.898 62.925C203.946 62.9369 203.994 62.9489 204.042 62.9608L204.006 63.0803C203.982 63.0683 203.946 63.0683 203.91 63.0803C203.312 63.2595 202.798 63.7613 202.535 64.3108C202.392 64.6214 202.308 64.956 202.284 65.2905C202.284 65.3263 202.284 65.3502 202.296 65.3741L201.722 65.7206C201.602 65.7206 201.471 65.852 201.555 65.9834C201.818 66.3896 202.188 66.7122 202.619 66.8914C202.619 66.8914 202.619 66.8914 202.619 66.9033C202.619 69.7348 202.619 72.5543 202.619 75.3737C202.619 75.7322 202.619 76.1025 202.619 76.4609C201.83 76.7715 201.04 77.0941 200.263 77.4525C199.617 77.7393 198.996 78.0499 198.386 78.4083C198.147 78.5397 197.92 78.695 197.704 78.8623C197.621 78.922 197.537 78.9817 197.465 79.0534C197.465 79.0534 197.465 79.0534 197.453 79.0534C197.453 78.8862 197.393 78.6472 197.393 78.5397C197.393 78.253 197.393 77.9662 197.405 77.6795C197.417 77.3808 197.441 77.0702 197.453 76.7715C197.477 75.9114 197.453 75.0392 197.453 74.179C197.453 73.2711 197.453 72.3512 197.453 71.4432C198.087 71.3476 198.709 71.1684 199.259 70.8936C199.665 70.6905 200.144 70.3918 200.383 69.9737C200.502 69.7706 200.191 69.5914 200.072 69.7945C199.928 70.0334 199.606 70.2724 199.342 70.4396C198.434 70.9892 197.322 71.1445 196.269 71.1565C195.397 71.1684 194.548 70.9414 194.069 70.1529C193.711 69.5675 193.591 68.8746 193.567 68.1936C193.555 67.7874 193.567 67.3454 193.639 66.9631C193.639 66.9511 193.639 66.9392 193.639 66.9272C194.009 66.9153 194.38 66.8914 194.739 66.8555C194.966 66.8316 194.978 66.4732 194.739 66.4971C193.878 66.5688 192.957 66.6405 192.108 66.4732C191.666 66.3776 191.355 66.2343 191.654 65.7803C192.025 65.2307 192.527 64.7887 192.921 64.2511C193.627 63.2834 193.926 61.9334 194.081 60.7745C194.165 60.1533 194.213 59.532 194.284 58.9108C194.296 58.7555 194.32 58.6001 194.332 58.4568C194.344 58.3493 194.368 58.2059 194.356 58.0984C194.356 58.0864 194.332 57.8594 194.296 57.9311C194.416 57.728 195.122 57.6085 195.325 57.5488C196.006 57.3577 196.724 57.2621 197.417 57.3815C198.326 57.5369 199.032 58.0864 199.462 58.8988C199.641 59.2333 199.833 59.6395 199.869 60.0218C199.893 60.2488 199.869 60.4758 199.881 60.6909C199.916 61.778 200.168 64.3706 201.866 63.7015C201.889 63.6896 201.901 63.6776 201.925 63.6657C201.961 63.6657 201.997 63.6537 202.033 63.6059C202.499 63.0683 203.193 62.7935 203.898 62.925Z" fill="white"/>
<path d="M204.209 62.6263C203.336 62.3515 202.38 62.6502 201.794 63.3431C201.794 63.3431 201.794 63.3431 201.782 63.3431C200.036 64.0241 200.419 60.6311 200.203 59.747C199.94 58.6838 199.271 57.6802 198.254 57.2382C197.453 56.8917 196.556 56.9036 195.719 57.0709C195.169 57.1784 194.607 57.3576 194.105 57.6085C194.045 57.6324 194.021 57.7041 194.021 57.7638C193.974 59.0302 193.866 60.3563 193.591 61.5988C193.436 62.2918 193.196 63.0086 192.874 63.6418C192.551 64.2869 191.977 64.7528 191.546 65.3143C191.343 65.5891 191.032 65.9595 191.188 66.3179C191.307 66.6046 191.654 66.7241 191.929 66.7838C192.359 66.8913 192.826 66.9272 193.292 66.9272C193.113 67.9905 193.172 69.2449 193.699 70.2126C194.117 70.9772 194.87 71.4073 195.731 71.4909C196.174 71.5387 196.64 71.5387 197.118 71.4909C197.118 73.2472 197.178 75.0153 197.118 76.7715C197.106 77.118 197.083 77.4644 197.071 77.8109C197.059 78.2649 196.975 78.8981 197.142 79.3282C197.298 79.7344 197.561 79.4715 197.776 79.2804C198.254 78.8503 198.876 78.5516 199.45 78.253C200.562 77.6914 201.71 77.2016 202.882 76.7596C202.954 76.7357 203.013 76.6759 203.013 76.5923C203.013 73.7609 203.013 70.9414 203.013 68.1219C203.013 67.7515 203.013 67.3931 203.013 67.0228C203.181 67.0706 203.372 67.0944 203.552 67.0944C204.293 67.0944 204.986 66.736 205.417 66.1387C206.302 64.8962 205.68 63.0802 204.209 62.6263Z" stroke="black" stroke-width="0.1684" stroke-miterlimit="10"/>
<path d="M204.042 62.9608C204.568 63.1041 205.01 63.4625 205.261 63.9524C205.847 65.0993 205.106 66.521 203.838 66.7241C203.061 66.8435 202.308 66.4732 201.889 65.8281C201.854 65.7683 201.794 65.7444 201.746 65.7444C201.626 65.7444 201.495 65.8758 201.579 66.0073C201.842 66.4135 202.212 66.736 202.643 66.9152C202.643 66.9152 202.643 66.9152 202.643 66.9272C202.643 69.7586 202.643 72.5781 202.643 75.3976C202.643 75.756 202.643 76.1264 202.643 76.4848C201.854 76.7954 201.064 77.118 200.287 77.4764C199.641 77.7631 199.02 78.0737 198.41 78.4322C198.171 78.5636 197.943 78.7189 197.728 78.8861C197.645 78.9459 197.561 79.0056 197.489 79.0773C197.489 79.0773 197.489 79.0773 197.477 79.0773C197.477 78.91 197.417 78.6711 197.417 78.5636C197.417 78.2768 197.417 77.9901 197.429 77.7034C197.441 77.4047 197.465 77.0941 197.477 76.7954C197.501 75.9352 197.477 75.0631 197.477 74.2029C197.477 73.2949 197.477 72.375 197.477 71.467C198.111 71.3715 198.733 71.1923 199.283 70.9175C199.689 70.7144 200.168 70.4157 200.407 69.9976C200.526 69.7945 200.215 69.6153 200.096 69.8184C199.952 70.0573 199.629 70.2962 199.366 70.4635C198.458 71.0131 197.346 71.1684 196.293 71.1803C195.42 71.1923 194.571 70.9653 194.093 70.1768C193.734 69.5914 193.615 68.8984 193.591 68.2175C193.579 67.8113 193.591 67.3692 193.663 66.9869C193.663 66.975 193.663 66.963 193.663 66.9511C194.033 66.9391 194.404 66.9152 194.763 66.8794C194.99 66.8555 195.002 66.4971 194.763 66.521C193.902 66.5927 192.981 66.6643 192.132 66.4971C191.69 66.4015 191.379 66.2581 191.678 65.8042C192.048 65.2546 192.551 64.8126 192.945 64.2749C193.651 63.3072 193.95 61.9572 194.105 60.7984C194.189 60.1771 194.237 59.5559 194.308 58.9346C194.32 58.7793 194.344 58.624 194.356 58.4806C194.368 58.3731 194.392 58.2298 194.38 58.1222C194.38 58.1103 194.356 57.8833 194.32 57.955C194.44 57.7519 195.145 57.6324 195.349 57.5727C196.03 57.3815 196.748 57.2859 197.441 57.4054C198.35 57.5607 199.056 58.1103 199.486 58.9227C199.665 59.2572 199.857 59.6634 199.893 60.0457C199.916 60.2727 199.893 60.4997 199.904 60.7147C199.94 61.8019 200.191 64.3944 201.889 63.7254C201.913 63.7134 201.925 63.7015 201.949 63.6895C201.985 63.6895 202.021 63.6776 202.057 63.6298C202.511 63.1041 203.205 62.8174 203.91 62.9488C203.946 62.9249 203.994 62.9369 204.042 62.9608Z" stroke="black" stroke-width="0.1684" stroke-miterlimit="10"/>
<path d="M198.302 59.52C198.063 59.2333 197.716 58.9944 197.381 58.8391C196.592 58.4568 195.719 58.4329 194.894 58.6957C194.679 58.7674 194.763 59.1138 194.99 59.0422C195.743 58.8032 196.544 58.8032 197.262 59.1736C197.549 59.3289 197.836 59.52 198.051 59.7709C198.195 59.9501 198.446 59.6873 198.302 59.52Z" fill="black"/>
<path d="M195.911 68.7909C197.298 68.8865 198.864 68.3488 199.749 67.2736C200.204 66.724 200.479 66.055 200.61 65.3621C200.658 65.1351 200.311 65.0395 200.263 65.2665C200.06 66.3537 199.486 67.2975 198.506 67.859C197.86 68.2294 197.119 68.4086 196.377 68.4444C196.222 68.4564 196.066 68.4564 195.911 68.4444C195.672 68.4086 195.672 68.767 195.911 68.7909Z" fill="black"/>
<path d="M195.432 64.0121C196.694 64.0121 197.716 62.9904 197.716 61.7302C197.716 60.4699 196.694 59.4483 195.432 59.4483C194.171 59.4483 193.148 60.4699 193.148 61.7302C193.148 62.9904 194.171 64.0121 195.432 64.0121Z" fill="white"/>
<path d="M197.537 61.7302C197.525 62.6023 196.987 63.4147 196.15 63.7134C195.313 64.0121 194.368 63.7493 193.806 63.0683C193.244 62.3873 193.184 61.4076 193.627 60.655C194.069 59.9023 194.966 59.4961 195.827 59.6634C196.819 59.8545 197.525 60.7267 197.537 61.7302C197.537 61.9572 197.896 61.9572 197.896 61.7302C197.884 60.7147 197.262 59.7948 196.293 59.4244C195.325 59.0541 194.177 59.3647 193.519 60.1651C192.873 60.9656 192.778 62.1006 193.304 62.9846C193.83 63.8687 194.87 64.3227 195.875 64.1435C197.035 63.9404 197.872 62.8891 197.884 61.7183C197.907 61.5032 197.549 61.5032 197.537 61.7302Z" fill="black"/>
<path d="M197.716 61.9094C198.518 61.8139 199.331 61.7541 200.132 61.7183C201.459 61.6586 202.882 61.5988 204.185 61.9333C204.568 62.0289 205.202 62.2201 205.214 62.6979C205.226 62.9249 205.584 62.9249 205.572 62.6979C205.548 61.5988 203.827 61.4555 203.037 61.3838C201.614 61.2524 200.168 61.324 198.733 61.4435C198.386 61.4674 198.051 61.5032 197.704 61.5391C197.489 61.5749 197.489 61.9453 197.716 61.9094Z" fill="black"/>
<path d="M194.595 62.459C194.873 62.459 195.098 62.2343 195.098 61.9572C195.098 61.6801 194.873 61.4554 194.595 61.4554C194.318 61.4554 194.093 61.6801 194.093 61.9572C194.093 62.2343 194.318 62.459 194.595 62.459Z" fill="black"/>
<path d="M191.714 62.459C191.991 62.459 192.216 62.2343 192.216 61.9572C192.216 61.6801 191.991 61.4554 191.714 61.4554C191.436 61.4554 191.211 61.6801 191.211 61.9572C191.211 62.2343 191.436 62.459 191.714 62.459Z" fill="black"/>
<mask id="mask0_150_923" style="mask-type:luminance" maskUnits="userSpaceOnUse" x="198" y="68" width="8" height="10">
<path d="M205.405 68.2653H198.505V77.5481H205.405V68.2653Z" fill="white"/>
</mask>
<g mask="url(#mask0_150_923)">
<path d="M194.583 57.5488C194.583 57.5488 199.295 55.1475 200.454 59.7112C200.454 59.7112 200.263 64.1197 202.224 63.2953L202.882 66.4135C203.229 68.6118 201.268 75.6844 201.268 75.6844C203.599 73.5937 211.216 71.9211 211.216 71.9211C209.805 69.3286 209.65 55.1116 204.376 53.6422C200.945 52.6864 199.833 53.5705 197.597 53.8214C189.98 54.6815 194.583 57.5488 194.583 57.5488Z" fill="black"/>
<path d="M194.667 57.7041C195.863 57.1068 197.537 56.7842 198.744 57.4771C200.669 58.5882 200 60.5594 200.526 62.3037C200.681 62.8294 200.968 63.4387 201.566 63.5581C201.698 63.582 201.805 63.5701 201.925 63.5581C202.212 63.5462 201.937 63.2953 202.057 63.4506C202.236 63.6896 202.26 64.3944 202.32 64.6812C202.463 65.386 202.69 66.1148 202.726 66.8436C202.786 67.9307 202.559 69.0418 202.367 70.1051C202.021 71.9688 201.59 73.8087 201.076 75.6366C201.028 75.8158 201.243 75.9233 201.375 75.8158C203.013 74.406 205.357 73.737 207.39 73.1157C208.657 72.7334 209.948 72.375 211.252 72.1002C211.371 72.0764 211.407 71.933 211.359 71.8374C210.929 71.0011 210.797 69.9976 210.63 69.0896C210.379 67.7635 210.188 66.4374 209.948 65.1232C209.446 62.2679 208.908 59.2931 207.617 56.6767C206.361 54.1439 204.4 53.0328 201.53 53.0448C199.952 53.0567 198.338 53.5346 196.771 53.7616C195.707 53.9169 194.009 54.12 193.28 55.0877C192.526 56.0913 193.674 57.2023 194.499 57.7161C194.691 57.8355 194.882 57.5249 194.679 57.4054C193.818 56.8678 192.813 55.8045 193.937 54.9802C195.157 54.0961 196.987 54.1558 198.398 53.893C200.036 53.5943 201.495 53.2598 203.169 53.5585C204.436 53.7855 205.44 54.2036 206.266 55.2072C207.031 56.1271 207.533 57.2621 207.94 58.3731C208.824 60.7984 209.279 63.355 209.709 65.8878C210.044 67.8352 210.116 70.2246 211.037 72.0166C211.072 71.933 211.108 71.8374 211.144 71.7538C209.685 72.0764 208.227 72.4706 206.792 72.9246C204.855 73.5339 202.678 74.2149 201.112 75.5649C201.208 75.6246 201.315 75.6844 201.411 75.7441C202.021 73.5339 202.571 71.2879 202.894 69.0179C203.192 66.9511 202.798 65.2785 202.367 63.2595C202.344 63.1639 202.236 63.1042 202.14 63.128C200.634 63.6657 200.634 61.0015 200.598 60.1055C200.55 59.1139 200.107 58.1103 199.318 57.4652C197.967 56.3541 195.922 56.6767 194.464 57.4054C194.284 57.4891 194.464 57.7997 194.667 57.7041Z" fill="black"/>
</g>
<path d="M203.228 76.4012C203.228 76.4012 197.214 87.249 199.773 105.851L211.945 102.135L212.244 77.2375C212.256 77.2375 207.186 76.3534 203.228 76.4012Z" fill="white"/>
<path d="M202.953 76.2458C201.638 78.6472 200.861 81.4308 200.239 84.0711C198.565 91.2035 198.493 98.6226 199.462 105.851C199.486 106.042 199.641 106.221 199.856 106.149C203.91 104.907 207.975 103.664 212.029 102.434C212.161 102.398 212.256 102.266 212.256 102.135C212.352 93.8318 212.459 85.5406 212.555 77.2374C212.555 77.106 212.459 76.9627 212.328 76.9388C209.327 76.425 206.265 76.0786 203.216 76.1025C202.81 76.1025 202.81 76.7357 203.216 76.7357C204.807 76.7237 206.397 76.8312 207.975 76.9866C209.183 77.106 210.463 77.4525 211.682 77.4644C212.244 77.4764 212.005 77.6795 211.933 77.2494C211.945 77.2972 211.945 77.3928 211.933 77.4405C211.838 77.7153 211.921 78.1813 211.921 78.468C211.885 81.7654 211.838 85.0747 211.802 88.3721C211.754 92.0637 211.706 95.7553 211.67 99.435C211.658 100.307 211.61 101.179 211.634 102.051C211.622 101.872 212.089 101.908 211.527 101.944C210.941 101.992 210.247 102.338 209.697 102.505C206.361 103.521 203.025 104.548 199.701 105.564C199.832 105.659 199.964 105.767 200.095 105.862C199.139 98.6823 199.187 91.323 200.849 84.2503C201.459 81.6578 202.212 78.922 203.503 76.5804C203.695 76.21 203.145 75.8874 202.953 76.2458Z" fill="black"/>
<path d="M217.661 112.278C217.757 112.433 217.852 112.589 217.936 112.756C218.665 114.01 219.204 114.679 219.036 115.002C218.905 115.241 218.319 115.157 217.613 114.524L217.589 114.608L217.601 114.632C218.378 115.516 219.036 116.197 218.905 116.579C218.773 116.925 217.888 116.866 216.967 116.125L216.956 116.149C217.876 117.128 218.821 117.738 218.701 118.132C218.606 118.49 217.219 118.419 215.999 117.308L215.987 117.32C217.099 118.478 218.295 119.171 218.151 119.542C218.091 119.721 217.577 119.793 216.884 119.554C216.178 119.339 215.281 118.813 214.564 118.048L214.444 117.929C214.373 117.941 214.301 117.941 214.217 117.941C214.863 118.873 215.365 119.566 215.186 119.817C215.054 120.008 214.397 119.876 213.655 119.351C212.866 118.837 212.029 117.941 211.371 116.866C211.192 116.543 211.013 116.22 210.869 115.91C210.762 115.743 210.678 115.563 210.582 115.384C210.415 115.074 210.188 114.524 209.996 114.058C209.817 113.58 209.638 113.102 209.494 112.613C209.363 112.182 209.243 111.74 209.135 111.298C209.076 111.083 209.028 110.856 208.992 110.629C208.92 110.295 208.848 109.936 208.824 109.602C208.741 108.921 208.669 108.228 208.681 107.559C208.705 107.224 208.765 106.902 208.813 106.579C208.968 106.281 208.98 105.946 209.076 105.624C209.578 104.381 210.499 103.366 211.611 102.589C212.137 102.159 212.77 101.86 213.368 101.526C213.703 101.335 213.894 101.275 214.098 101.179L214.719 100.916C217.912 99.6858 220.782 99.0646 223.652 98.3597C226.498 97.6787 229.308 97.0575 231.962 96.3168C233.277 95.9464 234.569 95.5402 235.717 95.0862L236.004 94.9668L236.135 94.907C236.219 94.8712 236.303 94.8115 236.374 94.7517C236.542 94.6323 236.554 94.3814 236.386 94.2619C236.315 94.1902 236.243 94.1305 236.159 94.0707C236.063 94.011 236.087 94.011 235.358 93.5929C233.062 92.3265 230.455 91.1915 227.849 90.1282C225.23 89.053 222.552 88.0495 219.849 87.0817L215.784 85.6481L211.802 84.2862C209.805 83.5693 208.765 81.3591 209.47 79.3401C210.176 77.321 212.4 76.2697 214.433 77.0104C219.861 78.8383 225.457 80.7976 230.934 83.0317C233.696 84.1786 236.434 85.3494 239.232 86.9025L239.758 87.2012L240.583 87.703C241.133 88.0256 241.707 88.4437 242.245 88.826C243.322 89.6265 244.218 90.5583 244.828 91.5499C245.127 92.0517 245.378 92.5654 245.522 93.115C245.606 93.3898 245.653 93.6765 245.701 93.9513C245.713 94.238 245.725 94.5367 245.713 94.8354C245.582 96.0181 245.247 97.1292 244.541 98.0849L244.003 98.7898C243.8 99.0168 243.561 99.2199 243.346 99.435C242.939 99.8889 242.353 100.223 241.839 100.606C241.313 100.976 240.667 101.251 240.093 101.585C239.519 101.896 238.754 102.171 238.479 102.302C236.936 102.9 235.454 103.354 233.983 103.772C231.053 104.596 228.196 105.217 225.397 105.886C222.647 106.543 219.825 107.212 217.589 108.085L216.944 108.359C216.896 108.383 216.848 108.407 216.8 108.431C216.704 108.491 216.609 108.551 216.561 108.658C216.525 108.766 216.549 108.885 216.561 108.993L216.573 109.076C216.597 109.208 216.621 109.339 216.657 109.482C216.716 109.757 216.788 110.02 216.872 110.295C216.967 110.629 217.087 110.964 217.219 111.274L217.422 111.74L217.589 112.075C217.613 112.135 217.637 112.206 217.661 112.278Z" fill="white"/>
<path d="M217.398 112.421C217.816 113.258 218.33 113.891 218.689 114.572C218.737 114.655 218.761 114.799 218.833 114.882C218.845 114.894 218.833 114.978 218.857 114.978C218.976 114.859 219 114.811 218.928 114.835H218.869C218.785 114.751 218.558 114.775 218.438 114.727C218.235 114.608 218.02 114.476 217.828 114.297C217.697 114.166 217.41 114.285 217.338 114.524C217.218 114.894 217.661 115.121 217.828 115.336C218.079 115.587 218.307 115.886 218.522 116.173C218.57 116.244 218.677 116.364 218.665 116.471C218.677 116.376 218.725 116.424 218.629 116.436C218.558 116.448 218.486 116.448 218.402 116.436C217.936 116.424 217.517 116.149 217.147 115.85C217.027 115.743 216.8 115.778 216.692 115.958L216.68 115.982C216.609 116.101 216.644 116.232 216.728 116.328C217.075 116.675 217.422 117.021 217.804 117.355C217.924 117.475 218.055 117.594 218.163 117.738C218.223 117.798 218.354 118.001 218.39 117.953C218.307 118.096 217.709 117.929 217.601 117.869C217.063 117.726 216.597 117.391 216.166 117.045C216.071 116.961 215.891 116.913 215.784 116.997L215.772 117.009C215.604 117.128 215.58 117.344 215.748 117.511C216.238 118.001 216.8 118.467 217.338 118.956C217.398 119.04 217.768 119.351 217.757 119.363C217.768 119.339 217.398 119.351 217.314 119.327C216.979 119.255 216.644 119.136 216.31 118.98C215.999 118.813 215.7 118.61 215.413 118.407C215.138 118.204 214.887 117.845 214.612 117.666C214.396 117.523 214.289 117.535 214.062 117.535C213.846 117.523 213.763 117.809 213.882 118.013C214.002 118.228 214.935 119.386 214.695 119.482C214.385 119.613 213.392 118.801 213.153 118.574C212.017 117.594 211.383 116.352 210.797 115.181C210.702 114.99 210.606 114.811 210.486 114.524C210.187 113.843 209.936 113.15 209.721 112.457C209.554 111.943 209.422 111.43 209.303 110.904L209.111 109.901C209.052 109.506 209.016 109.112 208.968 108.706C208.812 107.38 209.016 106.113 209.625 104.978C210.259 103.867 211.264 103.019 212.364 102.302L213.237 101.824L213.679 101.585L214.014 101.442C214.42 101.263 214.827 101.084 215.21 100.952C215.999 100.654 216.752 100.403 217.505 100.176C220.495 99.2797 223.341 98.6584 226.163 97.9894C227.968 97.5712 229.738 97.1411 231.46 96.6752C232.309 96.4363 233.158 96.1973 233.971 95.9345C234.377 95.8031 234.784 95.6717 235.155 95.5283C235.346 95.4566 235.549 95.3969 235.729 95.3133L236.027 95.1938C236.338 95.0624 236.745 94.8832 236.853 94.5128C236.9 94.3217 236.745 94.1663 236.613 94.0349C236.47 93.9035 236.338 93.8079 236.135 93.6765L235.465 93.2942L234.497 92.7685C233.827 92.434 233.158 92.0876 232.464 91.7769C231.077 91.1318 229.654 90.5106 228.207 89.9132C225.314 88.7185 222.348 87.6194 219.359 86.5442C216.848 85.672 214.337 84.8118 211.826 83.9397C209.853 83.2109 208.896 80.8454 209.877 78.9459C210.702 77.333 212.591 76.6759 214.289 77.2374L216.68 78.0498C221.487 79.6985 226.282 81.4189 231.065 83.3782C232.799 84.095 234.521 84.8357 236.255 85.672C237.116 86.0782 237.988 86.5322 238.861 87.0101L239.519 87.3804L240.5 87.9778C241.169 88.4079 241.875 88.8858 242.473 89.3875C243.716 90.403 244.649 91.5738 245.103 92.8761C245.211 93.2106 245.294 93.5451 245.342 93.8916C245.354 94.25 245.378 94.6084 245.342 94.9668C245.199 95.6717 245.067 96.3765 244.744 96.9978C244.099 98.2522 243.094 99.3513 241.731 100.212C241.109 100.677 240.32 101 239.615 101.394C239.435 101.49 239.244 101.562 239.053 101.645L238.574 101.848C238.335 101.956 238.084 102.039 237.857 102.135C234.246 103.461 230.814 104.214 227.43 105.026C224.082 105.827 220.686 106.555 217.852 107.595C217.529 107.702 217.254 107.834 216.979 107.941C216.812 108.013 216.788 108.025 216.752 108.037L216.633 108.097C216.489 108.18 216.334 108.276 216.25 108.431C216.166 108.586 216.202 108.766 216.226 108.933C216.226 108.981 216.238 109.016 216.25 109.052C216.262 109.112 216.298 109.315 216.334 109.447C216.393 109.745 216.477 110.032 216.573 110.319C216.74 110.868 216.967 111.466 217.183 111.908C217.266 112.099 217.338 112.254 217.398 112.421C217.517 112.684 218.032 112.362 217.924 112.135C217.84 111.884 217.757 111.728 217.625 111.43C217.493 111.131 217.362 110.832 217.254 110.51C217.206 110.402 217.171 110.283 217.147 110.163C217.039 109.817 216.955 109.47 216.872 109.136L216.836 108.945V108.885C216.824 108.801 216.848 108.718 216.92 108.67C216.943 108.646 216.979 108.634 217.015 108.61L217.326 108.479C217.888 108.228 218.582 107.989 219.287 107.762C220.71 107.308 222.253 106.914 223.831 106.531C226.988 105.755 230.264 105.062 233.636 104.142C234.605 103.879 235.573 103.593 236.578 103.27C237.068 103.115 237.57 102.935 238.084 102.744C238.335 102.649 238.586 102.553 238.849 102.446L239.399 102.219C239.615 102.135 239.83 102.039 240.033 101.932C241.683 101.119 243.214 100.128 244.29 98.8854L245.007 97.9177C245.187 97.5712 245.378 97.2248 245.546 96.8664C245.725 96.1137 246.012 95.3491 246 94.5486C246.036 92.9239 245.342 91.538 244.254 90.2597C243.19 88.9933 241.504 87.8583 240.045 87.0101C238.072 85.8632 236.326 85.0388 234.485 84.2025C229.056 81.7892 223.64 79.8419 218.199 77.9543L214.695 76.7596L214.672 76.7476C213.942 76.4967 213.201 76.3772 212.424 76.4967C210.51 76.7954 209.04 78.4441 208.932 80.3556C208.824 82.1954 209.972 83.9158 211.682 84.5371L212.16 84.6924L216.381 86.1379C221.966 88.0973 227.562 90.1402 232.703 92.5535C234.186 93.2345 236.386 94.4889 235.932 94.2619C236.027 94.3336 236.123 94.465 236.004 94.5606C235.956 94.6084 235.908 94.6323 235.848 94.6562C235.824 94.6681 235.788 94.6801 235.776 94.6801L235.322 94.8593L234.736 95.0743C233.17 95.6358 231.412 96.1137 229.63 96.5677C226.629 97.3323 223.496 98.0013 220.268 98.8257C218.653 99.2438 217.015 99.6978 215.257 100.331C214.827 100.486 214.373 100.666 213.906 100.869L213.548 101.024C213.404 101.096 213.213 101.203 213.045 101.287L212.005 101.848C210.69 102.697 209.566 103.772 208.908 105.146C208.717 105.456 208.693 105.815 208.597 106.161C208.406 106.484 208.454 106.854 208.37 107.189C208.298 107.905 208.382 108.646 208.466 109.387C208.501 109.757 208.561 110.128 208.633 110.51C208.693 110.82 208.729 111.012 208.788 111.251C208.896 111.716 209.016 112.182 209.159 112.636C209.267 113.043 209.434 113.437 209.566 113.843C209.721 114.261 209.901 114.667 210.08 115.086C210.678 116.436 211.467 117.857 212.734 118.98C213.021 119.255 213.536 119.637 214.014 119.912C214.54 120.163 215.054 120.294 215.365 120.127C215.76 119.9 215.58 119.434 215.305 118.968C214.994 118.526 214.683 118.001 214.468 117.738L214.325 118.216C214.397 118.216 214.48 118.216 214.552 118.204L214.193 118.072C214.911 118.861 215.903 119.566 216.979 119.864C217.446 119.996 218.187 120.067 218.426 119.745C218.749 119.267 218.175 118.789 217.589 118.299C216.991 117.809 216.369 117.26 216.154 117.045C216.142 117.212 216.142 117.379 216.142 117.547L216.154 117.535C216.011 117.535 215.891 117.511 215.76 117.487C216.011 117.702 216.668 118.252 217.398 118.478C218.115 118.729 218.821 118.658 218.952 118.192C219.06 117.821 218.773 117.487 218.57 117.284C218.319 117.057 218.103 116.77 217.84 116.579C217.613 116.316 217.35 116.137 217.123 115.886C217.135 115.994 217.147 116.125 217.171 116.232L217.183 116.209C217.027 116.256 216.884 116.28 216.74 116.316C216.824 116.4 217.003 116.543 217.254 116.675C217.482 116.83 217.768 116.961 218.067 117.009C218.629 117.176 219.144 116.961 219.144 116.424C219.156 116.221 219.096 116.065 219.012 115.922C218.94 115.767 218.845 115.635 218.761 115.54C218.606 115.372 218.474 115.157 218.319 115.002C218.223 114.918 218.151 114.787 218.055 114.691L217.888 114.5C217.78 114.381 217.78 114.369 217.852 114.476C217.697 114.56 217.529 114.632 217.374 114.715C217.745 115.062 218.283 115.516 218.809 115.36C219.12 115.277 219.275 114.918 219.251 114.632C219.227 114.237 219 113.986 218.845 113.712C218.57 113.234 218.211 112.744 217.9 112.123C217.816 111.884 217.278 112.159 217.398 112.421Z" fill="black"/>
<path d="M216.824 109.566C216.429 109.423 215.999 109.291 215.58 109.232C215.174 109.243 214.719 109.208 214.313 109.172C213.308 109.076 212.304 109.005 211.395 109.375C210.929 109.554 210.51 109.841 210.128 110.295C209.733 110.677 209.351 111.059 209.028 111.549C208.753 111.932 209.315 112.684 209.554 112.29C210.738 110.426 212.555 109.674 214.444 109.781C215.198 109.817 215.975 109.924 216.68 110.163C217.039 110.271 217.171 109.697 216.824 109.566Z" fill="black"/>
<path d="M95.8748 22.2812H62.8723C60.2178 22.2812 58.0415 24.4555 58.0415 27.1078V40.9424C58.0415 43.5947 60.2178 45.769 62.8723 45.769H88.1503L93.1365 50.1775L95.8748 45.7929C98.5293 45.7929 100.706 43.6185 100.706 40.9663V27.1197C100.706 24.4555 98.5413 22.2812 95.8748 22.2812Z" fill="white"/>
<path d="M95.8747 21.6838C89.9797 21.6838 84.0727 21.6838 78.1777 21.6838C74.3394 21.6838 70.4891 21.6838 66.6507 21.6838C64.618 21.6838 62.083 21.3374 60.2416 22.3648C56.7859 24.2883 57.4316 28.3861 57.4316 31.7074C57.4316 34.7778 57.312 37.884 57.4316 40.9544C57.5272 43.5349 59.273 45.8168 61.8917 46.2947C62.7048 46.438 63.5777 46.3902 64.4027 46.3902C67.9541 46.3902 71.5174 46.3902 75.0688 46.3902C79.0625 46.3902 83.0563 46.3902 87.0501 46.3902C87.3729 46.3902 87.7675 46.4619 88.0784 46.3902C88.1621 46.3783 87.7317 46.0557 87.8393 46.3066C87.923 46.5097 88.4372 46.8323 88.5926 46.9756C89.9677 48.1823 91.3428 49.4009 92.7179 50.6075C93.0168 50.8704 93.4473 50.8345 93.6625 50.4881C94.5713 49.0305 95.492 47.561 96.4008 46.1035C96.2214 46.1991 96.054 46.3066 95.8747 46.4022C99.0195 46.2708 101.267 43.8933 101.315 40.7632C101.351 38.5291 101.315 36.2831 101.315 34.049C101.315 31.8149 101.351 29.5689 101.315 27.3348C101.267 24.1927 99.0195 21.8152 95.8747 21.6838C95.0974 21.648 95.0974 22.8546 95.8747 22.8905C98.314 22.998 100 24.7901 100.108 27.1914C100.143 28.0038 100.108 28.8162 100.108 29.6166C100.108 32.4839 100.108 35.3393 100.108 38.2065C100.108 40.9185 100.311 44.1562 96.9389 45.0402C96.2453 45.2194 95.791 45.0402 95.3127 45.542C94.9659 45.9124 94.7268 46.4858 94.4517 46.9159C93.8419 47.8956 93.2321 48.8752 92.6103 49.8549C92.9212 49.819 93.244 49.7712 93.5549 49.7354C92.4309 48.7558 91.3189 47.7641 90.1949 46.7845C89.5731 46.2349 88.8676 45.315 88.0186 45.1716C87.1936 45.0402 86.225 45.1716 85.388 45.1716C83.7857 45.1716 82.1834 45.1716 80.5811 45.1716C76.5634 45.1716 72.5457 45.1716 68.54 45.1716C67.1051 45.1716 65.6702 45.1716 64.2353 45.1716C63.4342 45.1716 62.5733 45.2433 61.796 45.0402C57.6229 43.9411 58.6273 38.4574 58.6273 35.2078C58.6273 33.2605 58.6273 31.3251 58.6273 29.3777C58.6273 28.2547 58.4838 26.9405 58.8186 25.8533C59.8589 22.5321 63.1592 22.8785 65.8735 22.8785C69.3292 22.8785 72.7849 22.8785 76.2406 22.8785C82.7813 22.8785 89.322 22.8785 95.8627 22.8785C96.6519 22.8905 96.6519 21.6838 95.8747 21.6838Z" fill="black"/>
<path d="M157.133 125.193H124.13C121.476 125.193 119.299 127.367 119.299 130.019V143.854C119.299 146.506 121.476 148.681 124.13 148.681L126.868 153.065L131.855 148.681H157.133C159.787 148.681 161.963 146.506 161.963 143.854V130.019C161.963 127.367 159.787 125.193 157.133 125.193Z" fill="white"/>
<path d="M157.133 124.583C148.906 124.583 140.691 124.583 132.465 124.583C129.535 124.583 126.426 124.285 123.509 124.631C120.663 124.966 118.761 127.367 118.69 130.151C118.642 132.11 118.69 134.081 118.69 136.053C118.69 138.538 118.666 141.034 118.69 143.519C118.726 146.685 120.89 149.146 124.13 149.29C123.951 149.194 123.784 149.087 123.604 148.991C124.513 150.449 125.434 151.918 126.342 153.376C126.558 153.722 127 153.758 127.287 153.495C128.794 152.169 130.288 150.855 131.795 149.529C131.879 149.457 132.082 149.338 132.13 149.242C132.261 148.931 132.178 149.326 131.855 149.29C131.95 149.302 132.046 149.266 132.142 149.29C132.632 149.397 133.278 149.29 133.78 149.29C138.575 149.29 143.382 149.29 148.177 149.29C150.401 149.29 152.625 149.29 154.861 149.29C156.045 149.29 157.36 149.421 158.52 149.111C163.697 147.737 162.585 141.417 162.585 137.379C162.585 135.025 162.609 132.66 162.585 130.306C162.526 127.152 160.325 124.727 157.133 124.583C156.356 124.548 156.356 125.754 157.133 125.79C159.393 125.886 161.186 127.534 161.354 129.804C161.39 130.258 161.366 130.724 161.366 131.178C161.366 133.341 161.366 135.503 161.366 137.665C161.366 139.601 161.378 141.524 161.366 143.46C161.342 146.052 159.668 147.988 157.001 148.071C149.229 148.334 141.409 148.071 133.625 148.071C132.68 148.071 131.879 147.892 131.137 148.501C129.535 149.827 128.005 151.261 126.438 152.635C126.749 152.671 127.072 152.719 127.383 152.754C126.845 151.894 126.307 151.034 125.78 150.186C125.434 149.624 124.991 148.43 124.358 148.119C123.987 147.94 123.473 148.035 123.066 147.928C122.504 147.773 121.978 147.51 121.524 147.151C120.471 146.327 119.957 145.144 119.897 143.842C119.873 143.364 119.897 142.886 119.897 142.408C119.897 139.852 119.897 137.295 119.897 134.738C119.897 133.054 119.742 131.274 119.909 129.589C120.412 124.715 126.677 125.778 130.085 125.778C135.454 125.778 140.823 125.778 146.192 125.778C149.839 125.778 153.486 125.778 157.133 125.778C157.91 125.79 157.91 124.583 157.133 124.583Z" fill="black"/>
<path d="M47.3156 108.335H6.63644C3.3601 108.335 0.681641 111.012 0.681641 114.285V131.333C0.681641 134.607 3.3601 137.283 6.63644 137.283H37.7975L43.9436 142.695L47.3156 137.283C50.5919 137.283 53.2704 134.607 53.2704 131.333V114.297C53.2823 111.024 50.5919 108.335 47.3156 108.335Z" fill="white"/>
<path d="M47.3157 107.738C40.0934 107.738 32.8592 107.738 25.6369 107.738C20.9377 107.738 16.2503 107.738 11.5511 107.738C9.02807 107.738 5.7876 107.284 3.49178 108.539C-0.729189 110.844 0.071958 115.862 0.071958 119.9C0.071958 123.771 -0.0954459 127.678 0.0839154 131.549C0.227404 134.667 2.54714 137.367 5.66803 137.821C6.62462 137.964 7.62905 137.892 8.5976 137.892C13.0338 137.892 17.482 137.892 21.9182 137.892C26.45 137.892 30.9819 137.892 35.5138 137.892C36.0877 137.892 36.6617 137.928 37.2356 137.892C37.9411 137.845 37.6422 138.06 37.415 137.749C37.8574 138.334 38.6227 138.812 39.1727 139.29C40.1293 140.126 41.074 140.963 42.0305 141.799C42.5328 142.241 43.035 142.683 43.5252 143.113C43.8242 143.376 44.2546 143.34 44.4699 142.994C45.5939 141.19 46.7179 139.386 47.8419 137.582C47.6625 137.677 47.4951 137.785 47.3157 137.88C50.6638 137.761 53.5216 135.324 53.8445 131.931C53.988 130.414 53.8804 128.848 53.8804 127.343C53.8804 123.006 53.9999 118.658 53.8804 114.321C53.7847 110.665 50.9867 107.858 47.3157 107.738C46.5385 107.714 46.5385 108.921 47.3157 108.945C49.779 109.028 51.9432 110.629 52.5292 113.066C52.7085 113.819 52.6726 114.584 52.6726 115.348C52.6726 117.941 52.6726 120.533 52.6726 123.126C52.6726 125.611 52.6726 128.108 52.6726 130.593C52.6726 131.572 52.6368 132.504 52.2422 133.436C51.7878 134.499 51.0106 135.395 50.0181 135.981C49.5637 136.244 49.0615 136.447 48.5473 136.566C48.1169 136.674 47.4114 136.554 47.0168 136.793C46.2993 137.223 45.7613 138.669 45.3428 139.35C44.709 140.377 44.0633 141.393 43.4296 142.42C43.7405 142.384 44.0633 142.337 44.3742 142.301C42.9871 141.082 41.612 139.864 40.225 138.645C39.5075 138.012 38.6227 136.853 37.6422 136.71C36.5899 136.554 35.4061 136.71 34.3419 136.71C32.2852 136.71 30.2286 136.71 28.1839 136.71C23.2335 136.71 18.2951 136.71 13.3447 136.71C11.6467 136.71 9.93683 136.71 8.23888 136.71C6.98335 136.71 5.75173 136.781 4.56795 136.28C0.131745 134.392 1.29162 128.179 1.29162 124.309C1.29162 121.895 1.29162 119.494 1.29162 117.081C1.29162 115.671 1.11225 114.058 1.54272 112.696C2.82216 108.598 6.86377 108.945 10.2358 108.945C14.4926 108.945 18.7375 108.945 22.9943 108.945C30.946 108.945 38.9097 109.076 46.8613 108.945C47.0168 108.945 47.1722 108.945 47.3277 108.945C48.093 108.945 48.1049 107.738 47.3157 107.738Z" fill="black"/>
<path d="M11.7541 117.152C13.2607 115.074 14.6119 113.747 15.0184 114.01C15.3772 114.249 14.9228 115.647 13.9662 117.487C14.014 117.475 14.0619 117.475 14.1216 117.463L14.1456 117.415C15.5924 115.157 17.2306 113.628 17.8045 113.998C18.2828 114.309 17.8643 115.862 16.8599 117.69C16.8838 117.69 16.8958 117.702 16.9077 117.702C18.2709 115.695 19.7416 114.381 20.2797 114.727C20.8058 115.062 20.2558 116.866 19.0601 118.897C19.072 118.909 19.072 118.909 19.084 118.921C20.4232 116.985 25.8997 113.509 26.8324 119.363C26.9161 119.9 23.58 117.582 21.7744 119.255C20.8298 120.127 21.045 121.489 21.8103 122.517C23.0897 124.225 25.9117 126.268 26.5215 126.674C27.4303 127.271 25.5649 128.191 21.3918 125.384C21.0211 125.133 20.9015 126.125 20.6384 126.471C20.5428 126.662 20.4471 126.853 20.3275 127.033C20.2917 127.092 20.2558 127.152 20.208 127.2L19.0361 128.777C17.1588 131.704 13.2488 132.552 10.3192 130.676C7.41353 128.813 6.5526 124.978 8.35817 122.063C8.39404 122.003 8.44187 121.943 8.47774 121.883L9.64957 120.306C9.72131 120.187 9.80501 120.067 9.88872 119.96C9.93655 119.9 9.97242 119.84 10.0202 119.769C10.2116 119.446 10.4148 119.112 10.6301 118.777C11.0127 118.204 11.3954 117.654 11.7541 117.152Z" fill="white"/>
<path d="M12.1846 117.403C12.6629 116.746 13.1651 116.101 13.7152 115.504C13.9782 115.217 14.6 114.859 14.7674 114.548C14.8153 114.512 14.8631 114.488 14.9229 114.476C14.6957 114.285 14.612 114.309 14.6479 114.536C14.5522 114.667 14.5402 114.978 14.4924 115.133C14.2533 115.874 13.9065 116.567 13.5478 117.248C13.3325 117.654 13.6793 118.025 14.0978 117.965C14.6359 117.893 14.8631 117.224 15.1501 116.83C15.6403 116.149 16.1904 115.48 16.8241 114.93C16.9556 114.811 17.2785 114.488 17.4818 114.488C17.6611 114.488 17.422 114.333 17.5176 114.5C17.5774 114.596 17.4937 114.835 17.4818 114.942C17.3263 115.826 16.8719 116.674 16.4534 117.463C16.3099 117.738 16.4295 118.108 16.7524 118.18C16.7643 118.18 16.7882 118.192 16.8002 118.192C17.0274 118.252 17.2307 118.144 17.3502 117.965C17.7927 117.32 18.271 116.686 18.821 116.125C18.9764 115.97 19.8374 115.086 20.0048 115.157C20.4472 115.36 18.809 118.371 18.6416 118.67C18.534 118.849 18.5579 119.124 18.7134 119.267C18.7253 119.279 18.7253 119.279 18.7373 119.291C18.9884 119.506 19.3113 119.458 19.5145 119.195C20.3516 118.036 21.7984 117.081 23.1735 116.734C23.879 116.555 24.6682 116.579 25.2541 117.057C25.5769 117.32 25.8041 117.69 25.9715 118.072C26.0911 118.335 26.1629 118.61 26.2346 118.885C26.3063 119.195 26.1748 119.315 26.5216 119.112C27.0238 118.825 26.7009 119.04 26.6292 118.932C26.5216 118.777 25.852 118.658 25.6726 118.598C25.2182 118.443 24.7519 118.311 24.2736 118.228C23.3887 118.084 22.4321 118.156 21.6908 118.705C19.4906 120.318 21.2723 122.863 22.7072 124.237C23.5322 125.037 24.429 125.754 25.3498 126.447C25.5172 126.567 25.9955 127.056 26.2107 127.068C26.6172 127.08 25.9596 127.2 26.2824 127.021C26.2944 127.009 26.2824 126.734 26.3542 126.794C26.39 126.818 26.127 126.794 26.2226 126.829C25.9955 126.746 25.5889 126.818 25.3378 126.758C24.7758 126.638 24.2258 126.423 23.7116 126.172C23.042 125.85 22.4441 125.444 21.8104 125.085C21.4755 124.894 21.1766 124.787 20.8418 125.061C20.5429 125.312 20.4711 125.778 20.3157 126.113C20.1363 126.507 19.8852 126.877 19.6221 127.224C19.1439 127.869 18.6895 128.562 18.1753 129.171C16.4295 131.214 13.4162 131.787 11.0367 130.533C8.41805 129.147 7.23426 125.91 8.37022 123.174C8.72894 122.302 9.36268 121.585 9.91272 120.82C10.7139 119.709 11.3835 118.514 12.1846 117.403C12.5553 116.89 11.7063 116.4 11.3357 116.901C10.5345 118.013 9.86489 119.207 9.06375 120.306C8.48979 121.083 7.87996 121.812 7.49733 122.708C6.46899 125.097 6.94728 127.929 8.66915 129.876C10.4508 131.895 13.3804 132.672 15.9393 131.799C18.1036 131.059 19.3591 129.291 20.6266 127.498C20.8896 127.116 21.1288 126.71 21.3081 126.28C21.4755 125.874 21.4038 125.91 21.7745 126.172C22.181 126.471 22.6593 126.698 23.1137 126.925C24.0105 127.367 25.0508 127.809 26.0792 127.785C26.5455 127.773 27.1434 127.63 27.251 127.104C27.3706 126.495 26.7129 126.184 26.3063 125.898C25.2302 125.121 24.1899 124.273 23.2452 123.341C22.2528 122.361 20.5787 120.115 22.6832 119.267C23.7355 118.837 24.9671 119.351 25.9715 119.709C26.4618 119.888 27.2629 120.163 27.3466 119.375C27.4543 118.371 26.6651 116.913 25.8998 116.292C25.1824 115.707 24.2736 115.54 23.3648 115.671C21.5593 115.934 19.7298 117.188 18.6656 118.67C18.9286 118.634 19.1797 118.598 19.4428 118.574C19.4308 118.562 19.4308 118.562 19.4189 118.55C19.4428 118.753 19.4667 118.944 19.4906 119.148C19.9809 118.311 21.9897 115.097 20.495 114.285C19.933 113.986 19.2993 114.405 18.8688 114.739C17.9122 115.48 17.1709 116.471 16.5013 117.463C16.6806 117.391 16.8719 117.308 17.0513 117.236C17.0393 117.236 17.0154 117.224 17.0035 117.224C17.0991 117.463 17.1948 117.702 17.3024 117.941C17.685 117.224 19.6221 113.688 17.7209 113.461C17.0633 113.377 16.4176 113.963 15.9751 114.381C15.5327 114.787 15.1501 115.241 14.7794 115.719C14.6239 115.922 14.4685 116.125 14.3131 116.328C14.1815 116.507 14.05 116.698 13.9304 116.878C13.7032 117.224 13.6793 117.26 13.8587 117.009C14.038 117.248 14.2294 117.487 14.4087 117.726C14.7435 117.081 16.6208 113.915 15.1022 113.497C14.5881 113.353 14.05 113.819 13.7032 114.118C12.7945 114.906 12.0531 115.922 11.3476 116.89C10.953 117.415 11.814 117.905 12.1846 117.403Z" fill="black"/>
<path d="M42.198 117.152C40.6914 115.074 39.3402 113.748 38.9336 114.01C38.5749 114.249 39.0293 115.647 39.9859 117.487C39.9381 117.475 39.8902 117.475 39.8304 117.463L39.8065 117.415C38.3597 115.157 36.7215 113.628 36.1476 113.998C35.6693 114.309 36.0878 115.862 37.0922 117.69C37.0683 117.69 37.0563 117.702 37.0444 117.702C35.6812 115.695 34.2105 114.381 33.6724 114.727C33.1462 115.062 33.6963 116.866 34.892 118.897C34.8801 118.909 34.8801 118.909 34.8681 118.921C33.5289 116.985 28.0524 113.509 27.1197 119.363C27.036 119.9 30.3721 117.583 32.1777 119.255C33.1223 120.127 32.9071 121.489 32.1418 122.517C30.8624 124.225 28.0404 126.268 27.4306 126.674C26.5218 127.272 28.3872 128.191 32.5603 125.384C32.931 125.133 33.0506 126.125 33.3137 126.471C33.4093 126.662 33.505 126.853 33.6245 127.033C33.6604 127.092 33.6963 127.152 33.7441 127.2L34.9159 128.777C36.7933 131.704 40.7033 132.552 43.6329 130.676C46.5386 128.813 47.3995 124.978 45.5939 122.063C45.5581 122.003 45.5102 121.943 45.4743 121.883L44.3025 120.306C44.2308 120.187 44.1471 120.067 44.0634 119.96C44.0155 119.9 43.9797 119.84 43.9318 119.769C43.7405 119.446 43.5372 119.112 43.322 118.777C42.9394 118.204 42.5687 117.654 42.198 117.152Z" fill="white"/>
<path d="M42.6284 116.902C41.9349 115.958 41.2175 114.99 40.3446 114.201C39.9858 113.879 39.4119 113.353 38.8618 113.509C37.3432 113.939 39.2325 117.105 39.5554 117.738C39.7347 117.499 39.9261 117.26 40.1054 117.021C40.2848 117.272 40.2609 117.236 40.0337 116.89C39.938 116.746 39.8424 116.615 39.7467 116.471C39.5673 116.221 39.376 115.97 39.1847 115.719C38.8379 115.277 38.4792 114.847 38.0727 114.464C37.6183 114.034 36.9367 113.389 36.2432 113.473C34.33 113.7 36.2671 117.236 36.6617 117.953C36.7573 117.714 36.853 117.475 36.9606 117.236C36.9487 117.236 36.9247 117.248 36.9128 117.248C37.0921 117.32 37.2835 117.403 37.4628 117.475C36.7932 116.507 36.0638 115.528 35.1431 114.799C34.7007 114.452 34.043 113.998 33.469 114.309C31.9744 115.121 33.9952 118.335 34.4735 119.171C34.4974 118.968 34.5213 118.777 34.5452 118.574C34.5333 118.586 34.5333 118.586 34.5213 118.598C34.7844 118.634 35.0355 118.67 35.2985 118.694C33.5169 116.209 28.6741 113.879 27.0599 117.762C26.8327 118.299 26.1511 119.84 27.1794 119.96C27.873 120.044 28.7817 119.434 29.4514 119.279C30.946 118.932 32.8353 119.566 32.1776 121.465C31.6993 122.827 30.1688 123.95 29.0926 124.846C28.435 125.384 27.4784 125.838 26.9283 126.483C26.5935 126.877 26.6892 127.391 27.1436 127.654C27.7414 128 28.6382 127.785 29.2481 127.606C29.8101 127.451 30.3601 127.212 30.8862 126.961C31.245 126.782 31.5917 126.591 31.9385 126.387C32.0461 126.328 32.4407 126.017 32.5125 126.029C32.5244 126.005 32.5364 125.969 32.5483 125.945C32.5962 126.065 32.644 126.196 32.6918 126.316C33.0505 127.176 33.6245 127.881 34.1745 128.61C34.8202 129.482 35.4181 130.306 36.3149 130.939C38.4912 132.492 41.4925 132.576 43.7763 131.178C46.3113 129.625 47.5668 126.531 46.8135 123.664C46.5026 122.493 45.8689 121.597 45.1634 120.641C44.2427 119.434 43.5013 118.132 42.6284 116.902C42.2577 116.388 41.4088 116.878 41.7794 117.403C42.5328 118.455 43.1665 119.59 43.9198 120.629C44.3025 121.167 44.7329 121.68 45.1036 122.23C46.5744 124.428 46.2515 127.475 44.446 129.374C42.6165 131.298 39.6271 131.74 37.3193 130.414C36.3508 129.852 35.717 129.04 35.0713 128.168C34.593 127.522 34.055 126.889 33.7082 126.16C33.4093 125.551 33.2179 124.595 32.3211 124.966C31.6515 125.252 31.0536 125.778 30.384 126.101C29.822 126.375 29.2361 126.614 28.6263 126.746C28.3632 126.806 27.9806 126.734 27.7414 126.818C27.5501 126.889 27.7295 126.686 27.6338 126.841C27.586 126.913 27.6697 127.092 27.7175 127.092C27.8969 127.104 28.3991 126.614 28.5426 126.507C28.9731 126.196 29.3916 125.862 29.7981 125.527C31.3526 124.249 33.9832 122.206 33.1582 119.864C32.4287 117.786 29.9536 118.013 28.2915 118.586C28.16 118.634 27.299 118.837 27.2512 118.956C27.2392 118.98 22.6835 122.254 27.6577 119.243C27.7056 119.207 27.7534 118.837 27.7654 118.765C27.8491 118.467 27.9447 118.168 28.0882 117.893C28.5187 117.057 29.2361 116.579 30.1927 116.639C31.783 116.734 33.5527 117.917 34.4615 119.195C34.6528 119.47 34.9757 119.518 35.2387 119.291C35.2507 119.279 35.2507 119.279 35.2627 119.267C35.4301 119.124 35.442 118.849 35.3344 118.67C35.167 118.371 33.5288 115.36 33.9713 115.157C34.1147 115.098 34.9159 115.886 35.0594 116.041C35.6453 116.627 36.1475 117.296 36.6258 117.977C36.7573 118.156 36.9606 118.263 37.1758 118.204C37.1878 118.204 37.2117 118.192 37.2237 118.192C37.5465 118.108 37.6661 117.738 37.5226 117.475C37.1161 116.71 36.6975 115.91 36.5062 115.062C36.4704 114.906 36.4584 114.464 36.4106 114.476C36.578 114.428 37.0563 114.882 37.14 114.942C37.7378 115.456 38.252 116.077 38.7184 116.71C39.0292 117.129 39.2923 117.893 39.8663 117.977C40.2848 118.036 40.6315 117.666 40.4163 117.26C40.0695 116.579 39.7108 115.874 39.4717 115.145C39.4358 115.014 39.388 114.667 39.3162 114.548C39.3521 114.321 39.2564 114.297 39.0412 114.488C39.101 114.5 39.1488 114.536 39.1966 114.56C39.3521 114.847 40.0098 115.253 40.2489 115.516C40.7989 116.113 41.3012 116.758 41.7794 117.415C42.1501 117.905 42.9991 117.415 42.6284 116.902Z" fill="black"/>
<path d="M74.2201 40.3212C73.8494 40.2495 73.4668 40.1539 73.0722 40.0584C69.9394 39.2818 71.1231 39.2937 71.2666 38.7442C71.3623 38.3619 71.0753 38.4336 70.9797 37.5495C70.9557 37.5136 70.9438 37.4659 70.9199 37.4181L70.872 37.4061C71.0275 36.307 70.884 36.9163 71.0275 36.307C71.159 35.7933 70.8362 35.5782 70.31 34.9689C70.31 34.957 70.31 34.9331 70.31 34.9211C70.3937 33.9654 70.4177 34.503 70.5611 33.9415C70.6927 33.3919 70.4774 34.1924 70.7166 32.7109C70.7166 32.699 70.7166 32.687 70.7285 32.687C68.648 32.0897 70.1905 31.791 70.334 31.2295C70.4894 30.6202 69.4969 30.0587 71.8765 30.6441C71.9362 30.6561 72.008 30.68 72.0678 30.6919C72.1395 30.6202 72.0797 30.2976 72.0797 30.214C72.0678 29.8795 72.0558 29.545 72.0439 29.2105C72.008 28.2547 71.9482 27.2273 72.0558 26.2715C72.0797 26.0923 72.1156 25.9131 72.2113 25.7697C72.4504 25.4233 73.0005 25.2202 73.419 25.3038C74.0766 25.4233 73.9929 26.0445 73.981 26.5582C73.969 27.3706 74.1962 28.1113 74.9615 28.5175C75.1767 28.637 75.4039 28.7087 75.643 28.7684C76.0496 28.864 76.4322 28.9835 76.8029 29.1029C77.0301 29.1268 77.2573 29.1746 77.4725 29.2224L85.4003 31.3609C88.4973 32.1255 90.3865 35.2557 89.6213 38.3619C88.856 41.4562 85.7232 43.3438 82.6262 42.5792L74.6984 40.4407C74.531 40.4168 74.3756 40.369 74.2201 40.3212Z" fill="white"/>
<path d="M74.3399 39.8792C73.4311 39.688 72.5463 39.4013 71.6495 39.1862C71.5897 39.1743 71.3625 39.0429 71.3386 39.0548C71.3625 39.0429 71.2907 39.3893 71.3505 39.4013C71.3984 39.4013 71.5538 39.1623 71.5777 39.1384C71.769 38.8517 71.7332 38.565 71.6614 38.2544C71.5658 37.8721 71.4581 37.0955 70.9918 36.976C71.0994 37.1552 71.207 37.3464 71.3027 37.5256C71.3744 37.0358 71.4581 36.6535 71.494 36.2234C71.506 35.9725 71.4701 35.7574 71.3625 35.5304C71.2668 35.3393 70.7885 34.9809 70.7646 34.9211C70.657 34.6464 70.9918 34.1326 71.0396 33.8579C71.0994 33.4995 70.9559 33.2964 71.1592 32.8065C71.2549 32.5795 71.0516 32.3167 70.8483 32.257C70.6092 32.1972 70.382 32.1136 70.1667 32.018C70.083 32.1853 70.095 32.1972 70.2026 32.0778C70.2385 32.0061 70.4178 31.8986 70.4776 31.8388C70.657 31.6357 70.7766 31.4326 70.8005 31.1578C70.8124 31.0264 70.7885 30.6561 70.7048 30.5485C70.645 30.6561 70.5853 30.7516 70.5255 30.8592C70.657 30.8592 70.7766 30.8711 70.8961 30.895C71.219 31.0145 71.6136 31.0503 71.9484 31.1339C72.1756 31.1937 72.4387 31.0623 72.4984 30.8233C72.7256 29.9392 72.4626 28.8282 72.4506 27.9202C72.4387 27.3826 72.2832 25.5786 73.2159 25.7458C73.7659 25.8414 73.5148 26.7016 73.5746 27.0959C73.8377 29.0671 75.7867 29.2822 77.389 29.6645C79.5772 30.1782 81.7415 30.8353 83.9178 31.4326C84.8385 31.6835 85.831 31.8747 86.668 32.3525C88.617 33.4636 89.6932 35.7694 89.2627 37.9796C88.8562 40.0703 87.218 41.7429 85.1255 42.1849C83.9058 42.4478 82.8177 42.161 81.6578 41.8504C79.2066 41.2053 76.7314 40.6438 74.3399 39.8792C73.7898 39.7 73.5507 40.5721 74.1007 40.7513C76.5401 41.5278 79.0511 42.1013 81.5263 42.7703C82.7938 43.1168 84.0254 43.3557 85.3407 43.069C87.3496 42.6389 89.0475 41.1694 89.8008 39.2579C90.59 37.2628 90.2672 34.957 88.9877 33.2486C88.0192 31.9583 86.6919 31.2654 85.1733 30.8472C82.6742 30.1782 80.1871 29.4494 77.676 28.8282C76.6238 28.5653 74.8182 28.4937 74.4834 27.2392C74.2562 26.4029 74.7345 25.2799 73.6344 24.9215C72.7137 24.6228 71.769 25.268 71.6016 26.1759C71.4821 26.8569 71.5179 27.5737 71.5299 28.2547C71.5538 28.9476 71.769 29.9154 71.6016 30.5963C71.781 30.4888 71.9723 30.3813 72.1517 30.2857C71.6256 30.1423 70.5853 29.7361 70.0591 30.0707C69.6047 30.3574 69.9156 30.6441 69.8559 31.0264C69.7961 31.4087 69.2699 31.5521 69.1862 31.9702C69.0308 32.7229 70.0591 32.9857 70.5733 33.153C70.4657 32.9738 70.3581 32.7826 70.2624 32.6034C70.107 32.9977 70.1907 33.4397 70.1428 33.8459C70.1907 33.5233 70.107 33.8937 70.0591 34.0251C70.0113 34.1446 69.9515 34.2402 69.9156 34.3596C69.7124 35.1004 69.9993 35.1959 70.37 35.7574C70.657 36.1756 70.4896 36.8207 70.4179 37.3105C70.382 37.5495 70.4657 37.8004 70.7287 37.8601C70.5494 37.8123 70.7646 38.6008 70.7168 38.7561C70.6331 39.019 70.3939 39.1026 70.4896 39.4371C70.5853 39.7597 70.9559 39.9031 71.2429 40.0106C72.1397 40.369 73.1441 40.5482 74.0888 40.7513C74.6627 40.8708 74.9019 39.9986 74.3399 39.8792Z" fill="black"/>
<path d="M71.6657 38.9755C71.8083 38.399 70.9521 37.6916 69.7532 37.3955C68.5544 37.0993 67.4668 37.3266 67.3242 37.9031C67.1816 38.4796 68.0378 39.187 69.2367 39.4831C70.4355 39.7793 71.523 39.552 71.6657 38.9755Z" fill="white"/>
<path d="M69.6407 37.8362C69.9874 37.9199 70.3223 38.0393 70.6331 38.2185C70.7527 38.2902 70.8603 38.3619 70.968 38.4455C71.0158 38.4933 71.0636 38.5411 71.1114 38.5889C71.1473 38.6367 71.1354 38.6247 71.1951 38.6964C71.2071 38.7084 71.243 38.78 71.2191 38.7323C71.1951 38.6845 71.2191 38.7442 71.231 38.7562C71.243 38.78 71.243 38.8039 71.2549 38.8278C71.231 38.7442 71.2549 38.792 71.2549 38.8159C71.2669 38.8995 71.2669 38.8159 71.2669 38.8039C71.2669 38.8159 71.2549 38.8637 71.243 38.8756C71.2549 38.8517 71.2789 38.792 71.243 38.8756C71.1951 38.9473 71.2549 38.8517 71.231 38.8995C71.2191 38.9115 71.1593 38.9712 71.1951 38.9354C71.231 38.8995 71.1593 38.9593 71.1473 38.9593C71.1114 38.9831 71.0277 39.019 71.0038 39.0309C70.9082 39.0668 70.7408 39.1026 70.6212 39.1265C69.9157 39.2221 69.1146 39.0429 68.4928 38.7084C68.3732 38.6367 68.2417 38.565 68.134 38.4814C68.0862 38.4455 68.0384 38.3977 67.9906 38.3619C67.9666 38.338 67.859 38.2185 67.8829 38.2544C67.8471 38.2066 67.8232 38.1588 67.7873 38.111C67.8232 38.1827 67.7753 38.0632 67.7634 38.0393C67.7992 38.1588 67.7634 37.9318 67.7634 38.0632C67.7634 38.0513 67.7753 38.0035 67.7873 37.9915C67.7514 38.0513 67.7753 38.0035 67.7992 37.9796C67.8351 37.9438 67.7873 37.9796 67.7873 37.9915C67.7873 37.9915 67.8829 37.896 67.8232 37.9438C67.871 37.896 67.9427 37.8601 68.0025 37.8362C68.0743 37.8004 68.2656 37.7526 68.3971 37.7407C68.8037 37.6809 69.2341 37.7407 69.6407 37.8362C70.2027 37.9676 70.4418 37.1075 69.8798 36.9641C69.0548 36.761 67.8351 36.6415 67.1655 37.3225C66.8905 37.5973 66.7948 37.9915 66.9144 38.35C67.034 38.7442 67.3449 39.0429 67.6677 39.2699C68.4449 39.8314 69.5331 40.1181 70.4897 40.0464C71.2669 39.9986 72.3072 39.6044 72.1159 38.6367C72.0322 38.2185 71.7093 37.884 71.3865 37.6331C70.944 37.2986 70.4179 37.0955 69.8798 36.9522C69.3178 36.8207 69.0787 37.6929 69.6407 37.8362Z" fill="black"/>
<path d="M71.6564 36.5938C71.7991 36.0173 70.9428 35.3099 69.7439 35.0138C68.5451 34.7176 67.4576 34.9449 67.3149 35.5214C67.1723 36.0979 68.0285 36.8053 69.2274 37.1014C70.4263 37.3976 71.5138 37.1703 71.6564 36.5938Z" fill="white"/>
<path d="M69.6285 35.4468C69.9752 35.5305 70.31 35.6499 70.6209 35.8291C70.7405 35.9008 70.8481 35.9725 70.9557 36.0561C71.0036 36.1039 71.0514 36.1517 71.0992 36.1995C71.1351 36.2473 71.1231 36.2353 71.1829 36.307C71.1949 36.319 71.2308 36.3906 71.2069 36.3429C71.1829 36.2951 71.2069 36.3548 71.2188 36.3667C71.2308 36.3906 71.2308 36.4145 71.2427 36.4384C71.2188 36.3548 71.2427 36.4026 71.2427 36.4265C71.2547 36.5101 71.2547 36.4265 71.2547 36.4145C71.2547 36.4265 71.2427 36.4743 71.2308 36.4862C71.2427 36.4623 71.2666 36.4026 71.2308 36.4862C71.1829 36.5579 71.2427 36.4623 71.2188 36.5101C71.2069 36.5221 71.1471 36.5818 71.1829 36.546C71.2188 36.5101 71.1471 36.5698 71.1351 36.5698C71.0992 36.5937 71.0155 36.6296 70.9916 36.6415C70.896 36.6774 70.7286 36.7132 70.609 36.7371C69.9035 36.8327 69.1023 36.6535 68.4806 36.319C68.361 36.2473 68.2295 36.1756 68.1218 36.092C68.074 36.0561 68.0262 36.0083 67.9783 35.9725C67.9544 35.9486 67.8468 35.8291 67.8707 35.865C67.8349 35.8172 67.8109 35.7694 67.7751 35.7216C67.8109 35.7933 67.7631 35.6738 67.7512 35.6499C67.787 35.7694 67.7512 35.5424 67.7512 35.6738C67.7512 35.6619 67.7631 35.6141 67.7751 35.6021C67.7392 35.6619 67.7631 35.6141 67.787 35.5902C67.8229 35.5544 67.7751 35.5902 67.7751 35.6021C67.7751 35.6021 67.8707 35.5066 67.8109 35.5544C67.8588 35.5066 67.9305 35.4707 67.9903 35.4468C68.0621 35.411 68.2534 35.3632 68.3849 35.3513C68.7915 35.3035 69.2219 35.3513 69.6285 35.4468C70.1905 35.5782 70.4296 34.7181 69.8676 34.5747C69.0426 34.3716 67.8229 34.2521 67.1533 34.9331C66.8783 35.2079 66.7826 35.6021 66.9022 35.9605C67.0218 36.3548 67.3327 36.6535 67.6555 36.8805C68.4327 37.442 69.5209 37.7287 70.4774 37.657C71.2547 37.6092 72.295 37.215 72.1037 36.2473C72.02 35.8291 71.6971 35.4946 71.3743 35.2437C70.9318 34.9092 70.4057 34.7061 69.8676 34.5627C69.3056 34.4433 69.0665 35.3035 69.6285 35.4468Z" fill="black"/>
<path d="M72.4162 31.377C72.5588 30.8005 71.7026 30.0931 70.5037 29.797C69.3048 29.5009 68.2173 29.7282 68.0747 30.3047C67.932 30.8812 68.7883 31.5886 69.9872 31.8847C71.186 32.1808 72.2735 31.9535 72.4162 31.377Z" fill="white"/>
<path d="M70.3819 30.2379C70.7287 30.3215 71.0635 30.441 71.3744 30.6202C71.4939 30.6919 71.6015 30.7636 71.7092 30.8472C71.757 30.895 71.8048 30.9428 71.8527 30.9906C71.8885 31.0384 71.8766 31.0264 71.9364 31.0981C71.9483 31.11 71.9842 31.1817 71.9603 31.1339C71.9364 31.0861 71.9603 31.1459 71.9722 31.1578C71.9842 31.1817 71.9842 31.2056 71.9961 31.2295C71.9722 31.1459 71.9961 31.1937 71.9961 31.2176C72.0081 31.3012 72.0081 31.2176 72.0081 31.2056C72.0081 31.2176 71.9961 31.2653 71.9842 31.2773C71.9961 31.2534 72.0201 31.1937 71.9842 31.2773C71.9364 31.349 71.9961 31.2534 71.9722 31.3012C71.9603 31.3131 71.9005 31.3729 71.9364 31.337C71.9722 31.3012 71.9005 31.3609 71.8885 31.3609C71.8527 31.3848 71.769 31.4207 71.745 31.4326C71.6494 31.4684 71.482 31.5043 71.3624 31.5282C70.6569 31.6238 69.8558 31.4446 69.234 31.11C69.1144 31.0384 68.9829 30.9667 68.8753 30.883C68.8274 30.8472 68.7796 30.7994 68.7318 30.7636C68.7079 30.7397 68.6002 30.6202 68.6241 30.6561C68.5883 30.6083 68.5644 30.5605 68.5285 30.5127C68.5644 30.5844 68.5165 30.4649 68.5046 30.441C68.5404 30.5605 68.5046 30.3335 68.5046 30.4649C68.5046 30.453 68.5165 30.4052 68.5285 30.3932C68.4926 30.453 68.5165 30.4052 68.5404 30.3813C68.5763 30.3454 68.5285 30.3813 68.5285 30.3932C68.5285 30.3932 68.6241 30.2976 68.5644 30.3454C68.6122 30.2976 68.6839 30.2618 68.7437 30.2379C68.8155 30.2021 69.0068 30.1543 69.1383 30.1423C69.5449 30.0945 69.9753 30.1423 70.3819 30.2379C70.9439 30.3693 71.183 29.5091 70.621 29.3658C69.796 29.1627 68.5763 29.0432 67.9067 29.7242C67.6317 29.999 67.536 30.3932 67.6556 30.7516C67.7752 31.1459 68.0861 31.4446 68.4089 31.6715C69.1861 32.2331 70.2743 32.5198 71.2309 32.4481C72.0081 32.4003 73.0484 32.0061 72.8571 31.0384C72.7734 30.6202 72.4505 30.2857 72.1277 30.0348C71.6852 29.7003 71.1591 29.4972 70.621 29.3538C70.059 29.2344 69.8199 30.0945 70.3819 30.2379Z" fill="black"/>
<path d="M71.7503 34.0435C71.9072 33.4094 70.9638 32.6309 69.6431 32.3047C68.3224 31.9785 67.1246 32.2281 66.9677 32.8622C66.8108 33.4964 67.7542 34.2749 69.0749 34.6011C70.3956 34.9273 71.5934 34.6777 71.7503 34.0435Z" fill="white"/>
<path d="M69.5328 32.7468C70.1666 32.9141 70.9079 33.2008 71.2667 33.7384C71.3145 33.822 71.2786 33.7623 71.3025 33.8101C71.3145 33.834 71.3145 33.8698 71.3265 33.8937C71.3145 33.8101 71.3265 33.8698 71.3265 33.8937C71.3384 33.9773 71.3384 33.9176 71.3384 33.8937C71.3384 33.9176 71.3265 33.9534 71.3145 33.9773C71.3384 33.9176 71.2667 34.0371 71.2906 34.0132C71.2427 34.0729 71.1471 34.1326 71.0395 34.1804C70.9079 34.2282 70.7405 34.2641 70.5971 34.288C69.8079 34.3835 68.923 34.1924 68.2295 33.8101C67.9784 33.6787 67.6914 33.4875 67.5359 33.2844C67.5001 33.2366 67.4642 33.1769 67.4403 33.1172C67.4642 33.1769 67.4164 33.0455 67.4164 33.0216C67.4403 33.1291 67.4164 32.9021 67.4044 33.0216C67.4044 32.9977 67.4164 32.9618 67.4283 32.9379C67.4044 32.9977 67.4283 32.9379 67.4522 32.9141C67.4403 32.926 67.512 32.8424 67.4881 32.8663C67.5479 32.8185 67.6197 32.7826 67.6914 32.7468C67.8229 32.6871 67.9903 32.6512 68.1458 32.6273C68.6002 32.5795 69.0785 32.6393 69.5328 32.7468C70.0948 32.8782 70.334 32.018 69.772 31.8747C68.8752 31.6596 67.5479 31.5282 66.8185 32.257C66.113 32.9618 66.7109 33.8698 67.3566 34.3357C68.2056 34.957 69.4013 35.2557 70.4416 35.1959C71.2667 35.1481 72.3907 34.73 72.1993 33.6906C72.1156 33.2366 71.7689 32.8782 71.4102 32.6154C70.9319 32.257 70.3459 32.018 69.76 31.8747C69.21 31.7313 68.9708 32.6034 69.5328 32.7468Z" fill="black"/>
<path d="M140.906 129.9C141.253 129.721 141.612 129.541 141.97 129.374C144.924 128 147.518 127.295 147.758 127.809C147.925 128.168 146.873 129.04 145.211 130.007C145.247 130.019 145.294 130.043 145.342 130.067L145.39 130.043C147.638 128.992 149.683 128.61 149.946 129.183C150.173 129.661 149.073 130.676 147.375 131.608C147.387 131.62 147.399 131.632 147.411 131.644C149.468 130.748 151.273 130.449 151.512 130.975C151.751 131.501 150.436 132.648 148.487 133.627C148.487 133.639 148.499 133.639 148.499 133.651C150.508 132.803 154.633 132.182 152.66 136.674C152.409 137.247 151.644 132.206 148.894 135.981C148.858 136.041 148.774 136.041 148.714 136.065C148.702 136.16 148.69 136.256 148.666 136.363C148.69 139.673 152.457 136.256 152.66 136.686C152.983 137.379 151.429 140.831 147.112 139.864C146.705 139.768 146.359 140.198 145.988 140.342C145.797 140.461 145.593 140.569 145.378 140.676L137.343 144.511C134.425 145.873 130.946 144.607 129.582 141.692C128.219 138.777 129.475 135.3 132.404 133.938L140.44 130.103C140.595 130.019 140.751 129.96 140.906 129.9Z" fill="white"/>
<path d="M141.133 130.294C142.772 129.53 144.386 128.729 146.144 128.287C146.443 128.215 146.801 128.203 147.076 128.108C147.184 128.096 147.303 128.096 147.411 128.108C147.363 127.881 147.292 127.845 147.208 128.012C146.443 128.466 145.761 129.159 144.972 129.625C144.697 129.78 144.649 130.27 144.972 130.414C145.271 130.545 145.319 130.497 145.606 130.449C146.455 130.318 147.351 129.709 148.212 129.518C148.499 129.458 148.87 129.338 149.169 129.386C149.647 129.47 149.444 129.374 149.241 129.721C148.87 130.354 147.746 130.88 147.136 131.226C146.873 131.369 146.849 131.728 147.04 131.943C147.052 131.955 147.064 131.967 147.076 131.979C147.172 132.086 147.375 132.158 147.519 132.098C147.937 131.919 150.699 130.688 151.058 131.214C151.297 131.572 148.499 133.126 148.248 133.257C148.081 133.353 147.985 133.58 148.033 133.771C148.033 133.783 148.033 133.783 148.045 133.795C148.105 134.01 148.368 134.213 148.607 134.117C149.492 133.759 150.508 133.448 151.477 133.544C151.919 133.591 152.385 133.711 152.613 134.141C152.744 134.392 152.72 134.691 152.708 134.965C152.684 135.192 152.29 136.124 152.361 136.268C152.433 136.411 152.888 136.411 152.9 136.399C152.9 136.387 152.816 136.244 152.816 136.244C152.804 136.124 152.696 135.969 152.648 135.873C152.481 135.539 152.314 135.192 152.075 134.906C151.62 134.344 150.986 134.022 150.257 134.249C149.492 134.488 148.284 135.539 148.212 136.351C148.141 137.152 148.475 138.107 149.348 138.299C150.137 138.466 150.986 138 151.668 137.653C151.955 137.498 152.672 137.271 152.409 137.044C152.11 136.793 152.314 137.044 152.206 137.223C152.086 137.415 152.051 137.665 151.931 137.857C151.273 138.98 150.03 139.577 148.75 139.625C148.057 139.649 147.303 139.314 146.634 139.517C146.108 139.673 145.594 140.103 145.103 140.354C143.489 141.166 141.839 141.907 140.201 142.683C138.527 143.484 136.697 144.666 134.784 144.642C130.934 144.595 128.351 140.413 130.001 136.949C131.065 134.726 133.541 133.938 135.609 132.946C137.391 132.098 139.16 131.107 141.002 130.402C141.54 130.199 141.313 129.314 140.763 129.53C138.945 130.234 137.211 131.19 135.454 132.026C133.6 132.911 131.34 133.651 130.001 135.276C127.861 137.869 128.172 141.835 130.731 144.033C132.823 145.837 135.561 145.909 137.965 144.762C140.057 143.758 142.162 142.767 144.254 141.763C144.996 141.417 145.725 140.975 146.466 140.652C147.28 140.294 148.141 140.604 149.025 140.533C149.695 140.473 150.365 140.294 150.962 139.983C151.871 139.505 152.684 138.657 153.007 137.665C153.175 137.164 153.282 136.303 152.541 136.268C151.752 136.232 150.879 137.164 150.113 137.355C149.444 137.534 148.918 137.164 149.145 136.411C149.3 135.897 150.341 134.942 150.939 135.145C151.752 135.431 151.644 136.638 152.23 137.092C153.222 137.869 153.605 135.384 153.605 134.822C153.653 131.967 150.078 132.564 148.344 133.269C148.535 133.376 148.714 133.484 148.906 133.591C148.906 133.58 148.906 133.58 148.894 133.568C148.822 133.735 148.75 133.914 148.679 134.081C149.492 133.651 152.493 132.241 151.883 130.856C151.668 130.378 151.082 130.306 150.628 130.318C150.197 130.33 149.755 130.426 149.336 130.521C149.133 130.569 147.363 131.035 147.65 131.334C147.614 131.572 147.59 131.811 147.555 132.05C148.224 131.668 151.369 129.96 150.102 128.789C149.671 128.383 148.894 128.514 148.38 128.598C147.232 128.789 146.12 129.243 145.067 129.733C145.223 129.733 145.378 129.733 145.522 129.733C145.474 129.709 145.438 129.697 145.39 129.673C145.39 129.936 145.39 130.199 145.39 130.461C145.821 130.21 149.731 127.821 147.543 127.272C146.694 127.056 145.57 127.522 144.78 127.785C143.346 128.263 141.994 128.92 140.619 129.565C140.141 129.756 140.607 130.545 141.133 130.294Z" fill="black"/>
</g>
<defs>
<clipPath id="clip0_150_923">
<rect width="246" height="202" fill="white"/>
</clipPath>
</defs>
</svg>
