<svg width="516" height="408" viewBox="0 0 516 408" fill="none" xmlns="http://www.w3.org/2000/svg">
<g clip-path="url(#clip0_150_192)">
<path d="M226.923 52.6214C226.923 52.6106 226.923 52.6106 226.923 52.6214C226.988 52.0181 227.063 51.4147 227.149 50.7898C227.332 49.54 227.558 48.3548 227.784 47.2774C227.978 46.1892 228.194 45.2195 228.43 44.4006C228.893 42.7737 229.41 41.7717 229.862 41.8148C230.508 41.8687 230.863 43.9912 230.842 47.0619C230.906 47.0188 230.96 46.9757 231.035 46.9326L231.046 46.8572C231.434 42.9569 232.575 39.8539 233.597 39.9293C234.458 39.994 234.954 42.3428 234.857 45.4565C234.878 45.4458 234.91 45.4458 234.932 45.435C235.384 41.8471 236.45 39.0889 237.397 39.1644C238.334 39.2398 238.839 42.0411 238.613 45.6074C238.635 45.6074 238.646 45.6074 238.656 45.6181C239.13 42.0842 240.163 39.3906 241.1 39.466C242.123 39.5415 242.628 42.9461 242.23 47.0619L242.187 47.3959C242.316 47.4929 242.446 47.6006 242.564 47.7191C243.177 45.5858 243.974 44.2175 244.738 44.2929C245.922 44.4114 246.708 48.3333 245.955 53.0524C245.858 53.7635 245.729 54.4423 245.599 55.0995C245.589 55.4874 245.556 55.8752 245.503 56.2739C245.277 58.5473 244.835 60.8314 244.458 63.1048C243.339 70.205 241.552 77.2945 239.388 84.3193C237.139 91.3334 234.2 98.2397 230.465 104.844C226.73 111.438 222.058 117.72 216.363 123.117C210.68 128.505 204.028 133.062 196.762 136.176C188.688 139.678 180.023 141.52 171.347 141.768C168.333 141.8 165.642 140.561 163.93 138.643C162.197 136.715 161.498 134.172 161.982 131.608C162.466 129.033 163.769 126.867 165.384 125.326C167.009 123.775 168.979 122.87 171.164 122.827C177.353 122.611 183.5 121.264 189.119 118.851C199.507 114.401 208.032 106.083 213.963 95.5569C216.934 90.299 219.399 84.621 221.326 78.6305C223.177 72.6185 224.77 66.434 225.772 60.0557C226.148 57.8469 226.557 55.6382 226.783 53.3864C226.816 53.117 226.869 52.8692 226.923 52.6214Z" fill="white"/>
<path d="M227.655 52.7076C227.871 51.2208 228.064 49.7231 228.333 48.2363C228.613 46.7494 228.861 45.2626 229.378 43.8188C229.507 43.431 229.787 43.0323 229.894 42.6552C229.883 42.6983 230.045 42.4074 230.066 42.4505C229.883 42.5367 229.722 42.5259 229.582 42.4505C229.625 42.5367 229.668 42.6229 229.7 42.7199C229.657 43.2047 229.948 43.8943 230.002 44.3899C230.088 45.2518 230.099 46.1245 230.099 46.9973C230.099 47.6545 230.788 47.9669 231.315 47.6222C232.112 47.0942 231.918 45.532 232.079 44.6916C232.295 43.5387 232.575 42.2781 233.156 41.233C233.242 41.0714 233.36 40.9313 233.457 40.7697C233.576 40.5973 233.64 40.759 233.436 40.6404C233.576 40.7159 233.737 41.2761 233.78 41.4593C234.125 42.7199 234.125 44.0882 234.103 45.3919C234.092 45.8552 234.501 46.2754 234.986 46.1676L235.061 46.1569C235.395 46.0814 235.61 45.8229 235.653 45.4889C235.825 44.2067 236.051 42.9354 236.471 41.6963C236.611 41.2761 236.762 40.8451 236.977 40.4573C237.128 40.1987 237.462 39.9617 237.236 39.8755C237.537 39.994 237.709 41.2653 237.763 41.6209C237.957 42.9138 237.935 44.239 237.86 45.5427C237.838 45.8444 238.043 46.2215 238.355 46.2969L238.398 46.3077C238.882 46.437 239.302 46.1784 239.378 45.6612C239.582 44.1852 239.862 42.6768 240.433 41.2869C240.594 40.899 240.777 40.5111 241.068 40.2095C241.003 40.2741 240.842 40.0048 240.992 40.2526C241.068 40.3926 241.132 40.5327 241.186 40.6835C241.627 41.8902 241.627 43.3448 241.606 44.6161C241.595 45.4027 241.52 46.1784 241.477 46.9649C241.434 47.6976 241.595 47.8161 242.133 48.3009C242.489 48.6242 243.113 48.3764 243.242 47.9454C243.382 47.4929 243.952 45.0902 244.641 45.0363C244.846 45.0148 245.169 46.2323 245.233 46.5232C245.804 49.0013 245.449 51.7056 245.007 54.1837C244.846 55.078 244.771 56.0045 244.663 56.9096L244.48 58.418L244.222 59.9264L243.705 62.9539L243.597 63.5789C241.983 72.7693 239.711 81.9705 236.224 90.9347C235.007 93.8222 233.888 96.7313 232.402 99.5326C231.078 102.388 229.41 105.114 227.784 107.861C224.329 113.248 220.26 118.366 215.492 122.859C209.948 128.063 203.489 132.459 196.439 135.465C192.929 137.016 189.28 138.169 185.599 139.106C182.111 139.936 178.57 140.496 175.018 140.798C174.232 140.863 173.424 140.927 172.617 140.992C171.81 141.024 170.992 141.024 170.206 140.949C167.784 140.669 165.685 139.516 164.329 137.835C162.961 136.176 162.369 134.064 162.649 131.942C162.918 129.819 163.92 127.923 165.2 126.457C166.492 125.014 168.096 123.958 169.883 123.635C170.529 123.495 171.207 123.462 171.885 123.441C172.563 123.408 173.252 123.376 173.898 123.344C176.578 123.107 179.226 122.643 181.831 122.018C183.112 121.652 184.426 121.34 185.674 120.876C186.955 120.489 188.172 119.961 189.41 119.454C190.464 119.045 191.444 118.485 192.467 118.01C196.665 115.845 200.54 113.044 203.995 109.693C207.451 106.342 210.486 102.463 213.166 98.272C218.15 90.1374 221.799 80.85 224.232 71.067C225.029 67.436 225.933 63.8267 226.482 60.0988C226.805 58.1271 227.203 56.1769 227.408 54.1729C227.483 53.7204 227.548 53.2248 227.655 52.7076C227.849 51.8133 226.374 51.6517 226.191 52.5352C225.879 53.882 225.836 55.315 225.599 56.6618L225.039 59.9264C224.695 61.8765 224.415 63.8482 223.942 65.7445C221.939 75.2582 218.968 84.4055 214.738 92.5832C212.316 97.1623 209.539 101.461 206.31 105.221C203.048 108.949 199.367 112.171 195.319 114.746C194.275 115.392 193.199 115.985 192.144 116.599C191.024 117.105 189.958 117.72 188.817 118.172C184.566 119.971 180.034 121.232 175.384 121.76C174.006 121.932 172.617 122.04 171.239 122.083C169.076 122.169 167.073 122.913 165.265 124.507C163.887 125.736 162.757 127.384 162.014 129.216C161.304 131.047 160.776 133.084 161.25 135.109C162.079 139.106 165.997 142.285 170.701 142.5C171.272 142.522 171.842 142.5 172.413 142.479C175.093 142.35 177.762 142.113 180.421 141.671C186.105 140.766 191.724 139.171 197.074 136.855C201.853 134.775 206.385 132.114 210.572 129.022C216.127 124.841 221.035 119.885 225.083 114.455C229.141 109.014 232.435 103.196 235.233 97.2269C239.69 87.3146 242.596 77.0575 244.588 66.8111L245.201 63.2341C245.47 61.5856 245.782 59.9264 246.019 58.2779L246.235 56.5325C246.439 54.8732 246.719 53.2032 246.88 51.5332C246.966 50.6928 247.031 49.8632 247.02 49.0228C246.988 48.1932 246.913 47.3528 246.762 46.534C246.557 45.435 246.127 43.6465 244.803 43.5387C243.048 43.3986 242.252 46.2107 241.875 47.4605L242.984 47.105C242.865 46.9865 242.736 46.8895 242.607 46.7818L242.93 47.4713C243.156 45.4996 243.231 43.431 242.908 41.4701C242.758 40.5435 242.467 39.0997 241.455 38.7873C238.85 37.99 238.118 44.2175 237.924 45.5858L238.904 44.9394L238.861 44.9286L239.356 45.6936C239.453 43.9697 239.496 42.1381 239.065 40.4573C238.861 39.6384 238.452 38.5071 237.462 38.4533C236.493 38.3994 235.901 39.4014 235.546 40.1448C234.76 41.7825 234.448 43.6357 234.211 45.4027L234.803 44.7454L234.727 44.767L235.61 45.5427C235.642 44.3468 235.793 38.227 233.08 39.3367C232.122 39.7246 231.67 40.9637 231.358 41.8148C230.777 43.4417 230.486 45.1872 230.325 46.8895L230.572 46.4047L230.357 46.5016L231.584 47.1158C231.584 45.4889 231.746 43.2801 230.906 41.8041C230.379 40.8775 229.345 40.9421 228.742 41.7394C227.892 42.8707 227.601 44.4868 227.322 45.8229C227.106 46.9542 226.891 48.0639 226.686 49.1737C226.503 50.2834 226.342 51.4039 226.181 52.5245C226.062 53.4295 227.526 53.6127 227.655 52.7076Z" fill="black"/>
<path d="M188.871 139.02C187.935 133.579 186.837 128.16 185.577 122.762L185.028 120.435C184.802 119.508 183.672 119.928 183.866 120.823C185.028 126.21 186.029 131.64 186.88 137.113L187.235 139.484C187.364 140.432 189.043 139.958 188.871 139.02Z" fill="black"/>
<path d="M256.741 53.6126C256.676 53.0523 256.611 52.4813 256.568 51.8995C256.45 50.7251 256.418 49.6045 256.472 48.5918C256.504 47.579 256.568 46.6524 256.665 45.8874C256.859 44.3467 257.182 43.3878 257.569 43.377C258.129 43.3555 258.678 45.2194 259.033 47.9345C259.076 47.8914 259.13 47.8483 259.173 47.7945V47.7298C259.033 44.2066 259.625 41.3407 260.508 41.3299C261.251 41.3084 261.951 43.2908 262.23 45.9736C262.252 45.9628 262.274 45.9521 262.295 45.9521C262.252 42.806 262.833 40.3387 263.651 40.3279C264.448 40.3171 265.212 42.612 265.438 45.6181C265.449 45.6181 265.46 45.6181 265.471 45.6181C265.46 42.6013 266.03 40.274 266.838 40.2525C267.72 40.2417 268.538 42.9568 268.668 46.3184L268.678 46.5985C268.797 46.6632 268.915 46.7278 269.034 46.8032C269.303 45.0039 269.83 43.8188 270.487 43.7864C271.014 43.7649 271.52 44.5083 271.918 45.715C272.317 46.9217 272.553 48.6133 272.736 50.4449C272.78 51.0052 272.812 51.5439 272.812 52.0611C272.876 52.3628 272.919 52.6644 272.941 52.9661L273.135 54.7546C274.125 63.1693 275.611 71.4979 277.957 79.4385C280.315 87.3684 283.501 94.9427 287.817 101.601L289.453 104.079C290.002 104.909 290.648 105.642 291.23 106.428C292.381 108.033 293.738 109.413 295.029 110.867C297.753 113.614 300.67 116.146 303.867 118.247C310.283 122.417 317.656 125.111 325.374 126.07C327.226 126.317 329.099 126.436 330.972 126.49C332.92 126.576 334.664 127.438 336.074 128.828C337.463 130.218 338.56 132.114 338.851 134.333C339.142 136.553 338.367 138.697 336.774 140.281C335.202 141.854 332.834 142.802 330.272 142.705C328.001 142.63 325.751 142.49 323.501 142.188C313.469 140.97 303.641 137.447 295.094 131.898C290.831 129.108 286.978 125.789 283.447 122.212C281.768 120.348 280.024 118.538 278.56 116.534C277.806 115.543 276.999 114.595 276.31 113.571L274.254 110.501C268.883 102.237 265.169 93.2619 262.457 84.2115C259.776 75.1288 258.14 65.9383 257.053 56.7587L256.794 54.3344C256.751 54.0866 256.741 53.8496 256.741 53.6126Z" fill="white"/>
<path d="M257.365 53.548C257.257 52.1796 257.085 50.8113 257.074 49.443C257.064 48.0746 257.139 46.7063 257.365 45.3595C257.43 44.9932 257.612 44.5945 257.634 44.239C257.634 44.1743 257.774 44.0235 257.752 43.9804C257.397 43.8727 257.3 43.905 257.44 44.0666L257.526 44.2174C257.526 44.6269 257.882 45.241 257.978 45.6612C258.161 46.4262 258.269 47.2127 258.377 47.9884C258.452 48.5702 259.076 48.7426 259.485 48.3548C260.088 47.773 259.744 46.5016 259.776 45.7366C259.819 44.7238 259.905 43.6572 260.217 42.6983C260.282 42.4936 260.379 42.0626 260.583 41.9441C260.411 42.041 260.433 41.8794 260.562 42.0841C260.67 42.2458 260.756 42.4181 260.831 42.5905C261.294 43.6572 261.455 44.8639 261.585 46.006C261.628 46.4046 262.026 46.7171 262.424 46.5555L262.489 46.5339C262.769 46.4262 262.909 46.1784 262.909 45.8875C262.898 44.7993 262.941 43.7111 263.135 42.6444C263.199 42.2781 263.275 41.9117 263.393 41.567C263.447 41.4054 263.727 40.9528 263.597 40.9421C263.888 40.9852 264.19 42.2027 264.254 42.4181C264.556 43.474 264.685 44.5622 264.771 45.6504C264.792 45.909 264.997 46.1999 265.277 46.2215H265.309C265.74 46.2646 266.063 45.9952 266.063 45.5534C266.073 44.3036 266.116 43.0107 266.461 41.804C266.504 41.6424 266.784 40.8559 266.827 40.8666C266.784 40.8666 267.096 41.3946 267.15 41.5239C267.602 42.569 267.774 43.7434 267.892 44.8639C267.946 45.4134 267.86 46.1245 268.011 46.6417C268.129 47.0511 268.355 47.1373 268.721 47.3528C269.066 47.5575 269.561 47.2666 269.626 46.911C269.69 46.5124 270.035 44.3036 270.573 44.4868C271.133 44.67 271.445 46.4046 271.552 46.8787C271.983 48.9366 272.08 50.9945 272.295 53.0523L272.403 54.0651L272.489 54.8409C272.596 55.8213 272.683 56.8126 272.812 57.7822L273.264 60.6913C274.545 69.3969 276.482 77.9517 279.443 85.9893C281.402 91.1178 283.673 96.074 286.429 100.675C289.249 105.211 292.521 109.402 296.289 112.99C302.747 119.217 310.778 123.602 319.551 125.649C320.487 125.876 321.434 126.091 322.403 126.231C323.361 126.414 324.319 126.544 325.288 126.651C327.172 126.888 329.056 127.007 330.939 127.115C332.898 127.212 334.631 128.171 335.988 129.668C337.312 131.155 338.291 133.17 338.216 135.4C338.151 137.296 337.247 139.009 335.794 140.195C334.341 141.412 332.349 142.091 330.229 142.059C328.69 142.015 327.15 141.929 325.632 141.778C324.933 141.735 324.244 141.638 323.555 141.552C319.411 141.035 315.309 140.162 311.316 138.891C307.333 137.598 303.458 135.939 299.755 133.956C293.974 130.81 288.732 126.738 284.179 122.094C279.647 117.429 275.869 112.192 272.683 106.73C269.582 101.558 267.311 96.0632 265.201 90.5791C263.285 85.0411 261.638 79.4385 260.454 73.7928C259.873 70.9484 259.216 68.104 258.84 65.238C258.409 62.3829 257.892 59.5277 257.656 56.6725L257.483 55.0671C257.43 54.5607 257.376 54.0651 257.365 53.548C257.343 52.7076 256.095 52.8369 256.105 53.688C256.127 54.7331 256.256 55.789 256.385 56.8449C256.439 57.2759 256.482 57.7176 256.536 58.1378C256.676 59.8294 256.999 61.5317 257.247 63.2233L258.032 68.3087C260.002 79.2661 263.081 90.2451 268.086 100.718C269.443 103.735 271.154 106.633 272.833 109.542L275.654 113.765C276.601 115.166 277.72 116.48 278.743 117.838C283.049 123.161 288.162 127.977 293.964 131.898C302.651 137.76 312.758 141.488 323.071 142.78L323.404 142.824C325.514 143.104 327.645 143.255 329.777 143.319C331.639 143.384 333.458 143.104 335.094 142.285C337.118 141.24 338.528 139.548 339.152 137.663C339.475 136.715 339.594 135.734 339.518 134.754C339.432 133.784 339.142 132.825 338.776 131.898C337.258 128.364 334.222 126.026 330.939 125.865L330.078 125.833C328.517 125.779 326.956 125.66 325.417 125.455L323.899 125.261C315.751 123.979 308.065 120.779 301.574 115.899C297.441 112.796 293.781 108.992 290.648 104.704C287.516 100.405 284.889 95.6323 282.64 90.633C278.991 82.1105 276.547 72.8662 274.943 63.3741L274.308 59.2475L273.996 57.1897L273.781 55.0995L273.738 54.7008C273.619 53.3756 273.511 52.0396 273.393 50.7143C273.328 50.0463 273.242 49.3891 273.135 48.7319C273.049 48.0746 272.952 47.4174 272.812 46.7602C272.575 45.6827 272.155 43.571 270.799 43.2262C269.033 42.7737 268.56 45.6073 268.388 46.6955L269.292 46.2538C269.173 46.1784 269.055 46.1137 268.937 46.0491L269.281 46.5555C269.249 44.8962 269.066 43.1723 268.528 41.5885C268.291 40.8882 267.882 39.8431 267.042 39.6707C264.717 39.1643 264.825 44.5083 264.825 45.672L265.578 45.004H265.546L266.052 45.575C265.955 44.336 265.718 39.6168 263.597 39.703C262.801 39.7353 262.413 40.5757 262.198 41.233C261.692 42.7306 261.649 44.4222 261.66 46.006L262.08 45.3595L262.015 45.3811L262.855 45.9306C262.736 44.907 262.198 39.7569 260.013 40.8128C259.249 41.1899 258.99 42.3104 258.818 43.0861C258.667 43.808 258.592 44.5622 258.549 45.3056C258.527 45.7366 258.506 46.1676 258.506 46.5986L258.517 47.3851C258.527 47.8807 258.527 47.9238 258.538 47.5251L259.647 47.8915C259.453 46.4693 259.335 44.5083 258.452 43.2909C257.925 42.569 257.117 42.6013 256.654 43.3555C256.019 44.4006 255.987 45.9629 255.901 47.1588C255.826 48.247 255.804 49.3352 255.847 50.4234C255.912 51.5116 256.019 52.5998 256.105 53.688C256.181 54.5284 257.44 54.3884 257.365 53.548Z" fill="black"/>
<path d="M374.826 139.742C374.18 141.434 372.038 142.49 370.52 143.222C368.324 144.278 365.988 145.032 363.641 145.657C361.133 146.325 354.901 148.426 353.975 144.547C353.62 143.039 353.867 141.391 354.029 139.871C354.201 138.385 354.363 136.898 354.513 135.411C354.793 132.663 355.051 129.894 355.31 127.125C355.364 126.641 355.407 126.145 355.45 125.649C355.471 125.412 355.299 125.305 355.116 125.305C355.805 125.057 356.494 124.809 357.172 124.55C357.323 124.497 357.441 124.367 357.441 124.195V104.941C357.441 104.909 357.43 104.877 357.42 104.844C358.733 105.189 360.186 104.984 361.381 104.069C363.415 102.528 363.824 99.5218 362.253 97.4962C360.477 95.2121 357.387 95.2229 355.299 97.0114C353.437 98.606 352.436 96.0956 352.134 94.5764C351.865 93.2081 351.79 91.7751 351.844 90.3852C351.844 90.2344 351.725 90.062 351.575 90.0297C347.118 89.157 342.866 86.3018 339.928 82.8756C339.712 82.617 339.314 82.8325 339.303 83.1342C339.249 84.524 339.163 85.9247 339.056 87.3038C336.182 82.5416 343.587 77.1868 347.398 75.6891C352.554 73.6636 358.539 75.4736 361.327 80.3113C363.275 83.7052 364.395 87.5839 365.396 91.3441C366.709 96.2249 367.721 101.181 368.647 106.137C370.326 115.123 371.499 124.206 373.329 133.17C373.588 134.398 373.846 135.626 374.223 136.822C374.524 137.781 375.235 138.697 374.826 139.742Z" fill="black"/>
<path d="M373.545 142.296C371.682 143.686 369.433 144.58 367.258 145.334C364.955 146.131 362.587 146.756 360.186 147.187C358.614 147.478 356.935 147.747 355.385 147.198C353.082 146.379 352.985 143.761 353.125 141.682C353.48 136.327 354.233 130.994 354.707 125.649C354.718 125.542 354.761 125.456 354.836 125.391C354.912 125.337 355.008 125.294 355.095 125.294H355.105C355.288 125.294 355.461 125.402 355.439 125.639C355.396 126.134 355.353 126.63 355.299 127.115C355.051 129.873 354.782 132.642 354.502 135.4C354.352 136.898 354.201 138.385 354.018 139.861C353.846 141.38 353.609 143.028 353.964 144.537C354.89 148.415 361.112 146.314 363.631 145.646C365.977 145.032 368.324 144.267 370.509 143.212C372.038 142.479 374.169 141.434 374.815 139.731C375.224 138.686 374.513 137.76 374.212 136.79C373.835 135.594 373.566 134.355 373.319 133.138C371.489 124.184 370.315 115.091 368.636 106.105C367.721 101.138 366.709 96.1818 365.385 91.3119C364.384 87.5516 363.265 83.6729 361.316 80.279C358.528 75.4414 352.533 73.6313 347.387 75.6569C343.577 77.1545 336.171 82.5093 339.045 87.2715C339.196 87.5193 339.379 87.7564 339.572 88.0042C339.885 88.3705 339.357 88.8877 339.056 88.5321C339.013 88.4782 338.98 88.4351 338.948 88.392C338.485 87.8102 338.162 87.1207 337.958 86.4311C337.064 83.4143 338.98 80.9255 341.036 78.9646C343.286 76.8313 346.042 75.0643 349.099 74.3639C354.233 73.1788 359.54 75.603 362.081 80.1605C364.169 83.8884 365.331 88.1442 366.386 92.2492C367.764 97.5717 368.819 102.97 369.799 108.368C370.746 113.647 371.596 118.926 372.468 124.216C373.093 127.977 373.652 131.802 374.6 135.497C374.847 136.51 375.418 137.469 375.633 138.482C375.999 140.087 374.729 141.412 373.545 142.296Z" fill="black"/>
<path d="M258 407.785C400.365 407.785 515.774 394.726 515.774 378.619C515.774 362.511 400.365 349.453 258 349.453C115.635 349.453 0.226074 362.511 0.226074 378.619C0.226074 394.726 115.635 407.785 258 407.785Z" fill="black" stroke="white" stroke-width="0.4213" stroke-miterlimit="10"/>
<path d="M320.756 361.843L321.725 375.106L299.195 386.236L332.166 382.26V361.164L320.756 361.843Z" fill="white"/>
<path d="M320.121 361.843C320.444 366.26 320.767 370.678 321.09 375.106C321.198 374.923 321.294 374.74 321.402 374.557C314.825 377.811 308.237 381.054 301.66 384.307C300.735 384.771 299.798 385.223 298.872 385.687C298.334 385.956 298.571 386.936 299.195 386.861C308.819 385.708 318.442 384.544 328.065 383.392C329.432 383.23 330.799 383.058 332.166 382.896C332.511 382.853 332.802 382.637 332.802 382.26C332.802 375.225 332.802 368.2 332.802 361.164C332.802 360.841 332.511 360.507 332.166 360.529C328.367 360.755 324.556 360.981 320.756 361.207C319.949 361.25 319.938 362.522 320.756 362.479C324.556 362.252 328.367 362.026 332.166 361.8C331.951 361.584 331.747 361.38 331.531 361.164C331.531 368.2 331.531 375.225 331.531 382.26C331.747 382.045 331.951 381.84 332.166 381.625C322.543 382.777 312.92 383.941 303.297 385.094C301.929 385.256 300.562 385.428 299.195 385.59C299.303 385.977 299.411 386.376 299.518 386.764C306.095 383.51 312.683 380.267 319.26 377.013C320.186 376.55 321.122 376.097 322.048 375.634C322.231 375.548 322.371 375.289 322.36 375.085C322.037 370.667 321.714 366.25 321.391 361.822C321.327 361.035 320.067 361.024 320.121 361.843Z" fill="black"/>
<path d="M321.402 371.389C324.545 371.389 327.689 371.389 330.832 371.389C331.273 371.389 331.725 371.389 332.166 371.389C332.985 371.389 332.985 370.118 332.166 370.118C329.023 370.118 325.88 370.118 322.737 370.118C322.296 370.118 321.843 370.118 321.402 370.118C320.595 370.118 320.595 371.389 321.402 371.389Z" fill="black"/>
<path d="M386.408 361.843L385.439 375.106L407.969 386.236L374.998 382.26V361.164L386.408 361.843Z" fill="white"/>
<path d="M385.773 361.843C385.45 366.26 385.127 370.678 384.804 375.106C384.793 375.311 384.933 375.559 385.116 375.656C391.693 378.909 398.281 382.152 404.858 385.406C405.784 385.87 406.72 386.322 407.646 386.785C407.754 386.398 407.861 385.999 407.969 385.611C398.346 384.458 388.722 383.295 379.099 382.142C377.732 381.98 376.365 381.808 374.998 381.646C375.213 381.862 375.418 382.066 375.633 382.282C375.633 375.246 375.633 368.221 375.633 361.186C375.418 361.401 375.213 361.606 374.998 361.821C378.798 362.048 382.608 362.274 386.408 362.5C387.226 362.543 387.215 361.283 386.408 361.229C382.608 361.003 378.798 360.776 374.998 360.55C374.653 360.529 374.363 360.852 374.363 361.186C374.363 368.221 374.363 375.246 374.363 382.282C374.363 382.659 374.653 382.874 374.998 382.917C384.621 384.07 394.245 385.234 403.868 386.387C405.235 386.548 406.602 386.721 407.969 386.882C408.593 386.958 408.83 385.967 408.292 385.708C401.715 382.454 395.127 379.211 388.55 375.957C387.624 375.494 386.688 375.041 385.762 374.578C385.87 374.761 385.967 374.945 386.074 375.128C386.397 370.71 386.72 366.293 387.043 361.865C387.097 361.035 385.838 361.035 385.773 361.843Z" fill="black"/>
<path d="M385.762 370.118C382.619 370.118 379.476 370.118 376.333 370.118C375.891 370.118 375.439 370.118 374.998 370.118C374.18 370.118 374.18 371.389 374.998 371.389C378.141 371.389 381.284 371.389 384.427 371.389C384.869 371.389 385.321 371.389 385.762 371.389C386.57 371.389 386.57 370.118 385.762 370.118Z" fill="black"/>
<path d="M322.252 360.873H311.585V365.808H322.252V360.873Z" fill="black"/>
<path d="M375.891 360.873H365.224V365.808H375.891V360.873Z" fill="black"/>
<path d="M364.901 170.794C372.382 174.532 380.369 189.509 386.042 239.049C391.715 288.589 399.96 364.472 399.96 364.472H357.936L352.264 192.859C352.264 192.859 352.242 192.331 352.231 191.804C352.21 192.331 352.199 192.859 352.199 192.859L346.526 364.483H304.502C304.502 364.483 312.748 288.61 318.42 239.059C324.093 189.509 332.08 174.543 339.562 170.804H364.901V170.794Z" fill="white"/>
<path d="M364.578 171.332C370.552 174.349 373.469 182.01 375.536 187.903C377.786 194.314 379.347 200.972 380.681 207.631C382.684 217.673 384.105 227.822 385.289 237.993C387.334 255.598 389.282 273.214 391.231 290.83C393.039 307.067 394.826 323.303 396.602 339.551C397.205 345.078 397.808 350.605 398.41 356.122C398.604 357.878 398.798 359.624 398.981 361.38C399.078 362.22 399.013 363.298 399.282 364.106C399.315 364.213 399.304 364.353 399.325 364.461C399.541 364.246 399.745 364.041 399.96 363.825C387.711 363.825 375.45 363.825 363.2 363.825C361.446 363.825 359.691 363.825 357.936 363.825C358.152 364.041 358.356 364.246 358.571 364.461C358.378 358.708 358.195 352.954 358.001 347.19C357.549 333.474 357.097 319.769 356.645 306.054C356.096 289.505 355.547 272.966 355.008 256.417C354.535 242.098 354.061 227.779 353.588 213.46C353.362 206.661 353.136 199.863 352.909 193.064C352.899 192.633 352.877 192.213 352.866 191.782C352.845 190.963 351.629 190.963 351.596 191.782C351.402 197.719 351.209 203.666 351.004 209.603C350.552 223.232 350.1 236.851 349.648 250.48C349.099 267.019 348.55 283.568 348.012 300.106C347.538 314.501 347.064 328.906 346.58 343.301C346.429 347.998 346.268 352.696 346.117 357.393C346.063 358.88 346.02 360.356 345.966 361.843C345.945 362.565 345.773 363.448 345.891 364.17C345.902 364.256 345.88 364.375 345.88 364.461C346.096 364.246 346.3 364.041 346.515 363.825C334.266 363.825 322.005 363.825 309.755 363.825C308.001 363.825 306.246 363.825 304.491 363.825C304.707 364.041 304.911 364.246 305.126 364.461C306.149 355.055 307.182 345.649 308.216 336.254C310.433 316.095 312.651 295.937 314.911 275.778C316.085 265.252 317.269 254.714 318.474 244.188C319.831 232.25 321.305 220.323 323.609 208.525C325.127 200.757 326.935 192.946 329.788 185.554C331.37 181.46 333.318 177.215 336.375 174.004C337.355 172.981 338.421 172.162 339.637 171.462C339.928 171.3 339.325 171.419 339.788 171.419C340.121 171.419 340.455 171.419 340.8 171.419C341.984 171.419 343.168 171.419 344.352 171.419C350.746 171.419 357.14 171.419 363.534 171.419C363.986 171.419 364.449 171.419 364.901 171.419C365.719 171.419 365.719 170.147 364.901 170.147C359.53 170.147 354.158 170.147 348.787 170.147C346.042 170.147 343.308 170.147 340.563 170.147C339.249 170.147 338.442 170.6 337.387 171.397C334.341 173.692 332.263 177.097 330.616 180.48C327.592 186.675 325.708 193.409 324.126 200.1C319.023 221.67 317.215 243.951 314.739 265.941C312.371 287.048 310.035 308.155 307.71 329.262C306.44 340.812 304.89 352.383 303.91 363.966C303.899 364.138 303.878 364.31 303.856 364.483C303.824 364.827 304.179 365.118 304.491 365.118C316.741 365.118 329.002 365.118 341.252 365.118C343.006 365.118 344.761 365.118 346.515 365.118C346.871 365.118 347.14 364.827 347.151 364.483C347.344 358.729 347.527 352.976 347.721 347.212C348.173 333.496 348.625 319.791 349.077 306.075C349.626 289.526 350.175 272.988 350.714 256.438C351.187 242.119 351.661 227.8 352.134 213.481C352.36 206.683 352.587 199.884 352.813 193.086C352.823 192.655 352.845 192.234 352.856 191.804C352.436 191.804 352.016 191.804 351.585 191.804C351.779 197.74 351.973 203.688 352.177 209.624C352.63 223.254 353.082 236.872 353.534 250.502C354.083 267.04 354.632 283.589 355.17 300.128C355.644 314.522 356.117 328.928 356.602 343.322C356.752 348.02 356.914 352.717 357.064 357.415C357.14 359.667 357.118 361.94 357.291 364.192C357.301 364.289 357.301 364.386 357.301 364.483C357.312 364.827 357.581 365.118 357.936 365.118C370.186 365.118 382.447 365.118 394.697 365.118C396.451 365.118 398.206 365.118 399.96 365.118C400.273 365.118 400.628 364.827 400.596 364.483C399.842 357.587 399.089 350.692 398.335 343.796C396.602 327.979 394.858 312.152 393.104 296.335C391.112 278.418 389.121 260.5 387.076 242.583C385.084 225.171 383.017 207.405 377.764 190.618C376.354 186.125 374.697 181.622 372.275 177.56C370.8 175.082 368.981 172.701 366.58 171.041C366.139 170.74 365.687 170.47 365.213 170.233C364.492 169.878 363.846 170.966 364.578 171.332Z" fill="black"/>
<path d="M338.883 125.38C346.871 124.626 359.788 124.141 373.9 126.49C373.9 126.49 378.991 141.304 365.428 170.987C354.599 174.855 339.023 170.966 339.023 170.966C325.46 141.283 330.552 126.468 330.552 126.468C330.552 126.468 333.673 125.865 338.883 125.38Z" fill="white"/>
<path d="M338.883 126.016C350.477 124.938 362.231 125.218 373.738 127.104C373.588 126.953 373.448 126.813 373.297 126.662C374.384 129.841 374.309 133.601 374.158 136.887C373.685 147.64 370.305 158.209 366.063 168.014C365.784 168.671 365.461 170.05 364.901 170.503C364.481 170.837 363.545 170.923 363.039 171.052C361.553 171.429 360.046 171.677 358.528 171.839C355.687 172.13 352.812 172.13 349.96 171.936C347.656 171.785 345.374 171.515 343.103 171.138C342.306 171.009 341.51 170.858 340.724 170.697C340.337 170.621 339.745 170.61 339.4 170.406C339.346 170.373 339.249 170.395 339.206 170.363C339.411 170.546 338.937 169.231 338.926 169.199C338.787 168.876 338.647 168.563 338.507 168.24C337.678 166.322 336.881 164.394 336.149 162.433C335.073 159.588 334.104 156.701 333.264 153.77C331.93 149.105 330.918 144.332 330.487 139.505C330.121 135.422 329.82 130.616 331.176 126.641C331.025 126.791 330.885 126.932 330.735 127.082C333.415 126.565 336.16 126.274 338.883 126.016C339.691 125.94 339.691 124.669 338.883 124.744C336.042 125.014 333.189 125.326 330.38 125.854C330.154 125.897 330.003 126.102 329.938 126.296C328.743 129.797 328.862 133.967 329.066 137.587C329.712 148.933 333.415 160.009 338.033 170.309C338.334 170.988 338.41 171.386 339.056 171.623C339.519 171.796 340.078 171.849 340.563 171.946C342.468 172.334 344.384 172.625 346.311 172.862C351.941 173.541 357.839 173.681 363.383 172.27C364.05 172.097 365.019 171.968 365.611 171.591C366.085 171.289 366.193 170.847 366.429 170.33C367.215 168.574 367.969 166.807 368.679 165.019C369.96 161.829 371.112 158.576 372.091 155.279C373.534 150.441 374.632 145.485 375.159 140.453C375.525 136.984 375.633 133.45 375.213 129.97C375.073 128.752 374.912 127.481 374.513 126.307C374.449 126.113 374.287 125.897 374.072 125.865C362.457 123.969 350.595 123.645 338.883 124.734C338.087 124.82 338.076 126.091 338.883 126.016Z" fill="black"/>
<path d="M361.542 102.765C361.618 102.668 361.682 102.571 361.747 102.474C361.693 102.571 361.628 102.668 361.542 102.765Z" fill="white"/>
<path d="M361.747 102.463C362.134 101.828 362.317 101.041 362.199 100.136C362.005 98.7138 360.972 97.5179 359.605 97.1192C359.583 97.1085 359.562 97.0977 359.54 97.0977C358.711 96.8714 357.796 96.9361 357.021 97.3132C356.806 97.4102 356.612 97.5502 356.451 97.6903C356.623 97.5287 356.827 97.3778 357.053 97.2701C357.839 96.9038 358.754 96.8283 359.583 97.0546C360.982 97.4425 362.037 98.66 362.231 100.104C362.35 101.02 362.156 101.828 361.747 102.463Z" fill="white"/>
<path d="M356.408 102.743C356.246 102.754 356.074 102.679 355.956 102.56C355.837 102.442 355.751 102.28 355.773 102.108C355.826 101.364 355.988 100.642 356.311 99.9743C356.871 98.7891 358.001 97.7332 359.26 97.3454C359.357 97.3238 359.432 97.313 359.529 97.3238C359.766 97.3669 359.981 97.5393 360.046 97.7763C360.143 98.1103 359.928 98.4551 359.594 98.5521C359.572 98.5628 359.54 98.5736 359.497 98.5844C359.486 98.5844 359.476 98.5952 359.465 98.6059C359.432 98.6167 359.411 98.6275 359.4 98.6275C359.153 98.746 358.927 98.8753 358.711 99.0261C358.679 99.0585 358.636 99.08 358.593 99.1231H358.582C358.517 99.1554 358.453 99.2309 358.41 99.2739C358.378 99.2955 358.356 99.3278 358.313 99.3601C359.077 99.8342 359.734 100.491 360.046 101.343C360.164 101.677 359.906 102.021 359.594 102.118C359.443 102.172 359.249 102.14 359.11 102.064C358.97 101.978 358.894 101.871 358.84 101.73C358.787 101.59 358.711 101.461 358.625 101.332C358.582 101.278 358.55 101.224 358.517 101.17C358.485 101.149 358.464 101.116 358.453 101.095C358.356 100.998 358.259 100.89 358.162 100.804C358.108 100.761 358.065 100.718 358.001 100.675C357.99 100.664 357.979 100.653 357.969 100.653C357.829 100.556 357.689 100.459 357.538 100.373C357.484 100.491 357.409 100.61 357.355 100.728C357.333 100.761 357.333 100.782 357.312 100.825C357.29 100.879 357.28 100.933 357.258 100.998C357.226 101.116 357.183 101.246 357.161 101.364C357.129 101.515 357.097 101.666 357.064 101.817C357.064 101.827 357.064 101.838 357.064 101.849C357.054 101.871 357.054 101.903 357.054 101.914C357.043 101.989 357.032 102.064 357.032 102.129C357 102.463 356.763 102.732 356.408 102.743Z" fill="black"/>
<path d="M362.188 100.136C362.317 101.041 362.134 101.828 361.736 102.463C361.672 102.56 361.607 102.657 361.532 102.754C361.402 102.927 361.262 103.077 361.101 103.218C359.616 104.521 357.075 104.597 355.665 102.765L355.956 102.55C356.074 102.668 356.246 102.743 356.408 102.733C356.774 102.711 357.011 102.453 357.043 102.097C357.043 102.032 357.054 101.957 357.064 101.881C357.064 101.871 357.064 101.828 357.075 101.817C357.075 101.795 357.075 101.795 357.075 101.785C357.097 101.644 357.129 101.494 357.172 101.332C357.194 101.213 357.237 101.084 357.269 100.966C357.29 100.912 357.312 100.858 357.323 100.793C357.344 100.761 357.344 100.739 357.366 100.696C357.42 100.578 357.495 100.459 357.549 100.341C357.7 100.427 357.839 100.513 357.979 100.621C358.001 100.632 358.001 100.642 358.012 100.642C358.065 100.686 358.119 100.729 358.173 100.772C358.27 100.869 358.378 100.966 358.464 101.063C358.485 101.084 358.496 101.117 358.528 101.138C358.561 101.192 358.593 101.246 358.636 101.3C358.722 101.429 358.787 101.558 358.851 101.698C358.905 101.838 358.98 101.957 359.12 102.032C359.26 102.108 359.454 102.14 359.605 102.086C359.906 101.989 360.165 101.634 360.057 101.31C359.745 100.459 359.099 99.8021 358.324 99.328C358.356 99.3064 358.378 99.2741 358.421 99.2418C358.475 99.1987 358.528 99.1233 358.593 99.091H358.604C358.647 99.0586 358.69 99.0371 358.722 98.994C358.937 98.8432 359.174 98.7139 359.411 98.5953C359.422 98.5953 359.443 98.5738 359.476 98.5738C359.486 98.563 359.497 98.5522 359.508 98.5522C359.54 98.5415 359.573 98.5307 359.605 98.5199C359.938 98.423 360.143 98.0782 360.057 97.7442C359.992 97.5071 359.777 97.3348 359.54 97.2917L359.605 97.0762C360.972 97.5179 361.994 98.7139 362.188 100.136Z" fill="white"/>
<path d="M361.112 103.228C359.573 104.64 356.817 104.672 355.428 102.549C355.181 102.172 354.729 102.205 354.459 102.42C354.718 102.161 355.213 102.108 355.471 102.517C355.525 102.614 355.6 102.7 355.676 102.786C357.086 104.607 359.626 104.532 361.112 103.228Z" fill="white"/>
<path d="M356.462 122.223C356.462 117.87 356.462 113.518 356.462 109.176C356.462 107.797 356.462 106.428 356.462 105.049C355.622 104.65 354.879 104.015 354.341 103.196C354.169 102.937 354.223 102.668 354.395 102.496C354.255 102.668 354.212 102.905 354.373 103.164C354.922 103.993 355.665 104.618 356.494 105.017C356.494 110.738 356.494 116.459 356.494 122.191C356.494 122.87 356.494 123.559 356.494 124.238C356.483 124.238 356.472 124.249 356.462 124.249C356.462 123.549 356.462 122.881 356.462 122.223Z" fill="white"/>
<path d="M354.309 109.165C354.309 109.273 354.276 109.38 354.19 109.499C354.083 109.639 353.975 109.79 353.857 109.919C353.954 109.79 354.05 109.661 354.147 109.531C354.599 108.928 353.695 108.346 353.189 108.766C353.609 108.378 354.309 108.702 354.309 109.165Z" fill="white"/>
<path d="M353.189 108.777C353.157 108.798 353.125 108.831 353.092 108.874C353.103 108.852 353.114 108.852 353.114 108.852C353.135 108.82 353.157 108.798 353.189 108.777Z" fill="white"/>
<path d="M346.494 114.218C348.076 113.873 349.605 113.259 350.972 112.376C351.413 112.095 351.844 111.804 352.253 111.47C351.833 111.815 351.381 112.128 350.929 112.419C349.572 113.281 348.065 113.905 346.494 114.25C346.494 114.239 346.494 114.229 346.494 114.218Z" fill="white"/>
<path d="M352.145 125.768C351.424 126.016 346.106 128.074 345.74 127.19C345.525 126.662 346.225 125.854 346.408 125.391C346.548 125.035 346.504 124.669 346.504 124.281C346.504 122.331 346.504 120.392 346.504 118.441C346.504 117.052 346.504 115.651 346.504 114.25C348.076 113.905 349.583 113.281 350.939 112.419C351.391 112.128 351.844 111.815 352.263 111.47C352.565 111.233 352.855 110.986 353.125 110.716C353.383 110.479 353.609 110.231 353.835 109.951C353.846 109.941 353.856 109.93 353.867 109.919C353.986 109.779 354.093 109.639 354.201 109.499C354.287 109.38 354.319 109.273 354.319 109.165H356.472C356.472 113.507 356.472 117.86 356.472 122.212C356.472 122.88 356.472 123.548 356.472 124.216C355.03 124.766 353.598 125.272 352.145 125.768Z" fill="white"/>
<path d="M345.74 127.179C346.106 128.063 351.424 126.005 352.145 125.757C353.598 125.272 355.03 124.766 356.462 124.216C356.462 124.227 356.462 124.238 356.462 124.249C355.019 124.788 353.555 125.305 352.102 125.79C351.381 126.037 346.063 128.095 345.697 127.201C345.482 126.673 346.182 125.865 346.365 125.412C346.505 125.057 346.461 124.68 346.461 124.303C346.461 122.363 346.461 120.413 346.461 118.474C346.461 117.062 346.461 115.662 346.461 114.25C346.483 114.25 346.483 114.24 346.505 114.24C346.505 115.64 346.505 117.03 346.505 118.431C346.505 120.381 346.505 122.32 346.505 124.27C346.505 124.647 346.548 125.025 346.408 125.38C346.225 125.843 345.514 126.651 345.74 127.179Z" fill="white"/>
<path d="M341.079 104.844C340.982 104.974 340.821 105.06 340.627 105.081C340.067 105.135 339.454 105.178 338.84 105.167C338.851 105.146 338.851 105.146 338.851 105.124C339.475 105.135 340.1 105.092 340.66 105.038C340.843 105.027 340.982 104.952 341.079 104.844Z" fill="white"/>
<path d="M355.514 98.4444C355.73 98.3151 355.913 98.1535 356.085 97.9919C355.902 98.1642 355.708 98.3474 355.482 98.4767C354.287 99.1878 352.866 98.7245 352.113 97.6363C350.907 95.8909 350.767 93.2943 350.821 91.1502C346.892 90.2559 343.103 87.8964 340.25 84.9658C340.261 84.9442 340.261 84.9227 340.261 84.9011C343.114 87.8425 346.903 90.2236 350.864 91.1179C350.81 93.2512 350.94 95.8585 352.145 97.604C352.899 98.703 354.319 99.1555 355.514 98.4444Z" fill="white"/>
<path d="M355.773 102.108C355.751 102.28 355.837 102.442 355.956 102.56L355.665 102.776C355.59 102.689 355.525 102.603 355.46 102.506C355.202 102.097 354.707 102.162 354.448 102.409C354.427 102.431 354.395 102.452 354.395 102.474C354.222 102.646 354.158 102.916 354.341 103.174C354.879 104.004 355.633 104.64 356.461 105.028C356.461 106.407 356.461 107.775 356.461 109.154H354.309C354.309 108.691 353.598 108.357 353.189 108.766C353.157 108.788 353.135 108.809 353.103 108.842C353.103 108.842 353.092 108.852 353.081 108.863C353.071 108.863 353.071 108.874 353.06 108.885C353.049 108.895 353.049 108.895 353.049 108.895C353.028 108.917 353.017 108.928 352.995 108.96C352.931 109.036 352.855 109.111 352.791 109.186C352.726 109.262 352.651 109.337 352.586 109.413C352.242 109.779 351.876 110.113 351.488 110.425C351.348 110.533 351.219 110.641 351.079 110.749C349.239 112.117 347.032 112.99 344.75 113.205C342.877 113.378 340.875 113.237 339.744 111.535C338.937 110.307 338.711 108.766 338.69 107.333C338.679 106.579 338.733 105.846 338.829 105.157C339.443 105.168 340.057 105.124 340.616 105.071C340.821 105.049 340.972 104.963 341.068 104.834C341.09 104.801 341.111 104.769 341.133 104.737C341.391 104.349 341.23 103.713 340.649 103.767C340.046 103.821 339.238 103.907 338.463 103.864C338.345 103.821 338.216 103.81 338.097 103.842C337.419 103.767 336.795 103.595 336.354 103.196C335.632 102.517 336.128 101.461 336.569 100.761C336.913 100.201 337.312 99.6942 337.645 99.1448C337.882 98.8 338.087 98.4337 338.248 98.0458C339.12 96.0202 339.4 93.7684 339.669 91.592C339.949 89.394 340.132 87.1745 340.25 84.9658C343.103 87.8964 346.892 90.256 350.821 91.1502C350.767 93.2943 350.907 95.8909 352.113 97.6364C352.866 98.7138 354.276 99.1771 355.482 98.4768C355.708 98.3367 355.902 98.1643 356.085 97.9919C356.203 97.8842 356.322 97.7764 356.44 97.6687C356.612 97.5286 356.795 97.3886 357.01 97.2916C357.785 96.9253 358.7 96.8498 359.529 97.0761C359.551 97.0869 359.572 97.0976 359.594 97.0976L359.529 97.3131C359.432 97.2916 359.357 97.3024 359.26 97.3347C357.99 97.7226 356.86 98.7784 356.311 99.9636C355.988 100.653 355.826 101.364 355.773 102.108Z" fill="white"/>
<path d="M338.668 107.376C338.646 106.611 338.7 105.868 338.808 105.167C338.819 105.167 338.829 105.167 338.84 105.167C338.743 105.857 338.7 106.59 338.7 107.344C338.722 108.777 338.948 110.328 339.755 111.546C340.885 113.248 342.888 113.399 344.761 113.216C347.043 113 349.26 112.128 351.09 110.759C351.23 110.662 351.37 110.544 351.499 110.436C351.359 110.565 351.208 110.684 351.047 110.802C349.196 112.171 347 113.043 344.707 113.259C342.845 113.431 340.832 113.281 339.712 111.589C338.916 110.361 338.69 108.82 338.668 107.376Z" fill="white"/>
<path d="M338.227 98.0889C339.099 96.0634 339.379 93.8008 339.637 91.6352C339.917 89.4157 340.1 87.1746 340.229 84.9443C340.24 84.9551 340.25 84.9659 340.261 84.9767C340.143 87.1854 339.96 89.4049 339.68 91.6028C339.411 93.7685 339.142 96.0311 338.259 98.0566C338.087 98.4445 337.893 98.8108 337.656 99.1556C337.861 98.8216 338.065 98.4768 338.227 98.0889Z" fill="white"/>
<path d="M336.321 103.239C335.6 102.571 336.095 101.504 336.526 100.804C336.881 100.233 337.29 99.705 337.645 99.1448C337.312 99.6943 336.913 100.201 336.569 100.761C336.128 101.461 335.633 102.528 336.354 103.196C336.795 103.605 337.419 103.767 338.098 103.842C338.227 103.821 338.356 103.821 338.464 103.864C339.239 103.907 340.046 103.81 340.649 103.767C341.23 103.713 341.391 104.349 341.133 104.737C341.338 104.338 341.165 103.756 340.606 103.81C339.992 103.864 339.196 103.95 338.421 103.907C338.291 103.853 338.162 103.853 338.044 103.875C337.387 103.821 336.763 103.638 336.321 103.239Z" fill="white"/>
<path d="M357.732 107.161C357.732 113.011 357.732 118.862 357.732 124.701C357.732 124.992 357.527 125.218 357.269 125.315C355.084 126.134 352.877 126.91 350.649 127.61C349.314 128.02 345.331 129.776 344.545 127.761C344.222 126.921 344.653 125.94 345.041 125.208C345.084 125.122 345.137 125.014 345.191 124.917C345.18 124.777 345.191 124.647 345.191 124.518C345.191 121.178 345.191 117.827 345.191 114.477C344.545 114.563 343.91 114.595 343.264 114.584C341.305 114.563 339.508 113.744 338.496 112.009C337.322 110.005 337.193 107.366 337.538 105.049C336.892 104.941 336.289 104.747 335.772 104.392C334.265 103.379 334.599 101.504 335.439 100.158C336.117 99.0693 336.892 98.1751 337.322 96.936C337.775 95.6216 338.001 94.2101 338.205 92.8203C338.668 89.7065 338.905 86.5496 339.045 83.4036C339.066 82.8972 339.744 82.5201 340.121 82.951C343.028 86.3665 347.226 89.1786 351.639 90.0513C351.897 90.1051 352.113 90.396 352.102 90.6546C352.048 92.023 352.123 93.4344 352.382 94.7704C352.64 96.0418 353.458 98.5522 355.105 97.0976C357.29 95.1691 360.606 95.2121 362.457 97.5933C364.115 99.7481 363.684 102.937 361.499 104.564C360.347 105.415 358.991 105.674 357.721 105.437C357.732 106.03 357.732 106.59 357.732 107.161ZM338.851 105.124C338.851 105.146 338.851 105.146 338.84 105.168C338.83 105.168 338.819 105.168 338.808 105.168C338.711 105.868 338.657 106.622 338.668 107.376C338.69 108.82 338.916 110.361 339.723 111.589C340.842 113.281 342.855 113.442 344.718 113.259C347.01 113.044 349.217 112.171 351.058 110.803C351.209 110.684 351.359 110.565 351.51 110.436C351.897 110.124 352.263 109.79 352.608 109.423C352.672 109.348 352.748 109.273 352.812 109.197C352.888 109.122 352.952 109.046 353.017 108.971C353.038 108.939 353.06 108.917 353.071 108.906C353.071 108.906 353.071 108.906 353.082 108.895C353.092 108.885 353.092 108.874 353.103 108.874C353.135 108.831 353.168 108.798 353.2 108.777C353.717 108.346 354.61 108.939 354.158 109.542C354.061 109.682 353.953 109.801 353.867 109.93C353.846 109.951 353.846 109.951 353.835 109.962C353.62 110.231 353.383 110.49 353.125 110.727C352.855 110.986 352.565 111.244 352.263 111.481C351.854 111.815 351.424 112.106 350.982 112.386C349.615 113.259 348.087 113.884 346.504 114.229C346.504 114.24 346.504 114.25 346.504 114.261C346.483 114.261 346.483 114.272 346.461 114.272C346.461 115.683 346.461 117.084 346.461 118.495C346.461 120.435 346.461 122.385 346.461 124.324C346.461 124.701 346.504 125.089 346.365 125.434C346.192 125.886 345.482 126.705 345.697 127.222C346.063 128.117 351.381 126.059 352.102 125.811C353.566 125.326 355.019 124.809 356.462 124.27C356.462 124.26 356.462 124.249 356.462 124.238C356.472 124.238 356.483 124.227 356.494 124.227C356.494 123.548 356.494 122.87 356.494 122.18C356.494 116.459 356.494 110.738 356.494 105.006C355.654 104.597 354.911 103.972 354.373 103.153C354.212 102.894 354.255 102.657 354.395 102.485C354.406 102.463 354.427 102.442 354.449 102.42C354.718 102.205 355.17 102.162 355.417 102.549C356.806 104.672 359.562 104.64 361.101 103.228C361.262 103.088 361.402 102.937 361.532 102.765C361.618 102.668 361.682 102.571 361.736 102.474C362.145 101.828 362.339 101.03 362.22 100.104C362.027 98.6599 360.972 97.4424 359.572 97.0545C358.744 96.8283 357.829 96.9037 357.043 97.27C356.817 97.3778 356.612 97.5286 356.44 97.6902C356.322 97.798 356.203 97.9057 356.085 98.0135C355.913 98.1751 355.719 98.3367 355.514 98.466C354.33 99.1771 352.899 98.7246 352.145 97.6256C350.939 95.8802 350.799 93.2835 350.864 91.1395C346.914 90.2344 343.114 87.8533 340.261 84.9227C340.261 84.9443 340.261 84.9658 340.25 84.9874C340.24 84.9766 340.229 84.9658 340.218 84.955C340.089 87.1961 339.906 89.4264 339.626 91.6459C339.368 93.8115 339.088 96.0741 338.216 98.0997C338.054 98.4768 337.85 98.8215 337.645 99.1555C337.279 99.7158 336.881 100.233 336.526 100.815C336.095 101.515 335.6 102.582 336.321 103.25C336.763 103.659 337.387 103.832 338.054 103.896C338.184 103.875 338.313 103.875 338.431 103.929C339.206 103.961 340.003 103.875 340.616 103.832C341.176 103.778 341.338 104.36 341.144 104.758C341.122 104.79 341.101 104.823 341.079 104.855C340.982 104.952 340.842 105.028 340.659 105.049C340.089 105.092 339.475 105.135 338.851 105.124Z" fill="black"/>
<path d="M346.031 114.261L346.053 117.138C346.053 117.138 353.308 114.218 354.147 109.542C354.158 109.542 347.732 113.992 346.031 114.261Z" fill="black"/>
<path d="M337.093 95.1102C337.271 93.7112 336.97 92.5205 336.422 92.4507C335.873 92.3809 335.285 93.4583 335.107 94.8573C334.929 96.2563 335.23 97.447 335.778 97.5168C336.326 97.5867 336.915 96.5092 337.093 95.1102Z" fill="black"/>
<path d="M342.909 97.5286C343.462 97.5286 343.91 96.3854 343.91 94.9751C343.91 93.5649 343.462 92.4216 342.909 92.4216C342.356 92.4216 341.908 93.5649 341.908 94.9751C341.908 96.3854 342.356 97.5286 342.909 97.5286Z" fill="black"/>
<path d="M337.958 89.3185C337.053 89.34 336.095 89.7064 335.417 90.2882C335.094 90.5575 334.836 90.9023 334.653 91.2794C334.578 91.4303 334.61 91.6242 334.771 91.7104C334.911 91.7966 335.127 91.7535 335.202 91.5919C335.482 91.0101 335.923 90.6006 336.494 90.3205C336.634 90.2451 336.677 90.2343 336.827 90.1804C336.946 90.1373 337.075 90.0942 337.193 90.0619C337.301 90.0296 337.398 90.008 337.505 89.9865C337.549 89.9757 337.592 89.9757 337.635 89.9649C337.656 89.9649 337.678 89.9542 337.699 89.9542C337.645 89.9649 337.775 89.9434 337.699 89.9542C337.785 89.9434 337.882 89.9326 337.968 89.9326C338.367 89.9434 338.367 89.3077 337.958 89.3185Z" fill="black"/>
<path d="M346.817 92.0985C345.568 90.4608 343.447 89.1786 341.338 89.4588C341.165 89.4803 341.025 89.588 341.025 89.7712C341.025 89.9221 341.176 90.1052 341.338 90.0837C342.64 89.9113 343.856 90.3638 344.901 91.1288C345.267 91.3981 345.611 91.6998 345.923 92.023C346.02 92.1308 346.117 92.2277 346.214 92.3355C346.246 92.3678 346.386 92.551 346.278 92.4109C346.386 92.551 346.548 92.6156 346.709 92.5294C346.838 92.454 346.924 92.2385 346.817 92.0985Z" fill="black"/>
<path d="M167.795 363.621L166.826 376.884C168.957 376.636 173.597 376.377 178.753 378.629C185.093 381.387 188.29 386.225 189.356 388.014C178.365 386.688 167.375 385.363 156.385 384.049V362.953L167.795 363.621Z" fill="white"/>
<path d="M167.16 363.621C166.837 368.038 166.514 372.455 166.191 376.884C166.169 377.196 166.503 377.552 166.826 377.519C175.621 376.517 184.254 380.741 188.807 388.337C188.99 388.024 189.173 387.701 189.356 387.389C178.365 386.063 167.375 384.738 156.385 383.424C156.6 383.639 156.804 383.844 157.02 384.059C157.02 377.024 157.02 369.999 157.02 362.963C156.804 363.179 156.6 363.384 156.385 363.599C160.184 363.825 163.995 364.052 167.795 364.278C168.613 364.321 168.602 363.06 167.795 363.006C163.995 362.78 160.184 362.554 156.385 362.328C156.04 362.306 155.75 362.629 155.75 362.963C155.75 369.999 155.75 377.024 155.75 384.059C155.75 384.436 156.04 384.652 156.385 384.695C167.375 386.02 178.365 387.346 189.356 388.66C189.84 388.714 190.131 388.078 189.905 387.712C185.136 379.76 176.062 375.214 166.826 376.27C167.041 376.485 167.246 376.69 167.461 376.905C167.784 372.488 168.107 368.07 168.43 363.642C168.484 362.802 167.224 362.802 167.16 363.621Z" fill="black"/>
<path d="M167.149 371.895C164.006 371.895 160.863 371.895 157.719 371.895C157.278 371.895 156.826 371.895 156.385 371.895C155.566 371.895 155.566 373.167 156.385 373.167C159.528 373.167 162.671 373.167 165.814 373.167C166.255 373.167 166.708 373.167 167.149 373.167C167.956 373.167 167.956 371.895 167.149 371.895Z" fill="black"/>
<path d="M125.168 363.621L126.137 376.884C124.274 376.517 119.398 375.817 113.984 378.144C107.331 381 104.382 386.473 103.618 388.014C114.608 386.688 125.598 385.363 136.589 384.049V362.953L125.168 363.621Z" fill="white"/>
<path d="M124.533 363.621C124.856 368.038 125.179 372.456 125.502 376.884C125.771 376.679 126.04 376.474 126.298 376.27C116.912 374.46 107.342 379.136 103.058 387.69C102.864 388.067 103.09 388.703 103.607 388.638C114.597 387.313 125.588 385.988 136.578 384.674C136.923 384.63 137.213 384.415 137.213 384.038C137.213 377.002 137.213 369.977 137.213 362.942C137.213 362.619 136.923 362.285 136.578 362.306C132.778 362.532 128.968 362.759 125.168 362.985C124.361 363.028 124.35 364.299 125.168 364.256C128.968 364.03 132.778 363.804 136.578 363.578C136.363 363.362 136.158 363.157 135.943 362.942C135.943 369.977 135.943 377.002 135.943 384.038C136.158 383.822 136.363 383.618 136.578 383.402C125.588 384.727 114.597 386.053 103.607 387.367C103.79 387.68 103.973 388.003 104.156 388.315C108.171 380.288 117.116 375.763 125.975 377.476C126.352 377.552 126.804 377.304 126.772 376.862C126.449 372.445 126.126 368.027 125.803 363.599C125.739 362.813 124.468 362.802 124.533 363.621Z" fill="black"/>
<path d="M125.814 373.167C128.957 373.167 132.1 373.167 135.243 373.167C135.685 373.167 136.137 373.167 136.578 373.167C137.396 373.167 137.396 371.895 136.578 371.895C133.435 371.895 130.292 371.895 127.149 371.895C126.707 371.895 126.255 371.895 125.814 371.895C124.996 371.895 124.996 373.167 125.814 373.167Z" fill="black"/>
<path d="M170.766 368.877L181.433 368.877L181.433 363.942L170.766 363.942L170.766 368.877Z" fill="black"/>
<path d="M140.148 368.877L150.815 368.877L150.815 363.942L140.148 363.942L140.148 368.877Z" fill="black"/>
<path d="M123.995 183.583L114.415 366.25H179.851L170.669 183.583H123.995Z" fill="white"/>
<path d="M123.36 183.583C123.037 189.638 122.725 195.704 122.402 201.759C121.637 216.315 120.873 230.86 120.109 245.416C119.183 263.021 118.268 280.616 117.342 298.221C116.546 313.423 115.749 328.637 114.953 343.839C114.694 348.828 114.425 353.816 114.167 358.794C114.038 361.164 113.769 363.578 113.79 365.948C113.79 366.045 113.779 366.153 113.779 366.25C113.758 366.594 114.081 366.885 114.414 366.885C121.788 366.885 129.172 366.885 136.546 366.885C148.29 366.885 160.045 366.885 171.788 366.885C174.469 366.885 177.16 366.885 179.84 366.885C180.174 366.885 180.486 366.594 180.475 366.25C180.174 360.194 179.862 354.129 179.56 348.073C178.828 333.517 178.096 318.972 177.364 304.416C176.482 286.811 175.599 269.217 174.706 251.611C173.941 236.409 173.177 221.196 172.413 205.993C172.165 201.005 171.907 196.016 171.659 191.038C171.541 188.657 171.509 186.255 171.304 183.884C171.293 183.787 171.293 183.68 171.293 183.583C171.272 183.238 171.013 182.947 170.658 182.947C165.384 182.947 160.12 182.947 154.845 182.947C146.492 182.947 138.139 182.947 129.786 182.947C127.848 182.947 125.922 182.947 123.984 182.947C123.166 182.947 123.166 184.218 123.984 184.218C129.258 184.218 134.522 184.218 139.797 184.218C148.15 184.218 156.503 184.218 164.856 184.218C166.794 184.218 168.721 184.218 170.658 184.218C170.443 184.003 170.238 183.798 170.023 183.583C170.324 189.638 170.637 195.704 170.938 201.759C171.67 216.315 172.402 230.86 173.134 245.416C174.017 263.021 174.899 280.616 175.793 298.221C176.557 313.423 177.321 328.637 178.086 343.839C178.333 348.828 178.592 353.816 178.839 358.794C178.914 360.367 179.001 361.929 179.076 363.502C179.119 364.256 179.001 365.226 179.194 365.948C179.216 366.034 179.205 366.153 179.205 366.25C179.42 366.034 179.625 365.829 179.84 365.614C172.467 365.614 165.082 365.614 157.709 365.614C145.965 365.614 134.21 365.614 122.466 365.614C119.786 365.614 117.095 365.614 114.414 365.614C114.63 365.829 114.834 366.034 115.05 366.25C115.372 360.194 115.685 354.129 116.008 348.073C116.772 333.517 117.536 318.972 118.3 304.416C119.226 286.811 120.141 269.217 121.067 251.611C121.863 236.409 122.66 221.196 123.456 205.993C123.715 201.005 123.984 196.016 124.242 191.038C124.371 188.668 124.641 186.255 124.619 183.884C124.619 183.787 124.63 183.68 124.63 183.583C124.673 182.764 123.403 182.764 123.36 183.583Z" fill="black"/>
<path d="M170.669 123.904H123.995V190.683H170.669V123.904Z" fill="white"/>
<path d="M123.338 123.904C123.338 131.414 123.338 138.923 123.338 146.433C123.338 158.414 123.338 170.395 123.338 182.376C123.338 185.145 123.338 187.914 123.338 190.683C123.338 191.039 123.639 191.34 123.995 191.34C129.269 191.34 134.533 191.34 139.807 191.34C148.16 191.34 156.514 191.34 164.867 191.34C166.804 191.34 168.731 191.34 170.669 191.34C171.024 191.34 171.325 191.039 171.325 190.683C171.325 183.173 171.325 175.664 171.325 168.154C171.325 156.173 171.325 144.192 171.325 132.211C171.325 129.442 171.325 126.673 171.325 123.904C171.325 123.549 171.024 123.247 170.669 123.247C165.394 123.247 160.13 123.247 154.856 123.247C146.503 123.247 138.15 123.247 129.797 123.247C127.859 123.247 125.932 123.247 123.995 123.247C123.155 123.247 123.155 124.561 123.995 124.561C129.269 124.561 134.533 124.561 139.807 124.561C148.16 124.561 156.514 124.561 164.867 124.561C166.804 124.561 168.731 124.561 170.669 124.561C170.453 124.346 170.227 124.12 170.012 123.904C170.012 131.414 170.012 138.923 170.012 146.433C170.012 158.414 170.012 170.395 170.012 182.376C170.012 185.145 170.012 187.914 170.012 190.683C170.227 190.467 170.453 190.241 170.669 190.026C165.394 190.026 160.13 190.026 154.856 190.026C146.503 190.026 138.15 190.026 129.797 190.026C127.859 190.026 125.932 190.026 123.995 190.026C124.21 190.241 124.436 190.467 124.651 190.683C124.651 183.173 124.651 175.664 124.651 168.154C124.651 156.173 124.651 144.192 124.651 132.211C124.651 129.442 124.651 126.673 124.651 123.904C124.651 123.053 123.338 123.053 123.338 123.904Z" fill="black"/>
<path d="M146.697 190.672C146.697 196.501 146.697 202.319 146.697 208.148C146.697 222.133 146.697 236.118 146.697 250.103C146.697 267.019 146.697 283.934 146.697 300.85C146.697 315.471 146.697 330.08 146.697 344.701C146.697 349.496 146.697 354.279 146.697 359.074C146.697 361.347 146.546 363.685 146.697 365.948C146.707 366.045 146.697 366.142 146.697 366.239C146.697 367.058 147.967 367.058 147.967 366.239C147.967 360.41 147.967 354.592 147.967 348.763C147.967 334.778 147.967 320.793 147.967 306.808C147.967 289.892 147.967 272.977 147.967 256.061C147.967 241.441 147.967 226.831 147.967 212.21C147.967 207.415 147.967 202.632 147.967 197.837C147.967 195.564 148.118 193.226 147.967 190.963C147.956 190.866 147.967 190.769 147.967 190.672C147.967 189.864 146.697 189.864 146.697 190.672Z" fill="black"/>
<path d="M136.761 82.1537C136.427 83.1772 136.632 84.5563 136.664 85.6014C136.826 94.6518 137.472 103.702 138.042 112.731C138.236 115.856 138.408 118.98 138.645 122.094C138.753 123.581 140.152 124.443 141.261 125.294C142.865 126.533 144.608 127.632 146.535 128.311C148.408 128.968 150.518 129.151 152.316 128.181C154.038 127.266 155.803 124.992 155.922 123.01C156.094 119.917 155.922 116.782 155.922 113.679C155.943 113.679 155.965 113.679 155.986 113.679C157.644 113.679 159.409 113.819 161.056 113.582C162.251 113.41 163.457 112.85 163.694 111.557C163.866 110.598 163.661 109.499 163.543 108.54C163.338 106.87 163.058 105.211 162.757 103.551C163.306 103.562 163.877 103.541 164.339 103.282C165.513 102.603 165.179 101.343 164.931 100.265C164.264 97.3454 163.145 94.5333 161.928 91.8074C160.83 89.3293 159.614 86.8836 158.29 84.5024C157.73 83.4681 157.192 82.186 156.363 81.3348C155.287 80.2251 153.747 79.3954 152.359 78.7705C150.012 77.7147 147.439 77.1867 144.877 77.5315C143.381 77.7254 141.939 78.2103 140.604 78.9322C139.764 79.3847 138.989 79.9234 138.257 80.516C137.698 80.9685 136.987 81.4533 136.761 82.1537ZM137.848 85.192C137.838 84.6317 137.838 84.0715 137.848 83.5004C137.87 82.6924 137.956 82.3476 138.645 81.755C141.088 79.6325 144.135 78.415 147.386 78.6628C149.582 78.8352 151.724 79.654 153.597 80.7961C154.361 81.2594 155.254 81.7873 155.76 82.52C156.675 83.856 157.407 85.3536 158.161 86.7866C159.399 89.1462 160.572 91.5596 161.595 94.0269C162.122 95.3306 162.628 96.6343 163.058 97.9703C163.424 99.1016 163.909 100.384 163.984 101.58C164.038 102.452 162.972 102.409 162.208 102.355C162.176 102.355 162.144 102.355 162.111 102.355C161.982 102.345 161.853 102.334 161.745 102.334C161.046 102.334 160.346 102.334 159.646 102.334C158.882 102.334 158.882 103.53 159.646 103.53C160.292 103.53 160.916 103.53 161.551 103.53C161.896 105.361 162.208 107.193 162.423 109.046C162.499 109.757 162.746 110.781 162.51 111.481C162.144 112.591 160.281 112.472 159.377 112.483C157.881 112.483 156.385 112.483 154.888 112.483C152.768 112.483 150.658 112.483 148.548 112.483C146.686 112.483 145.028 112.516 143.5 111.18C142.918 110.673 142.068 111.514 142.649 112.031C144.533 113.69 146.6 113.69 148.925 113.69C150.862 113.69 152.8 113.69 154.738 113.69C154.738 114.013 154.738 114.336 154.738 114.66C154.738 116.513 154.738 118.377 154.738 120.219C154.738 121.749 154.921 123.064 154.199 124.453C153.166 126.425 151.498 127.783 149.194 127.664C147.278 127.567 145.448 126.641 143.855 125.639C142.617 124.852 141.304 123.947 140.281 122.891C139.635 122.223 139.797 120.952 139.732 120.068C139.506 116.534 139.28 112.99 139.065 109.466C138.537 101.386 137.967 93.2835 137.848 85.192Z" fill="black"/>
<path d="M137.848 83.5004C137.838 84.0607 137.838 84.6317 137.848 85.192C137.967 93.2835 138.537 101.386 139.032 109.466C139.248 112.99 139.474 116.534 139.7 120.068C139.754 120.952 139.603 122.234 140.249 122.891C141.282 123.947 142.585 124.852 143.823 125.639C145.416 126.641 147.246 127.567 149.162 127.664C151.465 127.772 153.134 126.425 154.167 124.453C154.888 123.074 154.705 121.749 154.705 120.219C154.705 118.366 154.705 116.513 154.705 114.66C154.705 114.336 154.705 114.013 154.705 113.69C152.768 113.69 150.83 113.69 148.893 113.69C146.568 113.69 144.512 113.69 142.617 112.031C142.036 111.514 142.886 110.673 143.467 111.18C144.996 112.526 146.654 112.483 148.516 112.483C150.636 112.483 152.746 112.483 154.856 112.483C156.352 112.483 157.838 112.483 159.345 112.483C160.249 112.472 162.1 112.591 162.477 111.481C162.714 110.792 162.466 109.757 162.391 109.046C162.176 107.193 161.864 105.361 161.519 103.53C160.884 103.53 160.249 103.53 159.614 103.53C158.85 103.53 158.85 102.334 159.614 102.334C160.314 102.334 161.013 102.334 161.713 102.334C161.821 102.334 161.95 102.345 162.079 102.355C162.111 102.355 162.144 102.355 162.176 102.355C162.94 102.409 164.017 102.452 163.952 101.58C163.877 100.394 163.392 99.1016 163.026 97.9703C162.596 96.6343 162.1 95.3306 161.562 94.0269C160.54 91.5596 159.366 89.1462 158.128 86.7866C157.375 85.3536 156.643 83.8452 155.728 82.52C155.233 81.7981 154.329 81.2594 153.564 80.7961C151.691 79.6432 149.56 78.8244 147.353 78.6628C144.102 78.4042 141.056 79.6325 138.613 81.755C137.956 82.3476 137.859 82.6924 137.848 83.5004Z" fill="white"/>
<path d="M154.727 97.4531C155.363 97.4531 155.879 96.4111 155.879 95.1258C155.879 93.8405 155.363 92.7986 154.727 92.7986C154.091 92.7986 153.575 93.8405 153.575 95.1258C153.575 96.4111 154.091 97.4531 154.727 97.4531Z" fill="black"/>
<path d="M164.464 96.7352C165.095 96.6564 165.478 95.5586 165.319 94.2832C165.16 93.0077 164.519 92.0377 163.888 92.1166C163.257 92.1954 162.874 93.2932 163.033 94.5686C163.192 95.844 163.833 96.814 164.464 96.7352Z" fill="black"/>
<path d="M158.806 107.398C156.417 107.516 153.844 106.471 152.359 104.597C152.079 104.252 151.594 104.737 151.874 105.081C152.972 106.471 154.555 107.355 156.255 107.786C157.073 107.99 157.967 108.131 158.817 108.087C159.248 108.066 159.259 107.376 158.806 107.398Z" fill="black"/>
<path d="M155.427 83.7592C155.427 83.7592 146.029 93.7577 130.83 90.1268C130.83 89.1786 132.003 89.8574 133.887 87.3362C137.644 82.0676 136.632 67.2745 153.231 79.3848C152.736 79.0185 155.265 77.2946 155.502 77.2084C157.687 76.4004 159.668 77.4131 161.39 78.5768C162.553 79.3633 163.694 80.2252 165.028 80.7747C165.319 80.8932 168.947 81.7767 168.968 81.4966C168.968 81.4966 169.485 89.2433 159.151 86.776C159.162 86.7867 156.062 83.9747 155.427 83.7592Z" fill="black"/>
<path d="M141.96 88.2304C141.96 88.2304 142.595 96.2142 143.543 97.5071C144.49 98.8 141.53 98.6384 141.53 98.6384C141.53 98.6384 139.506 96.8175 137.612 97.5071L137.149 87.918L141.96 88.2304Z" fill="black"/>
<path d="M142.283 99.3708C141.336 98.2287 139.904 97.4961 138.3 97.4961C135.448 97.4961 133.123 99.8126 133.123 102.679C133.123 105.534 135.437 107.861 138.3 107.861C140.173 107.861 141.81 106.87 142.725 105.372" fill="white"/>
<path d="M142.531 99.1339C141.25 97.6471 139.301 96.9252 137.364 97.2484C135.642 97.5393 134.102 98.7029 133.338 100.287C131.734 103.627 133.908 107.689 137.59 108.174C139.764 108.454 141.863 107.409 143.026 105.566C143.263 105.189 142.671 104.844 142.434 105.221C140.615 108.109 136.32 108.314 134.35 105.469C132.52 102.829 133.801 99.0477 136.869 98.0888C138.763 97.507 140.765 98.1534 142.046 99.6403C142.337 99.9528 142.821 99.4679 142.531 99.1339Z" fill="black"/>
<path d="M137.159 99.1987C137.192 99.2094 137.213 99.2202 137.246 99.231C137.278 99.2418 137.31 99.2525 137.342 99.2633C137.353 99.2741 137.418 99.2956 137.364 99.2741C137.31 99.2525 137.396 99.2849 137.407 99.2956C137.676 99.4249 137.945 99.565 138.193 99.7266C138.968 100.233 139.603 100.944 140.012 101.784C140.335 102.431 140.496 103.153 140.55 103.875C140.583 104.316 141.271 104.316 141.239 103.875C141.142 102.539 140.69 101.278 139.829 100.255C139.291 99.6189 138.602 99.0909 137.848 98.7462C137.687 98.6707 137.515 98.5953 137.332 98.5307C136.923 98.3906 136.74 99.0586 137.159 99.1987Z" fill="black"/>
<path d="M139.721 100.438C138.903 100.75 138.096 101.3 137.547 101.978C137.278 102.302 137.073 102.657 136.923 103.056C136.858 103.228 136.998 103.433 137.159 103.476C137.353 103.53 137.515 103.411 137.579 103.239C137.59 103.217 137.601 103.196 137.601 103.174C137.601 103.174 137.622 103.12 137.612 103.153C137.601 103.185 137.622 103.131 137.622 103.131C137.633 103.11 137.644 103.088 137.655 103.067C137.687 102.991 137.73 102.927 137.762 102.862C137.805 102.797 137.838 102.733 137.881 102.668C137.902 102.636 137.924 102.603 137.945 102.571C137.956 102.56 137.967 102.549 137.978 102.528C138.042 102.442 137.956 102.549 137.988 102.506C138.171 102.269 138.387 102.065 138.613 101.871C138.634 101.849 138.666 101.828 138.699 101.806C138.731 101.784 138.688 101.817 138.688 101.817C138.699 101.806 138.709 101.795 138.72 101.795C138.774 101.752 138.839 101.709 138.892 101.666C138.989 101.601 139.097 101.526 139.205 101.461C139.377 101.364 139.549 101.267 139.721 101.181C139.754 101.16 139.786 101.149 139.829 101.138C139.851 101.127 139.947 101.084 139.872 101.116C139.807 101.149 139.883 101.116 139.904 101.106C140.077 101.041 140.195 100.869 140.141 100.686C140.098 100.513 139.894 100.373 139.721 100.438Z" fill="black"/>
<path d="M155.857 90.2236L154.802 88.3704C154.63 88.058 154.253 87.9287 153.93 88.0364C152.779 88.4458 150.195 89.4371 149.054 90.4498C148.796 90.6761 148.753 91.064 148.925 91.3549C149.194 91.8074 149.614 92.5185 149.958 93.0895C150.184 93.4559 150.669 93.5528 151.024 93.2943C151.896 92.637 153.586 91.5488 155.351 91.301C155.857 91.2364 156.115 90.6653 155.857 90.2236Z" fill="black" stroke="black" stroke-width="0.3207" stroke-miterlimit="10"/>
<path d="M161.153 90.2667L161.498 88.5213C161.551 88.2304 161.821 88.0149 162.122 88.0041C163.188 87.9718 165.599 87.9395 166.815 88.3705C167.095 88.4674 167.235 88.7476 167.181 89.0277C167.084 89.4587 166.934 90.1267 166.815 90.6654C166.74 91.0209 166.363 91.2364 165.997 91.1502C165.093 90.9132 163.403 90.59 161.874 90.9347C161.455 91.0425 161.078 90.6869 161.153 90.2667Z" fill="black" stroke="black" stroke-width="0.2714" stroke-miterlimit="10"/>
<path d="M155.351 113.464V117.332C155.351 117.332 141.583 115.78 142.434 111.621C142.434 111.621 144.565 113.561 154.899 112.957C154.899 112.957 155.351 112.785 155.351 113.464Z" fill="black"/>
<path d="M383.652 196.663C383.76 196.878 383.835 197.104 383.975 197.374C384.438 198.43 385.213 199.679 385.762 200.681C386.322 201.683 386.656 202.47 386.386 202.761C386.031 203.17 384.492 202.459 383.006 200.919C382.985 200.972 382.963 201.037 382.953 201.091L382.985 201.134C384.664 203.31 386.236 205.476 385.654 206.155C385.202 206.715 383.297 206.004 381.478 204.215C381.467 204.237 381.456 204.259 381.446 204.269C383.34 206.532 384.826 208.525 384.309 209.172C383.825 209.797 381.478 208.838 379.228 206.51C379.217 206.521 379.207 206.532 379.196 206.532C381.263 208.988 382.802 210.992 382.285 211.628C381.758 212.285 378.83 211.003 376.15 207.846L375.934 207.588C375.794 207.599 375.644 207.599 375.482 207.588C376.602 209.527 377.237 210.895 376.763 211.37C376.386 211.736 375.353 211.402 373.997 210.378C372.651 209.344 370.94 207.534 369.573 204.819C369.163 204.032 368.83 203.149 368.561 202.308C368.356 201.813 368.173 201.317 368.022 200.8C367.775 199.852 367.538 198.904 367.42 197.902C367.387 197.675 367.334 197.374 367.312 197.051L367.258 196.113C367.215 195.488 367.237 194.853 367.269 194.228C367.409 191.696 368.076 189.218 369.056 187.138C371.037 182.925 373.781 180.081 376.408 177.765C379.077 175.448 381.769 173.67 384.438 172.043C387.118 170.438 389.788 169.027 392.436 167.712C397.732 165.083 402.985 162.821 408.055 160.558C410.585 159.427 413.061 158.296 415.418 157.143C416.591 156.561 417.732 155.979 418.819 155.376L420.542 154.384C420.832 154.201 421.177 153.975 421.274 153.609C421.371 153.221 421.058 152.908 420.768 152.693C420.617 152.585 420.456 152.488 420.273 152.391L419.605 152.079C419.347 151.949 419.067 151.842 418.787 151.723C418.238 151.486 417.678 151.26 417.086 151.034C414.772 150.139 412.285 149.342 409.745 148.609C399.53 145.711 388.604 143.707 377.7 141.94L371.446 140.97C367.097 140.216 364.115 136.068 364.815 131.64C365.514 127.223 369.712 124.206 374.19 124.971L380.154 125.897C391.478 127.74 402.781 129.765 414.266 133.03C417.14 133.859 420.036 134.786 422.996 135.928C423.728 136.208 424.482 136.521 425.224 136.833C425.59 136.984 425.978 137.156 426.354 137.329L426.925 137.587C427.151 137.695 427.431 137.814 427.732 137.975C430.111 139.171 432.404 140.54 434.342 142.177C436.29 143.804 437.786 145.711 438.755 147.823C439.229 148.879 439.627 149.989 439.767 151.163C439.842 151.745 439.961 152.337 439.939 152.93C439.928 153.523 439.907 154.115 439.853 154.697C439.541 157.035 438.615 159.179 437.194 161.14C435.763 163.09 433.857 164.857 431.726 166.387C431.198 166.775 430.639 167.13 430.09 167.508L429.25 168.046L428.518 168.488C427.818 168.908 427.119 169.307 426.43 169.673C425.052 170.427 423.696 171.117 422.35 171.785C419.659 173.099 417.022 174.295 414.417 175.459C409.218 177.786 404.137 179.984 399.347 182.365C396.957 183.561 394.654 184.789 392.511 186.093C390.369 187.386 388.399 188.776 386.806 190.187C385.213 191.588 384.115 193.032 383.728 194.012C383.329 194.96 383.372 195.585 383.62 196.404C383.642 196.469 383.642 196.555 383.652 196.663Z" fill="white"/>
<path d="M383.071 196.889C383.458 198.096 384.513 199.572 385.482 201.457C385.622 201.705 385.676 202.071 385.859 202.308C385.891 202.352 385.88 202.535 385.913 202.545C386.225 202.362 386.279 202.265 386.096 202.276L385.945 202.244C385.719 202.007 385.159 201.877 384.869 201.694C384.352 201.35 383.911 200.94 383.491 200.52C383.2 200.207 382.597 200.444 382.436 200.919C382.167 201.651 383.082 202.308 383.469 202.815C383.975 203.504 384.535 204.248 384.933 205.077C385.019 205.25 385.224 205.605 385.17 205.821C385.224 205.638 385.321 205.745 385.095 205.713C384.912 205.681 384.75 205.638 384.578 205.584C383.555 205.228 382.683 204.506 381.941 203.774C381.672 203.526 381.198 203.537 380.961 203.892L380.929 203.946C380.767 204.194 380.81 204.474 380.983 204.69C381.639 205.508 382.328 206.306 382.942 207.2C383.157 207.502 383.351 207.814 383.523 208.137C383.598 208.288 383.749 208.805 383.846 208.719C383.62 208.913 382.522 208.288 382.317 208.159C381.338 207.62 380.466 206.877 379.68 206.058C379.497 205.864 379.142 205.767 378.905 205.907L378.873 205.929C378.507 206.155 378.431 206.575 378.733 206.952C379.605 208.008 380.531 209.064 381.252 210.217C381.338 210.368 381.779 211.154 381.758 211.186C381.79 211.154 381.144 210.992 381.004 210.939C379.852 210.465 378.776 209.624 377.829 208.719C377.366 208.267 376.903 207.577 376.408 207.157C376.009 206.834 375.762 206.887 375.299 206.855C374.858 206.823 374.642 207.394 374.868 207.814C375.095 208.267 376.612 210.626 376.063 210.777C375.471 211.003 373.749 209.398 373.275 208.902C372.231 207.889 371.327 206.65 370.541 205.271C369.766 203.86 369.12 202.287 368.604 200.595C368.453 200.024 368.313 199.453 368.195 198.871L367.969 197.363C367.893 196.749 367.882 196.113 367.85 195.488C367.839 194.228 367.958 192.967 368.195 191.75C368.679 189.293 369.637 187.074 370.756 185.21C373.017 181.493 375.773 178.993 378.442 176.86C381.133 174.748 383.857 173.035 386.559 171.494C391.973 168.423 397.366 165.978 402.651 163.607C406.042 162.088 409.39 160.634 412.619 159.136C414.223 158.393 415.805 157.628 417.302 156.852C418.055 156.464 418.787 156.076 419.497 155.677L420.822 154.912C421.123 154.729 421.424 154.525 421.683 154.255C421.941 153.997 422.156 153.641 422.092 153.275C422.027 152.908 421.758 152.617 421.478 152.38C421.177 152.143 420.875 151.96 420.499 151.777L419.67 151.4L418.722 151.001C418.098 150.721 417.42 150.484 416.763 150.226C415.418 149.73 414.04 149.256 412.63 148.814C409.799 147.92 406.882 147.133 403.911 146.401C397.969 144.946 391.876 143.739 385.73 142.641C383.092 142.166 380.423 141.757 377.764 141.337C375.676 141.014 373.588 140.69 371.51 140.324C367.193 139.559 364.352 135.034 365.633 130.746C366.731 127.104 370.369 125.046 374.093 125.585L378.173 126.221L385.213 127.373C387.71 127.794 390.208 128.235 392.705 128.72C397.7 129.668 402.705 130.703 407.732 131.942C411.37 132.836 415.009 133.838 418.701 135.066C420.542 135.67 422.404 136.348 424.288 137.135C424.761 137.34 425.224 137.523 425.709 137.738L427.334 138.492L429.508 139.635C430.219 140.033 430.886 140.486 431.586 140.906C434.288 142.662 436.462 144.871 437.84 147.403C439.218 149.913 439.648 153.027 438.981 155.839C438.314 158.64 436.699 161.151 434.438 163.316C433.33 164.415 432.049 165.396 430.714 166.322C430.036 166.775 429.39 167.227 428.658 167.669L427.237 168.51C423.889 170.417 420.66 171.925 417.474 173.401L408.066 177.614C401.93 180.372 395.913 183.152 390.821 186.438C388.044 188.216 385.557 190.241 384.158 192.105C382.737 194.012 382.662 195.133 382.92 196.318C382.942 196.458 383.06 196.663 383.071 196.889C383.168 197.298 384.309 196.738 384.244 196.426C384.223 196.049 384.115 195.758 384.094 195.531C384.083 195.413 384.061 195.294 384.072 195.187C384.094 194.777 384.212 194.314 384.686 193.517C385.159 192.741 385.988 191.75 387.086 190.769C388.851 189.164 391.187 187.58 393.706 186.093C396.236 184.606 398.97 183.206 401.801 181.848C407.474 179.122 413.48 176.612 419.67 173.735C421.446 172.905 423.243 172.043 425.073 171.085C425.988 170.611 426.914 170.104 427.851 169.576L429.401 168.66C430.219 168.165 430.94 167.658 431.704 167.141C434.686 165.051 437.302 162.551 438.841 159.696C440.413 156.895 440.972 153.533 440.305 150.333C439.605 147.176 437.851 144.386 435.257 142.08C433.986 140.906 432.49 139.882 430.94 138.945C430.176 138.449 429.325 138.072 428.529 137.63C428.131 137.415 427.7 137.189 427.345 137.038L426.548 136.672C422.479 134.851 418.593 133.579 414.729 132.459C403.211 129.173 391.93 127.136 380.627 125.294L380.261 125.24L374.685 124.367C373.06 124.13 371.467 124.141 369.906 124.68C366.052 126.016 363.663 129.97 364.158 133.967C364.632 137.814 367.635 140.906 371.37 141.563L372.35 141.703L377.624 142.533L379.766 142.878C385.525 143.815 391.241 144.86 396.86 146.056C402.479 147.252 408.023 148.609 413.2 150.29C414.847 150.818 416.419 151.4 417.926 152.003L419.024 152.467L419.971 152.908C420.068 152.962 420.1 152.984 420.154 153.027C420.348 153.156 420.563 153.393 420.412 153.62C420.348 153.716 420.24 153.792 420.154 153.846L418.443 154.815C415.558 156.399 412.264 157.918 408.905 159.438C403.243 161.991 397.301 164.512 391.295 167.54C388.292 169.059 385.256 170.697 382.21 172.658C379.163 174.64 376.063 176.87 373.082 180.081C371.381 181.924 369.691 184.186 368.41 187.009C367.786 188.442 367.258 189.993 366.946 191.653C366.655 193.312 366.526 195.025 366.655 196.706C366.677 197.029 366.688 197.352 366.741 197.665C367.021 200.207 367.753 202.599 368.744 204.636C369.734 206.683 370.972 208.396 372.328 209.743C372.888 210.303 373.727 211.089 374.599 211.617C375.471 212.135 376.354 212.425 377 212.113C378.647 211.316 376.688 208.536 376.085 207.351L375.676 208.31C375.827 208.32 375.977 208.31 376.117 208.299L375.45 207.997C376.741 209.624 378.324 211.036 380.025 211.908C380.778 212.285 381.93 212.77 382.619 212.242C383.566 211.52 382.942 210.271 382.059 209.042C381.166 207.825 380.025 206.586 379.648 206.101L379.519 207.125L379.551 207.103L378.765 206.952C379.228 207.459 380.38 208.611 381.628 209.344C382.877 210.087 384.18 210.421 384.815 209.57C385.299 208.924 384.922 208.094 384.61 207.491C383.889 206.133 382.834 204.97 381.919 203.838L381.973 204.571L382.005 204.517L381.026 204.646C381.37 205.002 382.49 206.026 383.652 206.586C384.826 207.157 385.988 207.275 386.333 206.123C386.58 205.314 386.042 204.442 385.697 203.849C385.374 203.289 385.008 202.782 384.653 202.298C384.438 202.018 384.255 201.737 384.04 201.468L383.674 200.983C383.448 200.682 383.426 200.66 383.588 200.908L382.522 201.328C383.297 202.158 384.492 203.354 385.816 203.461C386.612 203.526 387.14 202.89 387.043 202.136C386.925 201.08 386.214 200.197 385.816 199.496C385.493 198.915 385.17 198.343 384.847 197.772C384.589 197.266 384.384 196.814 384.255 196.426C384.18 196.156 382.963 196.523 383.071 196.889Z" fill="black"/>
<path d="M286.246 14.5236C281.402 18.8441 276.558 23.1646 271.725 27.4851C271.046 28.0884 270.368 28.6918 269.69 29.2952C269.077 29.8339 269.981 30.7281 270.584 30.1894C275.427 25.8689 280.271 21.5485 285.105 17.228C285.783 16.6246 286.461 16.0213 287.139 15.4179C287.753 14.8684 286.848 13.9741 286.246 14.5236Z" fill="black"/>
<path d="M276.547 7.21859C273.199 12.7566 269.852 18.2945 266.515 23.8325C266.03 24.6298 265.557 25.4271 265.072 26.2136C264.652 26.9139 265.74 27.5496 266.159 26.8493C269.507 21.3113 272.855 15.7734 276.192 10.2354C276.676 9.43809 277.15 8.64079 277.634 7.85427C278.065 7.15394 276.967 6.51826 276.547 7.21859Z" fill="black"/>
<path d="M264.028 3.38306C262.478 9.68601 260.928 15.9782 259.378 22.2811C259.163 23.1646 258.937 24.0481 258.721 24.9424C258.528 25.7289 259.744 26.0737 259.938 25.2764C261.488 18.9734 263.038 12.6813 264.588 6.37831C264.803 5.49482 265.029 4.61133 265.244 3.71706C265.438 2.93054 264.222 2.59654 264.028 3.38306Z" fill="black"/>
<path d="M245.029 0.786423C246.364 7.12169 247.709 13.457 249.044 19.803C249.238 20.708 249.421 21.6131 249.614 22.5073C249.787 23.3046 251.003 22.9706 250.831 22.1733C249.496 15.8381 248.151 9.50281 246.816 3.15676C246.622 2.25172 246.439 1.34669 246.245 0.452421C246.084 -0.344875 244.867 -9.84872e-05 245.029 0.786423Z" fill="black"/>
<path d="M229.765 6.69075C232.908 12.3472 236.052 18.0145 239.195 23.671C239.647 24.4791 240.088 25.2871 240.54 26.0952C240.939 26.8063 242.026 26.1706 241.627 25.4595C238.484 19.803 235.341 14.1358 232.198 8.47928C231.746 7.67121 231.304 6.86314 230.852 6.05507C230.465 5.34396 229.367 5.97965 229.765 6.69075Z" fill="black"/>
<path d="M220.228 15.6657C224.91 20.137 229.593 24.5975 234.275 29.0689C234.943 29.7045 235.61 30.351 236.288 30.9867C236.88 31.5469 237.774 30.6527 237.182 30.0924C232.499 25.6211 227.817 21.1605 223.134 16.6892C222.467 16.0535 221.8 15.4071 221.121 14.7714C220.529 14.2111 219.636 15.1054 220.228 15.6657Z" fill="black"/>
<path d="M131.971 199.442C131.971 199.453 131.971 199.453 131.971 199.453C131.745 200.541 131.433 201.64 131.034 202.675C129.355 206.855 126.912 209.322 125.168 210.788C123.37 212.231 122.111 212.705 121.809 212.371C121.379 211.843 123.015 209.915 125.232 206.575C125.157 206.586 125.071 206.607 124.974 206.629L124.909 206.715C123.338 208.74 121.605 210.066 120.259 210.798C118.903 211.531 117.913 211.682 117.6 211.283C117.073 210.583 118.623 208.6 120.744 205.993C120.722 205.982 120.69 205.971 120.668 205.961C117.923 208.784 115.006 209.742 114.479 208.988C113.919 208.213 115.684 206.101 117.816 203.644C117.805 203.633 117.794 203.623 117.783 203.612C115.437 205.928 112.789 206.758 112.261 206.004C111.626 205.163 113.618 202.825 115.555 200.552L115.717 200.369C115.641 200.24 115.588 200.099 115.523 199.97C114.22 200.908 112.95 201.134 112.423 200.584C111.992 200.143 112.111 199.281 112.401 198.365C112.681 197.46 113.058 196.501 113.262 196.059C113.338 195.919 113.392 195.833 113.478 195.757C113.435 195.714 113.467 195.66 113.456 195.639C113.489 195.456 113.521 195.38 113.23 194.734C112.907 194.098 112.132 193.085 111.013 192.051C109.915 191.006 108.483 189.929 106.933 188.883C103.801 186.782 100.141 184.822 96.3194 182.947C92.4873 181.061 88.4721 179.241 84.3494 177.344C82.2826 176.396 80.1944 175.426 78.0738 174.392C77.0081 173.875 75.9424 173.347 74.8552 172.776L73.2191 171.914L71.9273 171.214L70.5603 170.416C66.9004 168.305 63.5634 165.762 61.2922 162.864C60.1619 161.409 59.29 159.879 58.6979 158.252C58.0844 156.636 57.8045 154.858 57.8476 153.048C57.8368 152.596 57.9444 152.143 57.9875 151.701C58.0521 151.26 58.0844 150.807 58.2136 150.376C58.4181 149.504 58.7087 148.685 59.0747 147.887C59.7959 146.304 60.7862 144.849 62.0026 143.502C63.1974 142.145 64.769 140.96 66.3729 139.828C67.2341 139.3 68.0845 138.772 68.9779 138.277C69.9036 137.813 70.7971 137.318 71.7551 136.898L74.6399 135.659L76.7175 134.872C77.9016 134.463 79.0856 134.053 80.2482 133.698C82.5841 132.965 84.8984 132.308 87.202 131.726C91.7983 130.552 96.3517 129.571 100.883 128.698C108.548 127.244 116.169 126.069 123.779 125.024C129.065 124.421 133.747 128.224 134.264 133.428C134.78 138.643 131.045 143.265 125.954 143.858C118.752 144.849 111.594 145.959 104.565 147.295C100.302 148.114 96.0825 149.019 92.0029 150.064C89.9576 150.581 87.9555 151.141 86.0286 151.745C85.0598 152.046 84.1233 152.369 83.1868 152.682L81.9705 153.124C81.7552 153.199 81.5399 153.296 81.3354 153.415C81.1416 153.544 80.9263 153.716 80.9048 153.964C80.9156 154.47 81.4215 154.751 81.8198 155.031L81.9059 155.085L81.9382 155.095L81.9489 155.106L82.0996 155.192L83.4452 155.903C84.3494 156.378 85.2967 156.841 86.2439 157.304C88.16 158.231 90.1299 159.157 92.1428 160.084C96.1687 161.937 100.334 163.823 104.554 165.891C108.774 167.971 113.047 170.212 117.353 173.078C119.506 174.532 121.669 176.116 123.812 178.109C125.932 180.092 128.106 182.473 129.861 185.705C130.776 187.407 131.54 189.379 131.982 191.502C132.423 193.635 132.498 195.876 132.229 198.031C132.175 198.494 132.089 198.968 131.971 199.442Z" fill="white"/>
<path d="M131.25 199.302C130.679 201.953 129.603 204.302 128.322 206.219C127.03 208.148 125.523 209.667 123.908 210.798C123.478 211.111 122.929 211.305 122.52 211.585C122.563 211.553 122.197 211.714 122.218 211.66C122.423 211.703 122.541 211.811 122.574 211.984C122.617 211.876 122.66 211.757 122.714 211.65C123.166 211.24 123.51 210.367 123.876 209.85C124.511 208.924 125.189 208.008 125.825 207.006C126.309 206.241 125.889 205.584 125.179 205.724C124.135 205.961 123.209 207.609 122.434 208.31C121.39 209.258 120.173 210.152 118.925 210.572C118.731 210.637 118.537 210.669 118.343 210.712C118.128 210.766 118.203 210.594 118.257 210.831C118.225 210.669 118.559 210.13 118.666 209.947C119.398 208.719 120.389 207.609 121.303 206.456C121.626 206.058 121.562 205.444 121.088 205.26L121.013 205.228C120.69 205.11 120.356 205.207 120.109 205.454C119.161 206.424 118.106 207.264 116.944 207.868C116.546 208.073 116.126 208.266 115.695 208.374C115.405 208.45 115.006 208.353 115.103 208.579C114.996 208.277 115.771 207.286 115.975 207.006C116.718 205.972 117.568 205.045 118.376 204.097C118.559 203.881 118.612 203.483 118.397 203.235L118.365 203.203C118.031 202.826 117.558 202.772 117.224 203.084C116.287 204 115.168 204.84 113.887 205.293C113.532 205.422 113.155 205.53 112.767 205.498C112.853 205.508 112.778 205.788 112.843 205.53C112.875 205.39 112.929 205.25 112.983 205.12C113.446 204.054 114.274 203.17 114.931 202.373C115.34 201.888 115.76 201.436 116.126 200.962C116.47 200.52 116.373 200.347 116.072 199.776C115.878 199.399 115.254 199.227 115.017 199.388C114.77 199.572 113.381 200.584 112.81 200.164C112.66 200.035 112.886 199.195 112.918 199.011C113.133 198.214 113.37 197.568 113.585 197.061C113.79 196.555 113.951 196.221 114.091 195.984C114.221 195.801 114.167 195.661 114.199 195.531C114.199 195.262 114.188 194.993 113.865 194.325C113.812 194.238 113.768 194.152 113.715 194.055C113.09 192.989 111.691 191.491 109.915 190.09C108.117 188.679 105.986 187.289 103.715 185.975C99.1397 183.335 94.0374 180.943 88.7952 178.53C85.3829 176.956 81.8844 175.383 78.3107 173.638L75.6088 172.291L74.274 171.612L72.5517 170.686C69.5377 169.016 66.6529 167.13 64.2847 164.965C61.9596 162.778 60.2266 160.375 59.3116 157.681C58.3428 155.031 58.3751 151.788 59.3977 149.105C60.4203 146.422 62.1641 144.106 64.5754 142.123C66.9543 140.119 69.936 138.492 73.0577 137.135C73.9511 136.758 74.9091 136.327 75.7595 136.025C76.3408 135.81 76.9221 135.583 77.4926 135.389C78.6444 134.98 79.7854 134.614 80.9264 134.258C83.1977 133.568 85.4582 132.922 87.6972 132.362C92.1859 131.22 96.6316 130.272 101.067 129.41C104.436 128.774 107.794 128.181 111.153 127.643C114.317 127.125 117.482 126.651 120.636 126.199C122.035 126.005 123.489 125.682 124.91 125.682C129.258 125.682 132.972 128.979 133.543 133.213C134.113 137.458 131.422 141.606 127.375 142.802C125.911 143.233 124.264 143.33 122.767 143.535C116.61 144.418 110.496 145.399 104.457 146.541C102.778 146.875 101.099 147.198 99.4411 147.553C95.9534 148.297 92.5196 149.105 89.1934 150.021C87.525 150.473 85.9103 150.969 84.3279 151.497C83.5529 151.766 82.7671 152.025 82.0244 152.316L81.5292 152.499C80.9695 152.747 80.3021 153.016 79.9792 153.598C79.8177 153.9 79.9038 154.255 80.0976 154.514C80.2806 154.783 80.5389 154.988 80.808 155.192C81.0556 155.376 81.3462 155.559 81.6046 155.71L81.6369 155.731L81.8952 155.871L82.4227 156.151L83.4991 156.712L85.7165 157.821C88.7306 159.297 91.9061 160.741 95.1246 162.217C101.583 165.202 108.246 168.219 114.953 172.345C117.418 173.886 119.893 175.577 122.348 177.711C124.77 179.833 127.267 182.376 129.248 186.018C130.033 187.494 130.701 189.131 131.142 190.92C131.594 192.708 131.756 194.616 131.648 196.469C131.616 197.471 131.454 198.365 131.25 199.302C130.798 200.832 132.208 201.263 132.703 199.593C133.381 196.954 133.306 193.969 132.724 191.265C132.272 189.088 131.476 187.084 130.55 185.35C128.29 181.234 125.491 178.486 122.821 176.202C119.474 173.401 116.147 171.311 112.853 169.414C109.57 167.54 106.309 165.902 103.101 164.351C96.707 161.269 90.356 158.554 84.6939 155.699C83.8974 155.3 83.1223 154.891 82.3796 154.492C82.315 154.449 82.2935 154.438 82.2612 154.406C82.1966 154.352 82.132 154.298 82.089 154.244C81.9706 154.137 81.9921 153.943 82.1535 153.867C82.2181 153.824 82.2827 153.803 82.3473 153.781L82.4442 153.759C82.4657 153.749 82.455 153.759 82.5088 153.749L83.5529 153.361C86.7176 152.251 90.1407 151.271 93.6714 150.409C97.2882 149.525 101.002 148.739 104.759 148.017C110.141 147.004 115.598 146.11 121.088 145.302L125.986 144.601C128.548 144.257 130.851 143.114 132.585 141.132C135.243 138.083 135.878 133.493 134.048 129.851C132.251 126.253 128.408 124.022 124.318 124.238C123.812 124.27 123.327 124.346 122.821 124.41L115.824 125.423C110.819 126.177 105.814 127.018 100.776 127.966C94.834 129.119 88.8813 130.412 82.8102 132.146C80.7757 132.739 78.7305 133.375 76.6422 134.118L74.9845 134.732C74.1449 135.034 73.2514 135.443 72.3903 135.81C71.5184 136.176 70.6572 136.553 69.8391 136.995C69.0103 137.426 68.1599 137.824 67.4064 138.32C61.0447 142.048 56.9327 147.306 57.148 154.018C57.2341 157.272 58.4074 160.159 60.3234 162.799C62.2395 165.45 65.0813 167.82 68.2675 169.856C69.0533 170.373 69.8822 170.858 70.7003 171.332C71.1093 171.58 71.5184 171.806 71.9489 172.043L73.0038 172.614C73.9619 173.121 74.9199 173.627 75.8564 174.091C77.7402 175.039 79.5809 175.911 81.4 176.763C87.4066 179.564 93.2085 182.107 98.5584 184.865C101.228 186.233 103.768 187.655 106.029 189.142C108.279 190.607 110.27 192.181 111.476 193.538C112.035 194.163 112.412 194.712 112.595 195.068C112.8 195.456 112.757 195.553 112.757 195.553C112.746 195.564 112.757 195.564 112.735 195.564C112.714 195.585 112.649 195.693 112.477 196.102C112.294 196.512 112.025 197.18 111.756 198.139C111.616 198.764 111.174 199.97 112.057 200.951C113.252 202.276 115.265 201.091 116.029 200.498L114.974 200.089C115.028 200.229 115.092 200.358 115.168 200.498L115.157 199.906C114.264 200.918 113.23 202.093 112.315 203.461C111.895 204.118 111.174 205.164 111.605 206.144C112.154 207.394 113.639 207.211 115.103 206.5C116.578 205.799 117.913 204.549 118.365 204.086C117.977 204.054 117.611 204.011 117.224 203.957L117.245 203.989C117.267 203.709 117.267 203.429 117.267 203.149C116.287 204.312 115.136 205.508 114.285 206.909C113.876 207.598 113.316 208.622 113.908 209.43C114.479 210.206 115.641 209.99 116.449 209.721C118.236 209.139 119.872 207.879 121.25 206.446C120.938 206.521 120.636 206.607 120.335 206.672L120.41 206.704C120.356 206.306 120.281 205.907 120.206 205.519C119.829 206.025 118.591 207.469 117.644 208.816C116.718 210.174 116.115 211.52 117.471 212.156C118.419 212.587 119.796 211.951 120.733 211.413C122.509 210.421 124.188 208.934 125.588 207.081C125.394 207.232 125.2 207.361 125.006 207.491L125.265 207.448C125.071 207.017 124.856 206.586 124.64 206.166C123.532 207.954 121.691 209.85 121.056 211.682C120.658 212.835 121.411 213.535 122.584 213.212C124.242 212.759 125.943 211.262 127.332 209.796C129.657 207.383 131.734 203.946 132.703 199.604C133.015 197.794 131.53 197.686 131.25 199.302Z" fill="black"/>
<path d="M108.246 127.373L109.463 143.912L109.646 146.293C109.721 147.241 111.131 146.972 111.056 146.034L109.883 129.496L109.721 127.115C109.667 126.167 108.182 126.436 108.246 127.373Z" fill="black"/>
<path d="M342.683 107.99C343.534 108.033 344.427 107.893 345.245 107.689C346.946 107.268 348.528 106.374 349.626 104.984C349.895 104.64 349.411 104.144 349.142 104.5C347.646 106.385 345.084 107.419 342.694 107.301C342.242 107.279 342.242 107.969 342.683 107.99Z" fill="black"/>
</g>
<defs>
<clipPath id="clip0_150_192">
<rect width="516" height="408" fill="white"/>
</clipPath>
</defs>
</svg>
