<svg width="294" height="192" viewBox="0 0 294 192" fill="none" xmlns="http://www.w3.org/2000/svg">
<g clip-path="url(#clip0_150_813)">
<path d="M191.116 127.168L28.0358 152.153C25.9472 152.473 23.9759 151.023 23.6562 148.932L9.66481 57.3856C9.34513 55.2946 10.7943 53.3209 12.8829 53.0009L175.974 28.0154C178.062 27.6953 180.033 29.1462 180.353 31.2373L194.345 122.783C194.654 124.874 193.204 126.848 191.116 127.168Z" fill="#333333"/>
<path d="M190.988 126.666C187.471 127.2 183.965 127.744 180.449 128.277C171.53 129.643 162.611 131.009 153.681 132.374C141.821 134.188 129.971 136.001 118.111 137.826C105.708 139.725 93.2932 141.624 80.8896 143.523C70.2975 145.144 59.7161 146.766 49.124 148.387C42.8369 149.348 36.5605 150.308 30.2734 151.279C28.6218 151.535 26.8102 152.089 25.361 150.916C23.8052 149.646 23.8159 146.595 23.5388 144.76C22.079 135.233 20.6297 125.696 19.1699 116.169C17.2944 103.921 15.4296 91.6846 13.5541 79.4373C12.4566 72.2254 11.3483 65.0029 10.2508 57.791C9.94173 55.7853 10.8581 53.929 13.0213 53.5023C13.2664 53.4489 13.5222 53.4276 13.7779 53.3849C15.6001 53.1076 17.4116 52.8302 19.2338 52.5528C27.066 51.3579 34.8982 50.1524 42.7197 48.9575C54.079 47.2186 65.4277 45.4796 76.787 43.7407C89.2866 41.831 101.775 39.9107 114.275 38.001C125.538 36.2727 136.802 34.5551 148.065 32.8268C155.631 31.664 163.186 30.5118 170.752 29.3489C172.382 29.1036 174.002 28.8368 175.632 28.6021C176.858 28.4208 178.062 28.5915 178.978 29.5623C179.735 30.3731 179.842 31.3333 180.001 32.3468C181.174 40.0387 182.356 47.7307 183.529 55.4333C185.404 67.7233 187.29 80.024 189.166 92.3141C190.562 101.446 191.957 110.589 193.353 119.721C193.748 122.356 194.76 125.898 190.988 126.666C190.338 126.795 190.615 127.797 191.265 127.669C193.78 127.157 195.154 124.938 194.813 122.452C194.707 121.727 194.589 121.002 194.483 120.276C193.95 116.766 193.407 113.256 192.874 109.746C191.084 98.043 189.293 86.3398 187.503 74.6365C185.777 63.3706 184.061 52.1047 182.335 40.8495C181.888 37.9477 181.451 35.0352 181.003 32.1334C180.886 31.3866 180.811 30.6398 180.481 29.9464C179.586 28.0794 177.636 27.2792 175.664 27.5566C171.253 28.1754 166.863 28.9009 162.462 29.5836C152.839 31.0559 143.217 32.5281 133.594 34.0004C121.244 35.8887 108.883 37.7877 96.5327 39.676C84.0651 41.5856 71.6082 43.4953 59.1406 45.4049C49.06 46.9412 38.9794 48.4881 28.8988 50.035C23.7413 50.8245 18.5731 51.614 13.4156 52.4034C10.677 52.8195 8.78022 54.8252 9.19581 57.7483C9.51549 59.9994 9.87779 62.2397 10.2294 64.4801C11.8492 75.0952 13.4795 85.721 15.0992 96.3361C16.9427 108.413 18.7969 120.5 20.6404 132.577C21.2584 136.652 21.8871 140.717 22.5052 144.792C22.7716 146.542 22.7716 148.964 23.688 150.542C25.1053 152.964 27.5135 152.74 29.8152 152.388C32.0743 152.047 34.344 151.695 36.6031 151.353C45.1919 150.041 53.77 148.718 62.3588 147.406C74.2509 145.582 86.143 143.768 98.0245 141.944C110.684 140.002 123.343 138.06 136.013 136.129C146.914 134.454 157.816 132.79 168.717 131.115C175.334 130.102 181.962 129.088 188.579 128.075C189.475 127.936 190.359 127.797 191.254 127.669C191.915 127.573 191.638 126.57 190.988 126.666Z" fill="black"/>
<path d="M186.672 122.559L30.9022 146.414C28.9628 146.712 27.1299 145.368 26.8316 143.416L14.1509 60.4261C13.8525 58.4844 15.1952 56.6494 17.1452 56.3507L172.926 32.4854C174.865 32.1867 176.698 33.5309 176.996 35.4832L189.677 118.473C189.965 120.425 188.622 122.26 186.672 122.559Z" fill="white"/>
<path d="M186.534 122.058C183.294 122.548 180.065 123.05 176.826 123.541C168.578 124.799 160.33 126.069 152.083 127.328C141.011 129.024 129.95 130.72 118.878 132.417C107.221 134.198 95.563 135.991 83.9053 137.772C73.7821 139.319 63.6589 140.877 53.5356 142.424C47.0994 143.405 40.6632 144.397 34.2376 145.379C33.108 145.55 31.9678 145.784 30.8383 145.902C27.6202 146.232 27.3325 143.352 26.9915 141.08C25.7234 132.758 24.4447 124.447 23.1766 116.126C21.429 104.668 19.6814 93.2209 17.9232 81.763C16.8576 74.7858 15.792 67.8086 14.7264 60.8315C14.4387 58.9645 15.2698 57.2682 17.2732 56.8415C17.5076 56.7881 17.742 56.7668 17.9765 56.7348C19.6388 56.4787 21.3011 56.2227 22.9635 55.9667C30.1883 54.8571 37.4131 53.7583 44.6379 52.6488C55.2193 51.0272 65.8007 49.4056 76.3822 47.784C88.1358 45.981 99.8787 44.1887 111.632 42.3857C122.32 40.7428 133.019 39.1105 143.707 37.4676C151.241 36.3154 158.775 35.1632 166.298 34.011C168.173 33.723 170.059 33.4349 171.935 33.1469C174.013 32.8268 176.069 33.2322 176.506 35.7926C177.583 42.1404 178.456 48.5308 179.426 54.8998C181.174 66.3257 182.921 77.7623 184.669 89.1882C186.011 97.9577 187.354 106.727 188.686 115.497C189.07 117.972 190.061 121.332 186.534 122.058C185.884 122.196 186.161 123.189 186.811 123.061C189.166 122.58 190.466 120.5 190.135 118.174C190.039 117.47 189.922 116.755 189.816 116.051C189.304 112.669 188.782 109.298 188.271 105.916C186.576 94.8211 184.882 83.7366 183.188 72.6414C181.632 62.4637 180.076 52.2967 178.52 42.119C178.19 39.9427 177.881 37.7663 177.519 35.5899C177.06 32.8375 174.727 31.6853 172.18 32.08C167.449 32.8055 162.717 33.5309 157.997 34.2564C148.673 35.6859 139.349 37.1155 130.035 38.5451C118.367 40.3374 106.699 42.119 95.0196 43.9113C83.3832 45.6929 71.7362 47.4746 60.0998 49.2562C50.7118 50.6964 41.3238 52.1367 31.9359 53.5663C27.162 54.2917 22.3987 55.0278 17.6248 55.7533C15.0567 56.148 13.2878 58.0257 13.6714 60.7675C13.9698 62.9118 14.3214 65.0455 14.6518 67.1899C16.1969 77.2822 17.742 87.3746 19.2765 97.4669C20.9815 108.626 22.6864 119.785 24.3914 130.934C24.9135 134.348 25.4357 137.751 25.9578 141.165C26.0644 141.89 26.1709 142.616 26.2882 143.341C26.6505 145.507 28.4513 147.139 30.7104 146.947C34.099 146.67 37.509 145.912 40.8763 145.4C49.3052 144.109 57.7235 142.818 66.1524 141.528C77.4371 139.799 88.7112 138.071 99.9959 136.343C111.845 134.529 123.695 132.715 135.544 130.902C145.7 129.344 155.866 127.787 166.021 126.229C172.127 125.29 178.222 124.362 184.328 123.423C185.159 123.295 185.99 123.167 186.821 123.039C187.471 122.954 187.194 121.951 186.534 122.058Z" fill="black"/>
<path d="M291.389 161.499L96.7775 191.307C94.3372 191.669 91.0125 191.179 89.4035 190.218L28.2378 153.69C27.0657 152.996 27.7903 152.185 29.8362 151.865L192.927 126.88C195.058 126.549 198.244 126.784 200.013 127.403L291.57 159.237C294.031 160.101 293.957 161.115 291.389 161.499Z" fill="#333333"/>
<path d="M291.229 160.901C288.075 161.382 284.91 161.872 281.756 162.352C273.519 163.611 265.282 164.881 257.034 166.14C245.568 167.9 234.091 169.65 222.625 171.41C209.774 173.384 196.923 175.347 184.072 177.32C171.69 179.219 159.307 181.118 146.925 183.006C136.855 184.553 126.796 186.09 116.726 187.637C110.833 188.543 104.93 189.44 99.0368 190.346C98.0351 190.496 97.0334 190.698 96.0211 190.773C93.6981 190.954 91.2472 190.613 89.2332 189.408C88.2422 188.821 87.2512 188.223 86.2602 187.637C76.8402 182.004 67.4096 176.381 57.9897 170.748C48.9747 165.372 39.9703 159.984 30.9553 154.607C30.316 154.223 29.1758 153.818 28.6856 153.252C28.6536 153.22 28.579 153.21 28.5577 153.178C28.2807 152.687 29.5914 152.559 30.007 152.484C30.0922 152.473 30.1668 152.463 30.252 152.452C31.7545 152.207 33.2677 151.993 34.7702 151.759C42.3893 150.596 50.019 149.422 57.6381 148.259C69.2531 146.478 80.8682 144.707 92.4833 142.925C105.366 140.951 118.25 138.978 131.122 137.004C142.663 135.233 154.214 133.462 165.754 131.702C173.32 130.539 180.896 129.387 188.462 128.224C189.933 128 191.403 127.755 192.874 127.552C195.698 127.147 198.436 127.552 201.09 128.469C208.847 131.169 216.615 133.868 224.373 136.567C236.446 140.759 248.52 144.963 260.593 149.156C269.682 152.313 278.783 155.482 287.872 158.64C288.799 158.96 289.727 159.28 290.654 159.611C290.867 159.685 291.08 159.76 291.293 159.835C291.325 159.845 291.368 159.856 291.399 159.867C291.698 159.973 292.124 160.091 292.38 160.304C292.923 160.763 292.678 160.421 292.412 160.656C292.177 160.827 291.506 160.848 291.229 160.901C290.44 161.04 290.781 162.235 291.559 162.096C292.678 161.904 294.937 161.104 293.573 159.632C293.072 159.088 292.273 158.842 291.602 158.597C290.941 158.362 290.27 158.138 289.609 157.904C286.285 156.741 282.949 155.589 279.625 154.426C268.233 150.468 256.842 146.51 245.451 142.541C234.187 138.626 222.934 134.71 211.671 130.795C208.453 129.675 205.235 128.555 202.017 127.435C198.99 126.378 195.975 125.802 192.725 126.272C188.526 126.88 184.338 127.552 180.14 128.203C170.304 129.707 160.469 131.211 150.633 132.726C137.974 134.668 125.325 136.599 112.666 138.54C99.9105 140.493 87.1553 142.445 74.3893 144.397C64.2554 145.955 54.1109 147.502 43.977 149.059C39.2777 149.774 34.5677 150.457 29.8684 151.225C28.7815 151.396 26.1282 152.132 27.3429 153.722C27.7479 154.244 28.611 154.618 29.1651 154.948C32.4365 156.901 35.7079 158.853 38.9793 160.805C49.7846 167.26 60.5791 173.704 71.3843 180.158C75.7533 182.772 80.1329 185.386 84.5019 187.989C86.6225 189.258 88.8389 190.954 91.2685 191.563C95.6268 192.651 100.55 191.328 104.898 190.656C112.9 189.429 120.903 188.202 128.906 186.975C140.372 185.215 151.827 183.465 163.293 181.705C176.336 179.71 189.368 177.715 202.411 175.709C215.049 173.778 227.687 171.837 240.325 169.906C250.587 168.337 260.859 166.758 271.121 165.19C277.142 164.273 283.162 163.345 289.172 162.427C289.972 162.31 290.76 162.182 291.559 162.064C292.348 161.979 292.007 160.773 291.229 160.901Z" fill="black"/>
<path d="M225.716 165.969L143.228 178.6C142.194 178.75 140.787 178.547 140.105 178.142L114.179 162.662C113.689 162.374 113.987 162.022 114.861 161.894L183.987 151.3C184.893 151.161 186.246 151.257 186.992 151.524L225.801 165.02C226.835 165.382 226.803 165.809 225.716 165.969Z" fill="#1A1A1A"/>
<path d="M225.641 165.713C220.846 166.449 216.04 167.185 211.245 167.921C200.983 169.49 190.722 171.069 180.46 172.637C170.944 174.098 161.428 175.549 151.902 177.011C149.355 177.406 146.797 177.79 144.251 178.184C143.888 178.238 143.526 178.312 143.153 178.355C141.352 178.558 140.233 177.928 138.827 177.086C131.016 172.423 123.205 167.751 115.394 163.089C114.733 162.694 113.785 162.416 115.042 162.128C115.682 161.979 116.364 161.926 117.014 161.83C120.253 161.339 123.493 160.838 126.732 160.347C137.058 158.768 147.383 157.178 157.709 155.599C165.808 154.362 173.917 153.114 182.016 151.876C183.88 151.588 185.585 151.321 187.45 151.972C190.711 153.103 193.982 154.244 197.243 155.375C206.205 158.49 215.156 161.606 224.118 164.721C224.522 164.86 224.959 164.977 225.354 165.148C225.641 165.265 226.579 165.521 225.641 165.713C225.311 165.777 225.45 166.289 225.78 166.225C226.654 166.044 227.229 165.478 226.238 164.924C225.972 164.774 225.641 164.689 225.364 164.593C224.128 164.155 222.881 163.729 221.645 163.302C216.914 161.659 212.183 160.016 207.462 158.373C202.528 156.655 197.595 154.938 192.65 153.22C189.976 152.292 186.885 150.692 183.976 151.044C178.265 151.737 172.564 152.794 166.873 153.658C155.972 155.333 145.06 156.997 134.159 158.672C127.744 159.653 121.244 160.389 114.872 161.627C113.902 161.819 113.252 162.352 114.222 163.003C115.383 163.782 116.63 164.443 117.834 165.158C122.384 167.879 126.935 170.599 131.495 173.32C134.298 174.995 137.068 176.883 139.967 178.376C141.853 179.347 144.112 178.739 146.105 178.43C154.267 177.182 162.419 175.933 170.582 174.685C181.6 173 192.608 171.314 203.626 169.628C210.659 168.551 217.703 167.473 224.736 166.396C225.087 166.342 225.439 166.289 225.801 166.236C226.121 166.172 225.982 165.66 225.641 165.713Z" fill="black"/>
<path d="M189.006 129.91L37.296 153.146C36.0066 153.348 34.7812 152.441 34.5894 151.151C34.3869 149.86 35.2927 148.633 36.582 148.441L188.292 125.205C189.581 125.002 190.807 125.909 190.999 127.2C191.201 128.491 190.295 129.707 189.006 129.91Z" fill="#666666"/>
<path d="M188.868 129.408C183.721 130.198 178.574 130.987 173.427 131.777C161.109 133.665 148.79 135.553 136.472 137.442C121.671 139.703 106.869 141.976 92.0788 144.237C79.4834 146.168 66.8986 148.099 54.3032 150.02C50.2858 150.638 46.2578 151.247 42.2405 151.865C40.5888 152.121 38.8839 152.537 37.2109 152.633C34.8026 152.772 34.3124 149.529 36.71 148.932C36.8059 148.91 36.9018 148.899 36.9978 148.889C37.7117 148.771 38.4363 148.665 39.1503 148.558C42.3684 148.067 45.5972 147.577 48.8153 147.075C60.505 145.283 72.1946 143.491 83.8843 141.698C98.6749 139.437 113.465 137.164 128.256 134.902C141.363 132.897 154.459 130.891 167.566 128.885C174.333 127.851 181.11 126.816 187.877 125.77C188.036 125.749 188.207 125.706 188.367 125.696C190.807 125.568 191.286 128.853 188.868 129.408C188.218 129.558 188.495 130.56 189.145 130.411C192.821 129.568 191.841 124.245 188.1 124.714C187.568 124.778 187.035 124.874 186.513 124.959C183.465 125.429 180.417 125.888 177.37 126.357C165.563 128.16 153.756 129.974 141.96 131.777C126.839 134.092 111.729 136.407 96.6076 138.722C83.2236 140.77 69.8396 142.818 56.4557 144.867C49.8702 145.88 43.2635 146.755 36.6994 147.897C34.5788 148.259 33.2255 150.564 34.5895 152.473C35.442 153.668 36.742 153.754 38.042 153.551C40.4716 153.178 42.8905 152.804 45.3201 152.431C56.3278 150.745 67.3248 149.06 78.3325 147.374C93.3469 145.07 108.372 142.776 123.386 140.471C137.292 138.338 151.188 136.215 165.094 134.081C172.745 132.907 180.407 131.734 188.058 130.56C188.42 130.507 188.782 130.454 189.145 130.39C189.805 130.304 189.528 129.302 188.868 129.408Z" fill="black"/>
<path d="M167.609 62.8905L265.176 64.1814L250.14 85.8063L289.141 100.326L285.944 107.282L246.655 93.2956L242.297 114.376L167.609 62.8905Z" fill="white"/>
<path d="M167.609 63.4132C170.848 63.4559 174.088 63.4986 177.338 63.5413C185.074 63.648 192.821 63.744 200.557 63.8507C209.967 63.9787 219.376 64.096 228.774 64.2241C236.905 64.3307 245.036 64.4374 253.177 64.5441C255.841 64.5761 258.515 64.6188 261.179 64.6508C262.021 64.6615 262.863 64.6721 263.694 64.6828C264.046 64.6828 264.664 64.8215 264.994 64.7041C265.037 64.6935 265.122 64.7041 265.165 64.7041C265.016 64.4481 264.866 64.1814 264.717 63.9253C260.338 70.2304 255.947 76.5354 251.568 82.8298C250.939 83.7366 250.31 84.6328 249.682 85.5396C249.479 85.8383 249.703 86.1904 249.991 86.2971C261.361 90.5324 272.741 94.7678 284.111 99.0032C285.742 99.6113 287.372 100.219 288.992 100.817C288.885 100.561 288.789 100.305 288.683 100.059C287.617 102.374 286.551 104.689 285.486 107.015C285.678 106.94 285.88 106.855 286.072 106.78C274.617 102.705 263.161 98.6298 251.696 94.5544C250.055 93.9677 248.413 93.3916 246.772 92.8048C246.517 92.7195 246.186 92.9115 246.133 93.1675C244.673 100.198 243.224 107.218 241.764 114.248C242.02 114.142 242.276 114.046 242.521 113.939C234.07 108.114 225.61 102.278 217.159 96.4534C203.786 87.2359 190.413 78.0184 177.039 68.7901C173.981 66.6778 170.912 64.5654 167.854 62.4531C167.3 62.069 166.788 62.9758 167.332 63.3492C175.782 69.1742 184.243 75.0098 192.693 80.8348C206.066 90.0524 219.44 99.2699 232.813 108.498C235.871 110.61 238.94 112.723 241.999 114.835C242.265 115.017 242.691 114.835 242.755 114.526C244.215 107.495 245.664 100.475 247.124 93.4449C246.911 93.5623 246.698 93.6903 246.485 93.8076C257.94 97.883 269.395 101.958 280.861 106.034C282.502 106.62 284.143 107.197 285.784 107.783C285.976 107.858 286.285 107.741 286.37 107.549C287.436 105.234 288.501 102.918 289.567 100.593C289.716 100.273 289.588 99.9527 289.258 99.8353C277.888 95.5999 266.507 91.3646 255.137 87.1292C253.507 86.5211 251.877 85.913 250.257 85.3156C250.364 85.5716 250.459 85.8277 250.566 86.073C254.946 79.768 259.336 73.4629 263.716 67.1685C264.344 66.2617 264.973 65.3656 265.602 64.4588C265.836 64.128 265.516 63.68 265.154 63.68C261.915 63.6373 258.675 63.5946 255.425 63.5519C247.689 63.4453 239.942 63.3492 232.206 63.2426C222.796 63.1145 213.387 62.9972 203.988 62.8692C195.858 62.7625 187.727 62.6558 179.586 62.5491C176.922 62.5171 174.247 62.4744 171.583 62.4424C170.347 62.4211 168.994 62.2504 167.769 62.3891C167.715 62.3997 167.651 62.3891 167.598 62.3891C166.948 62.3677 166.948 63.4026 167.609 63.4132Z" fill="black"/>
<path d="M187.407 21.6463C187.386 21.4116 187.365 21.1876 187.333 20.9422C187.194 19.0219 187.439 17.4536 187.738 17.4429C187.961 17.4323 188.196 18.2004 188.334 19.3099L188.398 19.2566V19.2246C188.334 17.7843 188.59 16.6108 188.942 16.6001C189.24 16.5895 189.528 17.4003 189.645 18.4991L189.666 18.4884C189.645 17.1976 189.89 16.1841 190.22 16.1841C190.551 16.1734 190.86 17.1229 190.956 18.3498C190.966 18.3498 190.966 18.3498 190.966 18.3498C190.966 17.1122 191.19 16.1521 191.521 16.1521C191.883 16.1414 192.213 17.2616 192.266 18.6378V18.7552C192.32 18.7765 192.362 18.8085 192.416 18.8405C192.533 18.1044 192.746 17.6136 193.012 17.603C193.46 17.5816 193.812 18.8192 193.939 20.3341C193.961 20.5581 193.971 20.7822 193.971 20.9955C193.993 21.1235 194.014 21.2409 194.025 21.3689L194.099 22.105C194.898 28.9862 196.561 35.8247 200.12 41.3189C200.983 42.6951 201.995 43.954 203.082 45.1169C204.201 46.2477 205.395 47.2826 206.705 48.1467C209.337 49.8537 212.353 50.9632 215.518 51.3579C216.274 51.4646 217.042 51.5073 217.809 51.5286C219.375 51.6033 220.75 52.9368 221.038 54.7505C221.315 56.5748 219.652 58.2817 217.521 58.1751C216.594 58.143 215.667 58.0897 214.751 57.9617C210.637 57.4603 206.609 56.02 203.104 53.737C201.356 52.5955 199.779 51.2299 198.33 49.7683C196.923 48.2747 195.634 46.6638 194.557 44.9675C192.352 41.575 190.828 37.8943 189.72 34.1817C188.622 30.4584 187.951 26.6818 187.503 22.9265L187.397 21.9343C187.407 21.8383 187.407 21.7423 187.407 21.6463Z" fill="white"/>
<path d="M187.663 21.625C187.546 20.5048 187.471 19.3739 187.663 18.2644C187.684 18.1151 187.759 17.955 187.77 17.8057C187.77 17.7843 187.823 17.7203 187.823 17.699C187.674 17.6563 187.631 17.667 187.695 17.731L187.727 17.795C187.727 17.9657 187.876 18.2111 187.908 18.3818C187.983 18.6911 188.025 19.0219 188.068 19.3419C188.1 19.5873 188.356 19.6513 188.526 19.4913C188.771 19.2566 188.633 18.7338 188.644 18.4138C188.665 17.9977 188.697 17.5603 188.825 17.1656C188.857 17.0802 188.889 16.8988 188.974 16.8562C188.899 16.8988 188.91 16.8242 188.963 16.9095C189.006 16.9735 189.038 17.0482 189.08 17.1229C189.272 17.5603 189.336 18.051 189.389 18.5205C189.411 18.6805 189.571 18.8085 189.73 18.7445L189.752 18.7338C189.869 18.6911 189.922 18.5845 189.922 18.4671C189.922 18.019 189.933 17.571 190.018 17.1336C190.05 16.9842 190.071 16.8348 190.125 16.6961C190.146 16.6321 190.263 16.4401 190.21 16.4401C190.327 16.4614 190.455 16.9522 190.476 17.0482C190.604 17.4749 190.658 17.923 190.689 18.3711C190.7 18.4778 190.785 18.5951 190.892 18.6058H190.903C191.073 18.6271 191.212 18.5098 191.212 18.3284C191.212 17.8163 191.233 17.2829 191.371 16.7922C191.393 16.7282 191.51 16.4081 191.521 16.4081C191.499 16.4081 191.638 16.6215 191.659 16.6748C191.84 17.1015 191.915 17.5816 191.958 18.0404C191.979 18.2644 191.947 18.5525 192 18.7658C192.053 18.9365 192.139 18.9685 192.288 19.0539C192.426 19.1392 192.629 19.0219 192.661 18.8725C192.693 18.7125 192.831 17.8057 193.055 17.8803C193.279 17.955 193.407 18.6698 193.46 18.8618C193.641 19.7047 193.673 20.5475 193.758 21.3903L193.801 21.8063L193.833 22.1264C193.908 22.9372 194.025 23.7373 194.153 24.5268C194.675 28.09 195.474 31.6 196.689 34.8965C197.488 36.9982 198.426 39.0359 199.555 40.9135C200.717 42.7698 202.049 44.4874 203.594 45.9597C206.247 48.5201 209.54 50.3124 213.131 51.1552C213.898 51.3473 214.687 51.4753 215.475 51.5606C216.243 51.6566 217.021 51.71 217.798 51.7527C218.598 51.7953 219.312 52.1901 219.866 52.7982C220.409 53.4063 220.814 54.2277 220.782 55.1452C220.75 56.7028 219.258 57.919 217.511 57.8763C216.882 57.855 216.253 57.823 215.625 57.759C215.337 57.7377 215.06 57.7057 214.772 57.663C211.373 57.2576 208.048 56.1907 205.011 54.5478C202.646 53.2569 200.493 51.582 198.628 49.683C196.763 47.7733 195.218 45.6183 193.918 43.3779C191.435 39.1106 189.901 34.4911 188.91 29.8717C188.398 27.5353 188.025 25.1989 187.759 22.8518L187.685 22.1904C187.695 22.041 187.674 21.8277 187.663 21.625C187.653 21.2836 187.141 21.3369 187.152 21.6783C187.162 22.105 187.216 22.5425 187.269 22.9692L187.333 23.5026C187.482 24.8895 187.748 26.2871 187.951 27.674C188.761 32.1654 190.018 36.6675 192.075 40.9669C194.345 45.8743 197.914 50.5258 202.678 53.7583C206.237 56.1587 210.382 57.6843 214.612 58.2177L214.751 58.2391C215.614 58.3564 216.488 58.4098 217.362 58.4418C218.129 58.4738 218.875 58.3564 219.546 58.015C221.23 57.1616 221.784 55.2412 221.059 53.7583C220.441 52.3074 219.194 51.3473 217.852 51.2832L217.5 51.2726C216.861 51.2512 216.221 51.1979 215.593 51.1126L214.975 51.0272C211.639 50.5045 208.485 49.1922 205.821 47.1866C202.411 44.6475 199.886 40.9349 198.063 36.8275C196.561 33.3389 195.559 29.541 194.909 25.647C194.749 24.5161 194.526 23.4066 194.43 22.2544L194.408 22.0944C194.323 21.0062 194.238 19.9074 194.025 18.8405C193.929 18.4031 193.758 17.5283 193.204 17.3896C192.48 17.1976 192.288 18.3604 192.213 18.8085L192.586 18.6271C192.544 18.5951 192.49 18.5631 192.437 18.5418L192.576 18.7552C192.565 18.0724 192.49 17.3683 192.267 16.7175C192.171 16.4294 192 16.0027 191.659 15.928C190.7 15.7253 190.753 17.9124 190.743 18.3924L191.052 18.1257H191.041L191.244 18.3604C191.201 17.8483 191.105 15.9174 190.242 15.9494C189.912 15.96 189.752 16.3121 189.667 16.5788C189.464 17.1976 189.443 17.891 189.443 18.5311L189.613 18.2644L189.592 18.2751L189.933 18.4991C189.88 18.0724 189.667 15.9707 188.771 16.3974C188.452 16.5468 188.345 17.0162 188.281 17.3256C188.217 17.6243 188.185 17.9337 188.175 18.2324C188.164 18.4138 188.164 18.5845 188.153 18.7658V19.0859C188.153 19.2886 188.164 19.3099 188.164 19.1392L188.622 19.2886C188.548 18.7018 188.494 17.9017 188.132 17.4003C187.919 17.1015 187.578 17.1122 187.397 17.4216C187.141 17.8483 187.12 18.4884 187.088 18.9792C187.013 19.8753 187.088 20.7608 187.173 21.657C187.184 22.0197 187.695 21.9664 187.663 21.625Z" fill="black"/>
<path d="M235.818 56.6174C235.551 57.3109 234.677 57.7376 234.049 58.047C233.154 58.4844 232.184 58.7938 231.225 59.0392C230.191 59.3165 227.644 60.17 227.261 58.5804C227.112 57.9617 227.218 57.2895 227.282 56.6601C227.357 56.052 227.421 55.4439 227.474 54.8251C227.591 53.6943 227.698 52.5634 227.794 51.4326C227.815 51.2299 227.836 51.0272 227.847 50.8245C227.858 50.7284 227.783 50.6858 227.708 50.6858C227.996 50.5898 228.273 50.4831 228.55 50.3764C228.614 50.3551 228.657 50.3017 228.657 50.227V42.3324C228.657 42.3217 228.657 42.3004 228.646 42.2897C229.19 42.4284 229.776 42.3431 230.266 41.9697C231.097 41.3402 231.267 40.1027 230.628 39.2705C229.904 38.3317 228.635 38.3424 227.772 39.0785C227.005 39.7293 226.6 38.7051 226.472 38.0757C226.366 37.5102 226.334 36.9235 226.355 36.3581C226.355 36.294 226.302 36.23 226.249 36.2087C224.416 35.846 222.679 34.6831 221.475 33.2749C221.389 33.1682 221.219 33.2535 221.219 33.3816C221.198 33.9577 221.155 34.5231 221.112 35.0885C219.929 33.1362 222.966 30.9385 224.533 30.3304C226.643 29.4982 229.104 30.245 230.245 32.2294C231.044 33.6163 231.502 35.2165 231.918 36.7528C232.461 38.7585 232.877 40.7855 233.25 42.8231C233.942 46.5037 234.422 50.2377 235.168 53.9076C235.274 54.4091 235.381 54.9105 235.53 55.4012C235.69 55.8173 235.988 56.1907 235.818 56.6174Z" fill="black"/>
<path d="M235.285 57.6629C234.518 58.239 233.601 58.6018 232.706 58.9111C231.758 59.2312 230.788 59.4979 229.808 59.6686C229.168 59.786 228.476 59.9033 227.836 59.6686C226.888 59.3379 226.856 58.2604 226.909 57.4069C227.059 55.2092 227.368 53.0222 227.559 50.8351C227.559 50.7925 227.581 50.7604 227.613 50.7284C227.645 50.7071 227.677 50.6858 227.719 50.6858C227.794 50.6858 227.868 50.7284 227.858 50.8245C227.836 51.0272 227.826 51.2299 227.804 51.4326C227.698 52.5634 227.591 53.7049 227.485 54.8251C227.421 55.4332 227.357 56.052 227.293 56.6601C227.229 57.2789 227.122 57.9616 227.272 58.5804C227.655 60.17 230.202 59.3059 231.236 59.0392C232.195 58.7831 233.154 58.4737 234.06 58.047C234.688 57.7483 235.562 57.3215 235.828 56.6174C235.999 56.1907 235.701 55.8066 235.583 55.4119C235.424 54.9211 235.317 54.4197 235.221 53.9183C234.475 50.2484 233.985 46.5144 233.303 42.8338C232.93 40.7961 232.514 38.7691 231.971 36.7635C231.555 35.2272 231.097 33.6269 230.298 32.24C229.158 30.2557 226.696 29.5089 224.586 30.341C223.02 30.9491 219.983 33.1468 221.166 35.0992C221.23 35.1952 221.304 35.3019 221.379 35.3979C221.507 35.5472 221.294 35.7606 221.166 35.6113C221.144 35.5899 221.134 35.5686 221.123 35.5472C220.931 35.3125 220.803 35.0245 220.718 34.7471C220.356 33.5096 221.134 32.4854 221.976 31.6853C222.903 30.8105 224.032 30.085 225.279 29.797C227.389 29.3169 229.563 30.309 230.596 32.176C231.449 33.7016 231.928 35.4512 232.365 37.1368C232.93 39.3132 233.356 41.5322 233.761 43.7513C234.145 45.917 234.496 48.0827 234.859 50.2484C235.114 51.7953 235.338 53.3529 235.733 54.8678C235.839 55.2839 236.063 55.6786 236.159 56.0947C236.297 56.7668 235.775 57.3109 235.285 57.6629Z" fill="black"/>
<path d="M230.373 41.4576C230.32 41.5323 230.266 41.5963 230.192 41.6496C230.266 41.5856 230.32 41.5216 230.373 41.4576Z" fill="white"/>
<path d="M229.563 39.1105C230.138 39.2706 230.575 39.772 230.65 40.3588C230.714 40.7962 230.586 41.1696 230.373 41.4576C230.586 41.1802 230.693 40.8068 230.639 40.3801C230.565 39.8147 230.16 39.3239 229.616 39.1532C229.595 39.1425 229.574 39.1425 229.552 39.1319C229.211 39.0359 228.838 39.0679 228.519 39.2172C228.465 39.2492 228.412 39.2812 228.359 39.3132C228.412 39.2706 228.465 39.2386 228.529 39.2066C228.849 39.0465 229.222 39.0252 229.563 39.1105Z" fill="white"/>
<path d="M228.231 40.316C228.465 39.836 228.923 39.3985 229.446 39.2385C229.499 39.2172 229.552 39.2278 229.595 39.2385C229.669 39.2705 229.744 39.3345 229.765 39.4199C229.808 39.5586 229.723 39.6973 229.584 39.7399C229.573 39.7399 229.563 39.7506 229.541 39.7506C229.541 39.7506 229.531 39.7613 229.52 39.7613C229.51 39.7719 229.499 39.7719 229.488 39.7719C229.392 39.8146 229.296 39.868 229.211 39.932C229.19 39.9426 229.179 39.9533 229.158 39.964C229.158 39.964 229.158 39.964 229.147 39.964C229.126 39.9746 229.094 40.0066 229.073 40.028C229.062 40.0387 229.051 40.0493 229.041 40.06C229.35 40.252 229.616 40.5187 229.744 40.8708C229.797 41.0095 229.691 41.1482 229.563 41.1908C229.499 41.2122 229.414 41.2015 229.36 41.1588C229.307 41.1268 229.275 41.0735 229.254 41.0201C229.232 40.9561 229.2 40.9135 229.169 40.8601C229.158 40.8388 229.147 40.8281 229.137 40.8068C229.158 40.8388 229.105 40.7748 229.094 40.7534C229.051 40.7108 229.019 40.6681 228.977 40.6361C228.955 40.6147 228.934 40.5934 228.913 40.5827L228.902 40.5721C228.849 40.5294 228.785 40.4974 228.721 40.4547C228.689 40.5081 228.668 40.5507 228.646 40.6041C228.646 40.6147 228.636 40.6254 228.636 40.6361C228.625 40.6574 228.614 40.6894 228.614 40.7108C228.593 40.7641 228.582 40.8068 228.572 40.8601C228.561 40.9241 228.55 40.9775 228.54 41.0415V41.0522C228.54 41.0628 228.54 41.0842 228.54 41.0842C228.54 41.1162 228.54 41.1482 228.529 41.1695C228.519 41.3189 228.423 41.4255 228.273 41.4255C228.209 41.4255 228.146 41.3935 228.092 41.3509C228.039 41.2975 228.007 41.2335 228.018 41.1695C228.028 40.8815 228.092 40.5934 228.231 40.316Z" fill="black"/>
<path d="M229.264 41.0309C229.286 41.0842 229.318 41.1375 229.371 41.1695C229.424 41.2016 229.51 41.2229 229.574 41.2016C229.701 41.1589 229.808 41.0202 229.755 40.8815C229.627 40.5294 229.36 40.2627 229.051 40.0707C229.062 40.06 229.073 40.0494 229.083 40.0387C229.105 40.0174 229.137 39.9854 229.158 39.9747C229.158 39.9747 229.158 39.9747 229.169 39.9747C229.179 39.964 229.201 39.9533 229.222 39.9427C229.307 39.8787 229.403 39.8253 229.499 39.7827C229.51 39.7827 229.52 39.772 229.531 39.772C229.542 39.772 229.542 39.772 229.552 39.7613C229.563 39.7613 229.574 39.7506 229.595 39.7506C229.733 39.708 229.808 39.5693 229.776 39.4306C229.755 39.3452 229.691 39.2812 229.605 39.2492L229.627 39.1639C230.17 39.3346 230.575 39.8253 230.65 40.3908C230.714 40.8175 230.596 41.1909 230.383 41.4683C230.33 41.5323 230.277 41.5963 230.202 41.6603C230.17 41.6923 230.128 41.7243 230.096 41.7456C229.478 42.1937 228.519 42.1724 227.975 41.4683L228.092 41.3829C228.146 41.4363 228.21 41.4576 228.273 41.4576C228.423 41.4469 228.519 41.3402 228.529 41.2016C228.529 41.1695 228.529 41.1375 228.54 41.1162C228.54 41.1162 228.54 41.0949 228.54 41.0842V41.0735C228.551 41.0095 228.561 40.9455 228.572 40.8922C228.582 40.8388 228.604 40.7962 228.614 40.7428C228.625 40.7215 228.636 40.6895 228.636 40.6681C228.636 40.6575 228.646 40.6468 228.646 40.6361C228.668 40.5828 228.7 40.5401 228.721 40.4868C228.785 40.5188 228.838 40.5614 228.902 40.6041L228.913 40.6148C228.934 40.6361 228.955 40.6468 228.977 40.6681C229.019 40.7108 229.062 40.7428 229.094 40.7855C229.105 40.7962 229.158 40.8602 229.137 40.8388C229.147 40.8602 229.158 40.8708 229.169 40.8922C229.211 40.9242 229.243 40.9668 229.264 41.0309Z" fill="white"/>
<path d="M227.869 41.3722C227.773 41.2335 227.613 41.2229 227.506 41.2975C227.613 41.2229 227.794 41.2122 227.89 41.3616C227.911 41.4042 227.943 41.4362 227.975 41.4682C228.519 42.1724 229.478 42.1937 230.096 41.7456C229.435 42.215 228.401 42.183 227.869 41.3722Z" fill="white"/>
<path d="M228.306 42.3751C228.306 44.7221 228.306 47.0692 228.306 49.4162C228.306 49.6936 228.306 49.9817 228.306 50.259C228.295 50.259 228.295 50.259 228.284 50.2697C228.284 49.9923 228.284 49.715 228.284 49.4376C228.284 47.6559 228.284 45.8636 228.284 44.082C228.284 43.5166 228.284 42.9618 228.284 42.3964C227.943 42.2257 227.634 41.9697 227.411 41.6389C227.336 41.5323 227.368 41.4256 227.443 41.3509C227.379 41.4256 227.368 41.5216 227.432 41.6283C227.656 41.9483 227.965 42.2044 228.306 42.3751Z" fill="white"/>
<path d="M227.346 44.2421C227.528 43.9967 227.155 43.7513 226.952 43.922C227.123 43.7513 227.41 43.89 227.41 44.082C227.41 44.1247 227.4 44.1781 227.357 44.2207C227.357 44.2314 227.346 44.2314 227.346 44.2421Z" fill="white"/>
<path d="M227.208 44.4128C227.261 44.3594 227.304 44.2954 227.347 44.2421C227.304 44.2954 227.251 44.3594 227.208 44.4128Z" fill="white"/>
<path d="M226.899 43.9748C226.909 43.9648 226.909 43.9648 226.899 43.9748V43.9748Z" fill="white"/>
<path d="M226.409 45.1489C226.473 45.1062 226.526 45.0635 226.59 45.0102C226.526 45.0635 226.462 45.1062 226.409 45.1489Z" fill="white"/>
<path d="M226.025 45.4156C225.471 45.7676 224.853 46.0237 224.203 46.173V46.1624C224.853 46.0237 225.482 45.7676 226.047 45.4049C226.036 45.4049 226.025 45.4156 226.025 45.4156Z" fill="white"/>
<path d="M224.16 50.7392C224.214 50.5898 224.203 50.4404 224.203 50.2804C224.203 49.4803 224.203 48.6801 224.203 47.8907C224.203 47.3146 224.203 46.7492 224.203 46.1731C224.853 46.0237 225.471 45.7783 226.025 45.4156C226.036 45.4156 226.036 45.4049 226.047 45.4049C226.174 45.3303 226.292 45.2449 226.409 45.1596C226.473 45.1169 226.526 45.0742 226.59 45.0209C226.814 44.8395 227.027 44.6368 227.208 44.4234C227.261 44.3701 227.304 44.3061 227.347 44.2527C227.347 44.2421 227.357 44.2421 227.357 44.2314C227.389 44.1887 227.411 44.1354 227.411 44.0927H228.295C228.295 45.8743 228.295 47.6666 228.295 49.4483C228.295 49.7256 228.295 50.003 228.295 50.2804C227.709 50.4938 227.123 50.7071 226.526 50.9098C226.228 51.0059 224.043 51.8593 223.894 51.4859C223.809 51.2512 224.097 50.9205 224.16 50.7392Z" fill="white"/>
<path d="M224.203 50.2804C224.203 50.4404 224.224 50.5898 224.16 50.7391C224.096 50.9312 223.798 51.2619 223.894 51.4753C224.043 51.838 226.217 50.9952 226.526 50.8992C227.112 50.7071 227.709 50.4938 228.295 50.2697V50.2804C227.709 50.4938 227.112 50.7071 226.515 50.9098C226.217 51.0058 224.043 51.8593 223.883 51.4966C223.798 51.2832 224.086 50.9525 224.16 50.7605C224.214 50.6111 224.203 50.4618 224.203 50.3017C224.203 49.5016 224.203 48.7015 224.203 47.9013C224.203 47.3252 224.203 46.7491 224.203 46.173H224.214C224.214 46.7491 224.214 47.3146 224.214 47.8907C224.203 48.6801 224.203 49.4803 224.203 50.2804Z" fill="white"/>
<path d="M221.795 42.4071C221.571 42.4284 221.315 42.4498 221.07 42.4391V42.4284C221.326 42.4284 221.582 42.4178 221.816 42.3964C221.87 42.3858 221.912 42.3751 221.955 42.3431C221.912 42.3751 221.859 42.3964 221.795 42.4071Z" fill="white"/>
<path d="M226.526 39.3452C226.835 39.7933 227.421 39.9747 227.901 39.6866C227.954 39.6546 227.997 39.6226 228.039 39.5906C227.986 39.6333 227.933 39.676 227.879 39.708C227.389 39.996 226.803 39.8147 226.505 39.3666C226.014 38.6518 225.951 37.5849 225.983 36.7101C224.363 36.3367 222.818 35.3659 221.646 34.171C221.646 34.1604 221.646 34.1497 221.646 34.139C222.818 35.3446 224.373 36.3154 225.993 36.6888C225.972 37.5636 226.025 38.6305 226.526 39.3452Z" fill="white"/>
<path d="M229.435 39.2279C228.913 39.3879 228.455 39.8253 228.22 40.3054C228.092 40.5828 228.028 40.8815 227.996 41.1802C227.986 41.2442 228.028 41.3189 228.071 41.3616L227.954 41.4469C227.922 41.4149 227.89 41.3722 227.869 41.3402C227.773 41.1909 227.602 41.2015 227.485 41.2762C227.474 41.2869 227.464 41.2869 227.453 41.2976C227.442 41.3082 227.432 41.3189 227.421 41.3296C227.346 41.4043 227.325 41.5109 227.389 41.6176C227.613 41.959 227.922 42.2151 228.263 42.3751C228.263 42.9405 228.263 43.4953 228.263 44.0607H227.378C227.378 43.8687 227.091 43.7406 226.92 43.9007C226.91 43.9113 226.888 43.922 226.878 43.9433C226.878 43.9433 226.878 43.9433 226.867 43.9433C226.867 43.9433 226.867 43.9433 226.867 43.954L226.846 43.9753C226.792 44.0394 226.739 44.1034 226.675 44.1674C226.483 44.3594 226.281 44.5514 226.057 44.7115C225.3 45.2769 224.395 45.629 223.457 45.725C222.69 45.7996 221.869 45.7356 221.411 45.0315C221.081 44.5301 220.985 43.9007 220.974 43.3032C220.963 42.9938 220.995 42.6951 221.027 42.4071C221.283 42.4071 221.528 42.3964 221.752 42.3751C221.816 42.3644 221.869 42.3431 221.901 42.3111C221.912 42.3004 221.922 42.2897 221.933 42.2791C222.082 42.1297 222.018 41.8203 221.763 41.8417C221.518 41.863 221.187 41.895 220.868 41.8843C220.814 41.863 220.761 41.863 220.708 41.8737C220.431 41.8417 220.175 41.7776 219.994 41.6069C219.695 41.3296 219.898 40.8922 220.079 40.6148C220.313 40.2414 220.59 39.9107 220.772 39.5053C221.123 38.6731 221.24 37.745 221.358 36.8595C221.464 35.9633 221.55 35.0459 221.592 34.139C222.764 35.3446 224.309 36.3047 225.929 36.6781C225.908 37.5529 225.961 38.6198 226.451 39.3346C226.76 39.7826 227.346 39.964 227.826 39.676C227.879 39.644 227.932 39.6013 227.986 39.5586C228.092 39.4733 228.188 39.3666 228.305 39.2812C228.359 39.2492 228.401 39.2172 228.465 39.1852C228.785 39.0359 229.169 39.0039 229.499 39.0999C229.52 39.1105 229.542 39.1105 229.563 39.1212L229.542 39.2065C229.542 39.2172 229.488 39.2172 229.435 39.2279Z" fill="white"/>
<path d="M223.478 45.757C222.711 45.8317 221.891 45.7676 221.433 45.0742C221.102 44.5728 221.006 43.9433 220.996 43.3459C220.996 43.0259 221.017 42.7271 221.06 42.4391H221.07C221.028 42.7271 221.006 43.0259 221.017 43.3352C221.028 43.922 221.113 44.5621 221.454 45.0635C221.912 45.7676 222.733 45.821 223.5 45.757C224.438 45.6716 225.343 45.3089 226.1 44.7435C226.089 44.7541 226.089 44.7541 226.079 44.7648C225.322 45.3089 224.416 45.6716 223.478 45.757Z" fill="white"/>
<path d="M221.794 41.8843C221.549 41.9057 221.219 41.9484 220.899 41.927C220.846 41.9057 220.793 41.9057 220.75 41.9163C220.473 41.8843 220.217 41.8203 220.036 41.6496C219.738 41.3723 219.94 40.9349 220.121 40.6468C220.356 40.2734 220.633 39.9427 220.814 39.5373C221.176 38.7051 221.283 37.7877 221.4 36.8915C221.517 35.974 221.592 35.0672 221.645 34.1497L221.656 34.1604C221.613 35.0672 221.528 35.974 221.421 36.8808C221.315 37.7663 221.198 38.6945 220.835 39.5266C220.654 39.932 220.377 40.2627 220.143 40.6361C219.962 40.9242 219.759 41.3616 220.058 41.6283C220.239 41.799 220.494 41.863 220.771 41.895C220.825 41.8843 220.878 41.8843 220.931 41.9057C221.251 41.9163 221.581 41.8843 221.826 41.863C222.082 41.8417 222.146 42.1511 221.997 42.3004C222.103 42.1511 222.05 41.863 221.794 41.8843Z" fill="white"/>
<path d="M227.73 39.1425C228.625 38.3531 229.989 38.3637 230.746 39.3452C231.428 40.2307 231.247 41.5323 230.351 42.2044C229.883 42.5564 229.329 42.6631 228.806 42.5671C228.806 42.8018 228.806 43.0365 228.806 43.2712C228.806 45.6716 228.806 48.0613 228.806 50.4617C228.806 50.5791 228.732 50.6644 228.615 50.7071C227.719 51.0485 226.814 51.3579 225.897 51.6459C225.354 51.8166 223.723 52.5314 223.393 51.71C223.255 51.3686 223.436 50.9632 223.596 50.6538C223.617 50.6218 223.638 50.5791 223.659 50.5364C223.659 50.4831 223.659 50.4297 223.659 50.3764C223.659 49.0002 223.659 47.6239 223.659 46.2584C223.393 46.2904 223.137 46.3117 222.871 46.3011C222.061 46.2904 221.336 45.949 220.91 45.2449C220.431 44.4234 220.377 43.3459 220.516 42.3964C220.26 42.3537 220.004 42.2684 219.791 42.1297C219.173 41.7136 219.312 40.9455 219.663 40.3907C219.941 39.9427 220.25 39.5693 220.431 39.0678C220.623 38.5238 220.718 37.9477 220.793 37.3822C220.985 36.102 221.081 34.8111 221.134 33.5203C221.145 33.3069 221.422 33.1575 221.582 33.3282C222.775 34.7258 224.501 35.878 226.313 36.2407C226.419 36.262 226.505 36.3901 226.505 36.4861C226.483 37.0515 226.505 37.6276 226.622 38.1824C226.718 38.7051 227.059 39.74 227.73 39.1425ZM230.65 40.3587C230.575 39.772 230.138 39.2705 229.563 39.1105C229.222 39.0145 228.849 39.0465 228.529 39.1959C228.465 39.2279 228.412 39.2599 228.359 39.3026C228.242 39.3879 228.146 39.4946 228.039 39.5799C227.997 39.6119 227.954 39.6439 227.901 39.6759C227.41 39.964 226.824 39.7826 226.526 39.3346C226.036 38.6198 225.972 37.5529 226.004 36.6674C224.384 36.294 222.828 35.3232 221.656 34.1177C221.656 34.1284 221.656 34.139 221.656 34.1497L221.646 34.139C221.592 35.0565 221.518 35.974 221.4 36.8808C221.294 37.7663 221.177 38.6944 220.814 39.5266C220.633 39.9427 220.356 40.2627 220.122 40.6361C219.941 40.9242 219.738 41.3616 220.036 41.6389C220.218 41.8096 220.473 41.8736 220.75 41.9057C220.804 41.895 220.857 41.895 220.9 41.9163C221.219 41.927 221.55 41.895 221.795 41.8736C222.05 41.8523 222.104 42.1404 221.987 42.3004C221.976 42.3111 221.965 42.3217 221.955 42.3324C221.912 42.3537 221.88 42.3751 221.816 42.3857C221.582 42.4071 221.326 42.4284 221.07 42.4177V42.4284H221.059C221.017 42.7165 220.995 43.0258 220.995 43.3352C221.006 43.922 221.091 44.5621 221.432 45.0635C221.891 45.7676 222.711 45.821 223.478 45.7463C224.416 45.6609 225.322 45.2982 226.078 44.7435C226.089 44.7328 226.089 44.7328 226.1 44.7221C226.323 44.5621 226.526 44.3701 226.718 44.178C226.771 44.114 226.824 44.05 226.888 43.986L226.91 43.9647C226.92 43.954 226.92 43.954 226.931 43.9433C226.942 43.922 226.952 43.9113 226.974 43.9007C227.187 43.73 227.56 43.9647 227.368 44.2207C227.325 44.2847 227.283 44.3381 227.229 44.3914C227.048 44.6154 226.835 44.8181 226.611 44.9888C226.547 45.0422 226.494 45.0848 226.43 45.1275C226.313 45.2129 226.196 45.2982 226.068 45.3729C225.503 45.725 224.874 45.981 224.224 46.1304V46.141H224.214C224.214 46.7171 224.214 47.2932 224.214 47.8693C224.214 48.6694 224.214 49.4696 224.214 50.2697C224.214 50.4297 224.235 50.5791 224.171 50.7285C224.096 50.9205 223.809 51.2512 223.894 51.4646C224.043 51.8273 226.228 50.9845 226.526 50.8778C227.123 50.6751 227.719 50.4617 228.306 50.2484V50.2377C228.316 50.2377 228.316 50.2377 228.327 50.227C228.327 49.9497 228.327 49.6616 228.327 49.3842C228.327 47.0372 228.327 44.6901 228.327 42.3431C227.986 42.1724 227.677 41.9163 227.453 41.5856C227.389 41.4789 227.4 41.3829 227.464 41.3082C227.474 41.2976 227.485 41.2869 227.496 41.2762C227.506 41.2655 227.517 41.2655 227.528 41.2549C227.634 41.1909 227.794 41.1909 227.89 41.3296C228.433 42.151 229.467 42.183 230.106 41.703C230.149 41.6709 230.181 41.6389 230.213 41.6176C230.277 41.5536 230.341 41.5003 230.394 41.4256C230.597 41.1695 230.714 40.7961 230.65 40.3587Z" fill="black"/>
<path d="M224.011 46.173L224.021 47.3572C224.021 47.3572 226.994 46.1624 227.346 44.2421C227.346 44.2314 224.714 46.0557 224.011 46.173Z" fill="black"/>
<path d="M220.348 38.3113C220.421 37.7385 220.3 37.2512 220.078 37.223C219.856 37.1947 219.617 37.6361 219.544 38.2089C219.472 38.7817 219.592 39.269 219.814 39.2973C220.036 39.3255 220.275 38.8841 220.348 38.3113Z" fill="black"/>
<path d="M222.732 39.3132C222.956 39.3132 223.137 38.8452 223.137 38.2677C223.137 37.6903 222.956 37.2222 222.732 37.2222C222.508 37.2222 222.327 37.6903 222.327 38.2677C222.327 38.8452 222.508 39.3132 222.732 39.3132Z" fill="black"/>
<path d="M220.771 35.9634C220.611 35.8567 220.43 35.7713 220.238 35.7073C219.929 35.6113 219.567 35.6433 219.407 35.9527C219.279 36.2087 219.29 36.5288 219.322 36.8062C219.333 36.8808 219.375 36.9342 219.45 36.9342C219.514 36.9342 219.588 36.8702 219.578 36.8062C219.556 36.6675 219.546 36.5288 219.556 36.3794C219.556 36.3474 219.556 36.3261 219.567 36.2941C219.567 36.2834 219.567 36.2834 219.567 36.2727C219.567 36.2621 219.567 36.2407 219.578 36.2301C219.588 36.1874 219.599 36.1447 219.61 36.1021C219.61 36.0914 219.62 36.0807 219.61 36.1021C219.61 36.0914 219.62 36.0807 219.62 36.07C219.631 36.0487 219.642 36.038 219.652 36.0274C219.652 36.0167 219.663 36.0167 219.663 36.006C219.652 36.0167 219.652 36.0274 219.663 36.006C219.674 35.9954 219.684 35.9847 219.695 35.974C219.695 35.974 219.706 35.9634 219.716 35.9634C219.706 35.974 219.706 35.974 219.716 35.9634C219.727 35.9527 219.738 35.942 219.759 35.942C219.77 35.942 219.77 35.9314 219.78 35.9314C219.748 35.942 219.802 35.9207 219.78 35.9314C219.791 35.9314 219.812 35.9207 219.823 35.9207C219.834 35.9207 219.855 35.91 219.866 35.91C219.876 35.91 219.834 35.91 219.855 35.91C219.866 35.91 219.876 35.91 219.876 35.91C219.908 35.91 219.94 35.91 219.972 35.91C219.983 35.91 219.993 35.91 219.993 35.91C219.983 35.91 220.015 35.91 219.993 35.91C220.015 35.91 220.025 35.91 220.047 35.9207C220.079 35.9314 220.111 35.9314 220.143 35.942C220.175 35.9527 220.207 35.9634 220.238 35.974C220.249 35.9847 220.27 35.9847 220.281 35.9954C220.292 35.9954 220.292 36.006 220.302 36.006C220.281 35.9954 220.324 36.0167 220.302 36.006C220.356 36.0274 220.409 36.0487 220.462 36.0807C220.526 36.1127 220.579 36.1447 220.633 36.1767C220.686 36.2194 220.771 36.1874 220.814 36.1341C220.857 36.07 220.825 35.9954 220.771 35.9634Z" fill="black"/>
<path d="M224.352 37.1475C224.373 36.9342 224.33 36.7101 224.256 36.5181C224.096 36.0914 223.734 35.846 223.286 35.7926C222.871 35.75 222.444 35.8673 222.061 36.006C221.901 36.0594 221.975 36.3154 222.125 36.2514C222.604 36.0807 223.286 35.878 223.744 36.2194C223.851 36.3047 223.958 36.4541 224 36.5608C224.032 36.6248 224.053 36.6995 224.064 36.7741C224.075 36.8062 224.075 36.8382 224.085 36.8702C224.096 36.9022 224.085 36.8595 224.085 36.8915C224.085 36.9128 224.085 36.9235 224.085 36.9448C224.096 37.0089 224.096 37.0835 224.085 37.1475C224.085 37.3182 224.341 37.3182 224.352 37.1475Z" fill="black"/>
<path d="M221.08 50.7284C224.352 50.419 229.648 50.2163 235.434 51.1872C235.434 51.1872 237.522 57.2682 231.96 69.4302C227.516 71.0198 221.133 69.4195 221.133 69.4195C215.571 57.2469 217.66 51.1765 217.66 51.1765C217.66 51.1765 218.949 50.9311 221.08 50.7284Z" fill="white"/>
<path d="M221.08 50.9952C223.947 50.7285 226.835 50.6751 229.701 50.8245C230.554 50.8671 231.395 50.9312 232.237 51.0165C232.642 51.0592 233.058 51.1019 233.463 51.1552C233.793 51.1979 234.134 51.2405 234.464 51.2939C234.56 51.3046 235.232 51.3046 235.189 51.2512C235.264 51.3259 235.285 51.6033 235.306 51.6993C235.999 54.8358 235.391 58.3244 234.603 61.3756C234.219 62.8905 233.729 64.3734 233.186 65.835C232.855 66.7205 232.493 67.5953 232.109 68.4701C231.928 68.8755 231.811 69.1742 231.385 69.3556C231.022 69.5049 230.575 69.5689 230.191 69.6329C227.581 70.113 224.831 69.8783 222.242 69.3982C222.007 69.3556 221.624 69.3449 221.411 69.2275C221.091 69.0462 221.027 68.5448 220.846 68.1394C220.153 66.5391 219.535 64.8962 219.024 63.2319C218.299 60.8848 217.756 58.4631 217.596 56.0093C217.5 54.6331 217.5 53.2142 217.777 51.8593C217.82 51.6566 217.862 51.4646 217.926 51.2725C217.798 51.6993 217.681 51.3472 217.894 51.4219C218.022 51.4646 218.342 51.3472 218.47 51.3259C219.333 51.1765 220.207 51.0805 221.08 50.9952C221.411 50.9632 221.411 50.4404 221.08 50.4724C219.919 50.5898 218.747 50.7071 217.596 50.9312C217.511 50.9525 217.447 51.0272 217.415 51.1125C216.925 52.5528 216.967 54.2597 217.052 55.7426C217.159 57.695 217.511 59.6259 217.99 61.5143C218.31 62.7625 218.693 64 219.13 65.2269C219.365 65.899 219.621 66.5604 219.887 67.2112C220.175 67.9153 220.409 68.7688 220.825 69.3982C221.059 69.7503 221.262 69.7396 221.677 69.825C222.466 69.985 223.254 70.113 224.043 70.209C226.376 70.4971 228.817 70.5504 231.108 69.9743C231.459 69.889 231.896 69.825 232.163 69.5796C232.418 69.3449 232.536 68.7368 232.674 68.4167C232.823 68.0753 232.962 67.734 233.111 67.3926C233.644 66.0803 234.134 64.7468 234.55 63.3919C235.178 61.3436 235.658 59.2525 235.903 57.1295C236.116 55.2412 236.287 52.9902 235.658 51.1445C235.626 51.0698 235.562 50.9738 235.477 50.9632C230.713 50.195 225.854 50.0563 221.048 50.5044C220.75 50.5044 220.75 51.0165 221.08 50.9952Z" fill="black"/>
<path d="M184.328 138.967C184.797 140.738 185.447 142.466 186.012 144.205C183.412 146.456 180.833 148.761 178.265 151.14C182.463 149.38 186.672 147.651 190.881 145.955L189.816 141.816C189.453 140.439 189.102 139.063 188.825 137.666L184.328 138.967Z" fill="white"/>
<path d="M184.083 139.021C184.562 140.802 185.202 142.52 185.777 144.259L185.841 144.013C183.56 145.976 181.301 147.993 179.053 150.052L178.094 150.937C177.913 151.108 178.105 151.492 178.35 151.396C182.026 149.849 185.713 148.323 189.411 146.83L190.966 146.2C191.094 146.147 191.19 146.03 191.148 145.88C190.54 143.469 189.869 141.058 189.315 138.636L189.091 137.602C189.059 137.474 188.92 137.367 188.782 137.41L184.274 138.7C183.955 138.796 184.061 139.309 184.381 139.213L188.888 137.911L188.579 137.719L188.963 139.543L189.432 141.357L190.37 144.984L190.636 146.008L190.817 145.688C187.12 147.171 183.433 148.675 179.746 150.212L178.19 150.862L178.446 151.321C180.694 149.241 182.953 147.203 185.223 145.23L186.193 144.387C186.256 144.333 186.288 144.216 186.256 144.141C185.692 142.402 185.042 140.685 184.573 138.914C184.488 138.583 183.987 138.69 184.083 139.021Z" fill="black"/>
<path d="M185.447 142.488L189.731 141.432" stroke="black" stroke-width="0.1622" stroke-miterlimit="10"/>
<path d="M189.379 140.226L185.127 141.25C184.946 140.599 184.807 139.927 184.669 139.255L188.931 138.284C189.07 138.935 189.198 139.586 189.379 140.226Z" fill="black"/>
<path d="M224.341 72.1187C224.299 73.7936 223.425 75.1912 222.285 75.7993C221.848 75.9913 221.368 76.0874 220.868 76.13C219.152 76.226 217.479 76.4714 215.838 76.7808C215.838 76.7808 216.04 76.7275 216.243 76.6848C216.03 76.7061 215.827 76.7595 215.827 76.7595C210.435 77.677 205.619 79.672 202.028 82.9898C200.227 84.6541 198.596 86.5531 197.286 88.8255C196.007 91.1192 194.856 93.6156 194.121 96.4321C192.512 101.98 191.958 108.295 192.107 114.76C192.256 121.236 193.013 127.893 194.302 134.55L194.845 137.623L178.062 141.528C178.062 141.528 178.041 141.4 177.38 138.146C177.402 138.028 177.348 137.335 177.231 136.161C177.167 135.575 177.093 134.87 177.007 134.06C176.922 133.249 176.879 132.299 176.805 131.275C176.73 130.251 176.656 129.12 176.57 127.915C176.528 127.307 176.485 126.688 176.432 126.048C176.421 125.397 176.4 124.725 176.379 124.031C176.347 122.655 176.315 121.204 176.283 119.689C176.24 118.185 176.357 116.585 176.389 114.963C176.645 108.455 177.476 101.073 179.778 93.957C182.048 86.8732 185.83 80.0987 190.722 75.5646C194.419 72.0013 198.351 69.8143 201.868 68.5021C205.406 67.2005 208.538 66.6458 211.202 66.5178C216.541 66.2617 219.951 67.2646 222.05 68.2887C222.53 68.5981 222.935 68.9075 223.254 69.2382C224 69.9957 224.363 71.0305 224.341 72.1187Z" fill="white"/>
<path d="M224.117 72.1187C224.085 73.655 223.297 74.9032 222.274 75.5006C221.816 75.714 221.326 75.8313 220.803 75.8847C220.185 75.9274 219.567 75.97 218.96 76.0554C218.342 76.1194 217.734 76.1941 217.138 76.3007C216.69 76.3861 216.221 76.4288 215.784 76.5355L215.891 77.0475C216.029 77.0155 216.157 76.9729 216.296 76.9515C216.616 76.8875 216.53 76.4074 216.2 76.4394C215.497 76.5568 214.783 76.6848 214.079 76.8342C212.502 77.2076 210.925 77.613 209.487 78.2104C207.302 79.0639 205.246 80.0987 203.487 81.4749C201.292 83.1072 199.417 85.1235 197.829 87.5026L197.2 88.5054C196.987 88.8362 196.763 89.1669 196.604 89.5403L195.495 91.7273C194.909 93.3169 194.217 94.8532 193.812 96.5921C193.247 98.2564 192.991 100.113 192.607 101.905C192.437 102.812 192.384 103.772 192.256 104.711C192.171 105.66 191.979 106.578 191.979 107.559L191.862 110.28C191.819 111.187 191.766 112.093 191.808 113.022L191.872 115.795C191.894 116.723 191.883 117.641 191.989 118.59L192.373 123.359C192.533 124.96 192.789 126.56 192.991 128.16C193.162 129.312 193.258 130.464 193.503 131.627L194.121 134.999L194.419 136.705C194.472 136.994 194.483 137.314 194.579 137.602C194.59 137.634 194.59 137.676 194.6 137.708L194.803 137.41L189.134 138.722L180.097 140.813L178.019 141.293L178.328 141.496L177.966 138.06L177.593 135.169C177.455 134.209 177.359 133.238 177.295 132.257L176.815 126.218C176.73 124.191 176.698 122.154 176.634 120.127C176.623 116.062 176.751 111.976 177.22 107.89L177.391 106.119L177.689 104.337L178.286 100.795C178.531 99.622 178.851 98.4378 179.138 97.2749L179.575 95.5253L180.151 93.797C181.578 89.1882 183.752 84.7182 186.608 80.7815C189.528 76.7275 193.268 73.2496 197.499 70.8598C201.708 68.4274 206.386 67.1792 210.915 66.8485C213.728 66.6671 216.541 66.8378 219.12 67.5206C219.908 67.7553 220.697 67.9794 221.432 68.3208C222.242 68.6515 222.658 69.0355 223.148 69.5156C223.808 70.1771 224.117 71.1266 224.117 72.1187C224.117 72.4494 224.554 72.4601 224.565 72.1294C224.586 70.6998 224.021 69.5263 222.988 68.6621C222.743 68.4488 222.476 68.2674 222.21 68.0967C221.944 67.926 221.528 67.766 221.176 67.6166C219.056 66.7845 216.658 66.3898 214.229 66.2511C209.838 66.0804 205.224 66.8272 200.834 68.6195C196.433 70.3904 192.373 73.3349 189.048 76.9515C185.692 80.5788 183.049 84.9102 181.206 89.4763C179.362 94.0317 177.987 98.8112 177.305 103.601C175.888 112.328 175.909 121.087 176.581 129.675L176.932 133.974L177.476 138.21C177.593 139.298 177.668 140.397 177.828 141.474L177.838 141.624C177.849 141.773 178.019 141.858 178.147 141.826L183.816 140.503L192.853 138.391L194.93 137.9C195.069 137.868 195.154 137.73 195.133 137.602L194.824 135.831L194.334 133.121C194.163 132.097 193.929 131.083 193.801 130.07C193.428 127.051 192.895 124.021 192.735 121.044C192.597 119.231 192.405 117.406 192.416 115.635C192.405 113.854 192.266 112.04 192.405 110.312L192.533 107.453C192.554 106.492 192.735 105.596 192.821 104.657C192.948 103.74 192.991 102.79 193.172 101.905L193.694 99.2486C194.526 95.7813 195.559 92.4421 197.147 89.6683C198.607 87.0759 200.354 84.8462 202.422 83.0432C204.148 81.4963 206.119 80.2374 208.336 79.2666C209.103 78.9039 209.945 78.6158 210.765 78.3064C211.629 78.061 212.449 77.7517 213.355 77.5703C214.165 77.3463 215.006 77.1969 215.848 77.0475C216.019 77.0155 216.179 76.9835 216.338 76.9622L216.243 76.4501C216.104 76.4714 215.966 76.5141 215.827 76.5568C215.507 76.6421 215.614 77.1329 215.934 77.0689C217.116 76.8342 218.32 76.6528 219.546 76.5248C219.993 76.4714 220.462 76.4608 220.921 76.4181C221.411 76.3648 221.88 76.2794 222.338 76.0981C222.732 75.8953 223.094 75.618 223.414 75.2552C224.117 74.4658 224.565 73.3242 224.597 72.1507C224.565 71.788 224.117 71.7773 224.117 72.1187Z" fill="black"/>
<path d="M208.805 139.106C209.551 140.898 210.478 142.626 211.586 144.227C210.723 145.71 209.913 147.342 209.263 149.07C208.677 150.777 208.219 152.612 207.889 154.554C210.574 150.798 213.526 147.31 216.723 144.099C215.177 142.136 213.931 139.863 213.142 137.346C211.693 137.922 210.244 138.508 208.805 139.106Z" fill="white"/>
<path d="M208.56 139.191C209.306 140.994 210.244 142.744 211.362 144.355L211.341 144.088C210.574 145.379 209.871 146.776 209.242 148.27C208.613 149.764 208.219 151.289 207.846 152.953C207.75 153.423 207.654 153.903 207.569 154.383C207.516 154.66 208.016 155.066 208.166 154.852C210.478 151.524 213.003 148.398 215.721 145.486L216.872 144.269C216.968 144.173 217.01 144.035 216.925 143.939C216.754 143.725 216.563 143.544 216.403 143.32L215.955 142.626C215.667 142.157 215.337 141.73 215.081 141.24C214.613 140.226 214.048 139.277 213.707 138.178L213.376 137.271C213.334 137.154 213.185 137.079 213.046 137.132C211.586 137.687 210.137 138.263 208.698 138.85C208.389 138.978 208.581 139.501 208.89 139.373C210.329 138.764 211.767 138.167 213.217 137.58L212.886 137.442C213.281 138.53 213.653 139.639 214.197 140.631C214.644 141.698 215.316 142.594 215.913 143.544C216.072 143.821 216.307 144.035 216.509 144.28L216.563 143.949C213.739 146.712 211.085 149.71 208.634 152.911L207.612 154.276L208.208 154.746C208.762 151.311 209.668 148.291 211.181 145.528C211.384 145.144 211.597 144.76 211.81 144.387C211.853 144.312 211.842 144.195 211.789 144.12C210.691 142.541 209.764 140.823 209.029 139.052C208.901 138.7 208.411 138.86 208.56 139.191Z" fill="black"/>
<path d="M210.563 142.616L214.496 140.621" stroke="black" stroke-width="0.1622" stroke-miterlimit="10"/>
<path d="M213.962 139.618L209.966 141.378C209.657 140.727 209.455 140.045 209.188 139.373L213.302 137.9C213.525 138.476 213.696 139.074 213.962 139.618Z" fill="black"/>
<path d="M229.041 69.3342C230.586 69.9636 231.523 71.4252 231.545 72.9401C231.555 73.3669 231.491 73.8043 231.332 74.231C230.778 75.6606 230.234 77.0902 229.712 78.5304C229.712 78.5304 229.776 78.349 229.829 78.157C229.755 78.3384 229.68 78.5197 229.68 78.5197C225.897 87.8333 222.583 97.3922 220.324 106.94C219.205 111.709 218.353 116.478 217.937 121.108C217.713 123.434 217.681 125.685 217.703 127.904C217.83 130.059 217.98 132.214 218.438 134.102C218.534 134.497 218.587 134.924 218.704 135.287L219.056 136.385L202.976 142.584C202.976 142.584 202.965 142.541 202.784 142.018C202.614 141.496 202.177 140.471 201.729 138.572C201.75 138.466 201.687 137.858 201.548 136.833C201.463 135.82 201.378 134.412 201.292 132.694C201.218 129.291 201.484 124.789 202.283 119.956C203.839 110.258 207.569 99.3125 211.096 90.8845C213.813 84.3447 216.445 79.7466 218.715 76.4607C220.995 73.1855 222.945 71.2545 224.576 70.1663C225.066 69.825 225.524 69.5582 225.95 69.3555C226.92 68.9181 228.05 68.9288 229.041 69.3342Z" fill="white"/>
<path d="M228.955 69.5689C230.362 70.145 231.215 71.4679 231.268 72.8335C231.3 73.2815 231.236 73.7403 231.076 74.1777L229.904 77.2715L229.467 78.4451L229.957 78.6264L230.074 78.253C230.17 77.965 229.701 77.7943 229.584 78.0717C229.328 78.6904 229.083 79.2985 228.838 79.9066C228.273 81.3149 227.73 82.7231 227.187 84.142C226.377 86.265 225.609 88.3987 224.874 90.5431C223.99 93.1568 223.116 95.7813 222.349 98.4057C221.486 101.286 220.718 104.177 220.036 107.069C219.344 109.992 218.79 112.904 218.321 115.795C217.937 118.484 217.607 121.172 217.511 123.775C217.372 125.994 217.447 128.139 217.596 130.208C217.628 130.912 217.767 131.553 217.841 132.235C217.905 132.929 218.054 133.537 218.193 134.166L218.257 134.454C218.342 134.913 218.438 135.361 218.587 135.745C218.651 135.948 218.694 136.193 218.79 136.385C218.8 136.407 218.811 136.439 218.811 136.46L218.992 136.193L213.547 138.242L204.862 141.506L202.859 142.253L203.221 142.477L202.667 140.429C202.496 139.746 202.411 139.085 202.283 138.412C201.953 136.716 201.857 135.094 201.729 133.462C201.399 126.794 202.315 120.671 203.573 114.792C205.118 107.975 207.206 101.489 209.647 95.2052C212.14 88.7508 214.932 82.4137 218.811 76.7808C220.004 75.0312 221.315 73.3455 222.85 71.884C223.468 71.3079 224.128 70.7318 224.853 70.273C225.258 69.9957 225.673 69.7503 226.11 69.5582C227.016 69.1848 228.028 69.2062 228.955 69.5689C229.264 69.6863 229.456 69.2275 229.147 69.1102C227.826 68.5874 226.494 68.7474 225.29 69.4302C224.949 69.6223 224.618 69.8356 224.299 70.0703C224.086 70.2197 223.862 70.3797 223.659 70.5397C222.2 71.6813 220.963 73.0788 219.834 74.5297C215.742 79.7893 212.833 85.9663 210.297 92.1967C207.761 98.4697 205.491 104.924 203.786 111.709C202.262 117.897 201.079 124.319 201.164 131.361C201.175 131.947 201.164 132.523 201.196 133.11L201.335 134.902L201.495 136.705L201.793 138.551L201.804 138.594C201.921 139.234 202.006 139.874 202.156 140.535C202.326 141.197 202.496 141.848 202.699 142.498L202.752 142.669C202.806 142.85 202.997 142.936 203.115 142.893L208.528 140.749L217.159 137.335L219.141 136.545C219.28 136.492 219.354 136.375 219.322 136.279L218.928 135.03L218.715 134.017C218.63 133.59 218.513 133.185 218.449 132.737L218.267 131.371C218.022 129.515 217.969 127.52 217.98 125.493C218.044 123.007 218.214 120.468 218.576 117.865C218.917 115.038 219.472 112.157 220.079 109.288C220.729 106.386 221.443 103.473 222.274 100.571C223.041 97.8616 223.873 95.1625 224.778 92.4741C225.535 90.2017 226.334 87.94 227.176 85.6889C227.773 84.078 228.391 82.4777 229.019 80.8775L229.914 78.6584L230.096 78.2317L229.605 78.0503L229.488 78.4237C229.392 78.7118 229.872 78.8825 229.978 78.6051L231.151 75.4686L231.598 74.3057C231.758 73.8896 231.833 73.4629 231.822 73.0148C231.833 72.5027 231.747 71.9907 231.545 71.4892C231.129 70.4117 230.255 69.5262 229.158 69.0782C228.828 68.9821 228.636 69.4409 228.955 69.5689Z" fill="black"/>
<path d="M207.185 19.4166L164.529 25.9457C162.27 26.2871 160.15 24.7295 159.798 22.4678L158.114 11.4793C157.773 9.21755 159.329 7.09453 161.588 6.74247L204.244 0.21338C206.503 -0.12801 208.624 1.42958 208.976 3.69129L210.659 14.6798C211 16.9415 209.434 19.0752 207.185 19.4166Z" fill="white" stroke="black" stroke-width="0.3244" stroke-miterlimit="10"/>
<path d="M49.2839 81.1975L6.62783 87.7266C4.36875 88.068 2.2482 86.5104 1.89655 84.2487L0.212898 73.2602C-0.128095 70.9985 1.42769 68.8755 3.68677 68.5234L46.3429 61.9943C48.602 61.6529 50.7225 63.2105 51.0742 65.4722L52.7578 76.4607C53.0988 78.7224 51.5324 80.8455 49.2839 81.1975Z" fill="white" stroke="black" stroke-width="0.3244" stroke-miterlimit="10"/>
<path d="M157.592 115.998L114.936 122.527C112.677 122.868 110.556 121.311 110.205 119.049L108.521 108.061C108.18 105.799 109.736 103.676 111.995 103.324L154.651 96.7948C156.91 96.4534 159.031 98.011 159.382 100.273L161.066 111.261C161.407 113.523 159.851 115.657 157.592 115.998Z" fill="white" stroke="black" stroke-width="0.3244" stroke-miterlimit="10"/>
<path d="M234.837 73.6657C234.923 73.7723 235.008 73.8897 235.082 74.007C235.775 74.9565 236.5 75.778 236.318 76.0127C236.201 76.1727 235.647 75.9807 235.008 75.458L234.997 75.522L235.008 75.5326C235.743 76.2901 236.329 76.9835 236.159 77.2503C236.02 77.4743 235.317 77.2929 234.592 76.7062L234.582 76.7275C235.349 77.485 235.946 78.1357 235.796 78.3918C235.647 78.6478 234.741 78.3811 233.857 77.613L233.846 77.6236C234.667 78.4345 235.327 79.1172 235.178 79.3626C235.008 79.6293 233.836 79.2346 232.802 78.2104L232.717 78.1251C232.663 78.1357 232.61 78.1464 232.557 78.1464C233.015 78.7865 233.292 79.2559 233.132 79.448C232.909 79.736 231.545 79.0959 230.404 77.5916C230.245 77.3569 230.085 77.1329 229.946 76.9089C229.85 76.7808 229.765 76.6528 229.69 76.5141C229.52 76.2581 229.371 75.9914 229.232 75.7033C229.03 75.3193 228.902 75.0419 228.721 74.5298C228.486 73.9964 228.422 73.463 228.284 72.9189C228.199 72.5028 228.071 72.0654 228.103 71.66C228.103 71.2546 228.092 70.8385 228.209 70.4438C228.401 69.6437 228.849 68.9289 229.424 68.3314C229.999 67.734 230.724 67.2539 231.481 66.8379L232.035 66.5605L232.418 66.3898L233.164 66.0804C235.104 65.3336 236.926 64.8535 238.737 64.3734L244.055 63.0612C244.929 62.8479 245.781 62.6238 246.623 62.3891L247.667 62.1011C247.784 62.0691 247.902 62.0264 248.008 61.9517C248.136 61.8984 248.147 61.717 248.029 61.653C247.944 61.5676 247.838 61.493 247.731 61.4289L247.561 61.3329L246.634 60.9062C243.522 59.5833 240.112 58.5485 236.681 57.6416L234.475 57.0869C232.951 56.6815 232.013 55.1026 232.376 53.513C232.738 51.9234 234.379 50.9632 235.988 51.3899L238.141 51.934C241.753 52.8942 245.333 53.961 248.946 55.4866L250.523 56.2121C251.28 56.6068 251.983 57.0549 252.707 57.4816C253.507 57.8764 253.954 58.4311 254.54 58.9112C255.212 59.3913 255.393 59.9567 255.723 60.4901C255.798 60.6288 255.883 60.7568 255.947 60.8955C255.99 61.0342 256.043 61.1729 256.064 61.3223C256.139 61.6103 256.171 61.941 256.16 62.2824C256.117 62.9865 255.904 63.584 255.595 64.0961C254.988 65.1202 253.848 65.995 252.335 66.6672C250.928 67.3073 248.807 67.9154 248.221 68.0754C247.305 68.3314 246.399 68.5555 245.504 68.7795L240.229 70.0811C238.514 70.5185 236.809 70.9879 235.338 71.564L234.816 71.7773L234.496 71.916C234.432 71.948 234.368 71.98 234.315 72.0227C234.177 72.0974 234.166 72.2681 234.209 72.4068C234.219 72.4495 234.23 72.5028 234.241 72.5348L234.315 72.7375L234.443 72.9935C234.518 73.1642 234.624 73.3243 234.72 73.495C234.784 73.559 234.805 73.6123 234.837 73.6657Z" fill="white"/>
<path d="M234.645 73.7937C235.018 74.3804 235.53 74.9139 235.945 75.5753C235.999 75.6606 236.041 75.7887 236.116 75.874C236.127 75.8847 236.127 75.9594 236.148 75.9594C236.255 75.8847 236.265 75.842 236.201 75.8527L236.148 75.842C236.063 75.7673 235.85 75.7353 235.743 75.682C235.541 75.5753 235.359 75.4259 235.178 75.2873C235.05 75.1806 234.848 75.2766 234.805 75.4686C234.752 75.7567 235.114 75.9594 235.274 76.1407C235.487 76.3754 235.711 76.6208 235.882 76.9089C235.914 76.9729 235.999 77.0902 235.988 77.1649C235.999 77.1009 236.041 77.1329 235.956 77.1329C235.892 77.1329 235.828 77.1222 235.764 77.1116C235.391 77.0262 235.05 76.7915 234.752 76.5568C234.645 76.4715 234.475 76.4928 234.4 76.6315L234.39 76.6528C234.347 76.7488 234.368 76.8555 234.432 76.9195C234.709 77.1862 234.976 77.4636 235.232 77.7517C235.317 77.8477 235.402 77.9544 235.477 78.0717C235.509 78.1251 235.583 78.3064 235.615 78.2744C235.541 78.3598 235.114 78.1677 235.04 78.1357C234.667 77.9757 234.326 77.7303 234.017 77.4743C233.942 77.4103 233.814 77.3889 233.729 77.4423L233.718 77.4529C233.591 77.549 233.58 77.709 233.697 77.8263C234.049 78.1677 234.422 78.5198 234.731 78.9145C234.773 78.9679 234.965 79.2452 234.965 79.2559C234.976 79.2452 234.731 79.2026 234.677 79.1919C234.23 79.0532 233.804 78.7865 233.441 78.4985C233.26 78.3598 233.079 78.1251 232.887 77.997C232.738 77.901 232.642 77.933 232.482 77.9437C232.333 77.9544 232.269 78.1677 232.365 78.2958C232.461 78.4451 233.068 79.2239 232.887 79.2986C232.685 79.3946 232.024 78.8932 231.843 78.7545C231.054 78.1571 230.458 77.3143 229.914 76.4288L229.648 75.9914C229.488 75.65 229.232 75.2126 229.072 74.7752C228.817 74.2204 228.678 73.559 228.55 72.9509C228.401 72.4281 228.358 71.8947 228.38 71.3933C228.358 70.5505 228.721 69.697 229.232 69.0249C229.744 68.3421 230.458 67.7873 231.225 67.3393C231.417 67.2219 231.608 67.1152 231.811 67.0085L232.109 66.8592L232.322 66.7632C232.6 66.6351 232.855 66.5285 233.122 66.4218C233.644 66.2084 234.155 66.027 234.667 65.8563C236.681 65.1842 238.631 64.7042 240.56 64.2241L244.225 63.3279L246.015 62.8692L247.582 62.4318C247.816 62.3678 248.061 62.2931 248.296 62.1757C248.402 62.1117 248.541 62.037 248.552 61.8984C248.552 61.7597 248.434 61.685 248.338 61.5996C248.168 61.461 247.976 61.3436 247.774 61.2262L246.804 60.7782L245.387 60.2021C243.469 59.4553 241.455 58.8045 239.419 58.2177C238.546 57.9617 237.661 57.7377 236.766 57.503C236.031 57.3109 235.295 57.1189 234.56 56.9269C233.047 56.5108 232.163 54.8038 232.738 53.2889C233.239 51.998 234.635 51.3579 235.977 51.6887L237.448 52.062L238.119 52.2327C241.242 53.0649 244.342 53.9717 247.443 55.1879C248.051 55.4439 248.658 55.6573 249.266 55.956L250.352 56.4574C250.864 56.6922 251.311 57.0015 251.791 57.2683L253.208 58.1111L254.327 59.0819L254.881 59.5726L255.201 60.1061C255.393 60.4581 255.67 60.8102 255.787 61.1729C255.904 61.5356 255.979 61.9624 255.958 62.4211C255.926 62.8799 255.798 63.2959 255.627 63.6586C255.286 64.3841 254.743 64.9922 253.986 65.547C253.24 66.1017 252.271 66.5605 251.237 66.9445C250.278 67.3179 248.903 67.7233 248.488 67.83C246.133 68.4915 243.842 69.0142 241.583 69.569C239.355 70.1237 237.096 70.6998 235.189 71.4466L234.677 71.66L234.39 71.788C234.304 71.8307 234.219 71.884 234.134 71.948C234.059 72.012 233.985 72.0867 233.963 72.1934C233.953 72.2894 233.974 72.3961 233.995 72.4921L234.027 72.6201L234.102 72.8228C234.219 73.0789 234.315 73.3029 234.443 73.5056C234.528 73.5696 234.582 73.6763 234.645 73.7937C234.752 73.9857 235.114 73.7083 235.018 73.5376C234.923 73.3136 234.773 73.1216 234.677 72.9082C234.635 72.8122 234.56 72.7162 234.528 72.6095L234.475 72.4601L234.464 72.4068C234.432 72.3214 234.454 72.2254 234.55 72.1827L234.613 72.1507L234.848 72.044C235.253 71.8627 235.7 71.692 236.18 71.5213C237.128 71.1906 238.151 70.8919 239.196 70.6145C241.295 70.049 243.479 69.5476 245.696 68.9929L247.625 68.5021L248.605 68.2354L249.095 68.0967L249.894 67.8513C252.292 67.1259 254.647 66.0484 255.617 64.5761C256.117 63.872 256.458 62.9972 256.416 61.9624C256.384 61.4823 256.33 61.0662 256.107 60.6715L255.457 59.4766C255.158 59.0926 254.668 58.7405 254.285 58.3671L253.666 57.8123C253.443 57.6416 253.144 57.4923 252.889 57.3323L251.301 56.3934C251.045 56.2334 250.757 56.0734 250.48 55.956L249.83 55.6573C245.973 53.9077 242.179 52.8088 238.343 51.774L238.215 51.742L236.201 51.2299C235.615 51.0806 235.029 51.0379 234.443 51.1872C232.994 51.55 232.003 52.9155 232.088 54.3771C232.152 55.7747 233.132 56.9802 234.443 57.3323L234.784 57.4176L236.638 57.887L237.352 58.0791C239.26 58.6018 241.156 59.1459 242.989 59.786C243.906 60.1061 244.822 60.4261 245.685 60.7888C246.122 60.9702 246.57 61.1409 246.974 61.3436L247.443 61.557C247.475 61.5676 247.486 61.5783 247.497 61.589C247.582 61.6423 247.646 61.6957 247.699 61.7597C247.763 61.845 247.625 61.909 247.55 61.9304L247.433 61.9624C247.411 61.9624 247.39 61.973 247.379 61.973L246.548 62.2077C245.365 62.5385 244.129 62.8372 242.883 63.1466C240.783 63.6586 238.652 64.1601 236.446 64.7895C235.349 65.1096 234.23 65.4509 233.058 65.9097C232.759 66.027 232.461 66.1444 232.163 66.2938L231.928 66.4004L231.587 66.5711C231.353 66.6885 231.118 66.8272 230.895 66.9552C229.967 67.4886 229.168 68.1821 228.603 69.0249C227.847 70.1877 227.666 71.5746 228.06 72.9722C228.188 73.4736 228.252 73.975 228.444 74.4658L228.689 75.1059C228.753 75.2873 228.838 75.4473 228.923 75.6073L229.04 75.8313C229.669 77.1009 230.479 78.2638 231.513 79.0746C231.939 79.4053 232.791 80.0027 233.25 79.7253C233.814 79.3733 233.004 78.4451 232.759 78.0504L232.642 78.4024C232.695 78.4024 232.749 78.3918 232.802 78.3811L232.557 78.3064C233.058 78.8292 233.676 79.2879 234.347 79.5546C234.645 79.672 235.114 79.8107 235.359 79.5973C235.658 79.2879 235.327 78.8505 234.976 78.4451C234.603 78.0397 234.155 77.6236 233.995 77.4636L233.985 77.837L233.995 77.8263L233.708 77.805C234.049 78.1571 235.605 79.2452 235.999 78.5198C236.127 78.2637 235.967 77.9864 235.828 77.7837C235.519 77.3249 235.104 76.9409 234.731 76.5675L234.784 76.8342L234.795 76.8128L234.443 76.8982C234.709 77.1649 236.244 78.1251 236.393 77.2182C236.457 76.9195 236.244 76.6421 236.105 76.4394C235.977 76.2474 235.818 76.0874 235.679 75.9167C235.594 75.8207 235.509 75.7247 235.423 75.6286L235.264 75.458C235.168 75.3513 235.157 75.3406 235.232 75.4366L234.859 75.6286C235.2 75.906 235.668 76.3114 236.148 76.2901C236.436 76.2794 236.596 76.034 236.542 75.7673C236.468 75.3939 236.18 75.1059 235.999 74.8499C235.658 74.3911 235.306 73.9857 235.04 73.5483C234.923 73.3669 234.539 73.6123 234.645 73.7937Z" fill="black"/>
<path d="M222.849 43.602C223.201 43.6233 223.563 43.5593 223.904 43.4739C224.597 43.3032 225.247 42.9298 225.694 42.3644C225.812 42.2257 225.609 42.023 225.492 42.1617C224.885 42.9298 223.83 43.3566 222.849 43.3139C222.668 43.3032 222.668 43.5913 222.849 43.602Z" fill="black"/>
</g>
<defs>
<clipPath id="clip0_150_813">
<rect width="294" height="192" fill="white"/>
</clipPath>
</defs>
</svg>
