<svg width="271" height="208" viewBox="0 0 271 208" fill="none" xmlns="http://www.w3.org/2000/svg">
<g clip-path="url(#clip0_150_689)">
<path d="M76.9103 97.9C78.1203 98.29 78.8203 98.74 78.8203 99.22C78.8203 99.7 78.1303 100.15 76.9103 100.55C78.1203 100.94 78.8203 101.39 78.8203 101.87C78.8203 102.35 78.1303 102.8 76.9103 103.2C78.1203 103.59 78.8203 104.04 78.8203 104.52C78.8203 105 78.1303 105.45 76.9103 105.85C78.1203 106.24 78.8203 106.69 78.8203 107.17C78.8203 107.97 76.9303 108.68 73.9503 109.16C73.3403 112.52 69.3603 115.12 64.5503 115.12C59.7303 115.12 55.7503 112.52 55.1503 109.16C52.1703 108.68 50.2803 107.97 50.2803 107.17C50.2803 106.69 50.9703 106.24 52.2003 105.85C50.9803 105.46 50.2803 105 50.2803 104.52C50.2803 104.04 50.9703 103.59 52.2003 103.2C50.9803 102.81 50.2803 102.35 50.2803 101.87C50.2803 101.39 50.9703 100.94 52.2003 100.55C50.9803 100.16 50.2803 99.7 50.2803 99.22C50.2803 98.74 50.9703 98.29 52.2003 97.9C50.9803 97.51 50.2803 97.05 50.2803 96.57C50.2803 96.09 50.9703 95.64 52.2003 95.25C50.9803 94.86 50.2803 94.4 50.2803 93.92C50.2803 92.46 56.6703 91.26 64.5503 91.26C72.4303 91.26 78.8203 92.45 78.8203 93.92C78.8203 94.4 78.1303 94.85 76.9103 95.25C78.1203 95.64 78.8203 96.09 78.8203 96.57C78.8203 97.05 78.1303 97.51 76.9103 97.9Z" fill="#333333" stroke="black" stroke-width="1.0891" stroke-miterlimit="10"/>
<path d="M84.4198 75.47C81.5098 77.57 79.8498 80.92 79.8598 84.51C79.8598 84.53 79.8598 84.55 79.8598 84.57C79.8598 93.1 72.7198 99.96 64.0798 99.51C56.7198 99.13 50.6098 93.24 49.9798 85.89C49.9798 85.83 49.9699 85.78 49.9699 85.72C49.6399 81.34 47.6098 77.28 44.1698 74.56C35.9098 68.03 30.8098 57.68 31.5298 46.17C32.5698 29.59 45.9598 16.1 62.5298 14.97C82.0698 13.63 98.3198 29.08 98.3198 48.32C98.3198 59.5 92.8398 69.4 84.4198 75.47Z" fill="white"/>
<path d="M84.1001 74.92C81.0001 77.24 79.3001 80.65 79.2201 84.51C79.1501 88.13 77.9201 91.58 75.4401 94.26C70.1801 99.95 61.0901 100.42 55.3201 95.2C52.4301 92.58 50.9501 89.16 50.5701 85.33C50.1901 81.55 48.6101 77.95 45.9101 75.25C44.4901 73.84 42.8501 72.68 41.4501 71.25C40.0101 69.78 38.7201 68.19 37.5801 66.48C35.3401 63.12 33.7401 59.36 32.8701 55.41C29.5201 40.23 37.6601 24.46 51.8601 18.23C65.5101 12.24 81.9901 16.64 91.0001 28.47C100.6 41.09 99.6301 59.37 88.7001 70.88C87.2901 72.37 85.7501 73.71 84.1001 74.92C83.4401 75.4 84.0801 76.51 84.7401 76.02C91.5001 71.09 96.3701 63.87 98.1701 55.67C99.8401 48.03 98.8301 39.92 95.2901 32.94C88.4001 19.32 72.7901 11.87 57.8701 14.99C42.6001 18.18 31.1701 32.03 30.8401 47.6C30.6601 56.08 33.7001 64.43 39.2901 70.81C42.1701 74.09 46.0401 76.3 47.9401 80.37C48.9101 82.44 49.1401 84.54 49.4501 86.78C49.7101 88.64 50.3101 90.44 51.2201 92.08C54.8901 98.73 63.1401 101.89 70.2901 99.23C73.6201 97.99 76.4801 95.63 78.3001 92.58C79.2301 91.02 79.9001 89.28 80.2301 87.49C80.5801 85.57 80.3501 83.59 80.8701 81.7C81.4901 79.42 82.8601 77.45 84.7501 76.04C85.3901 75.53 84.7501 74.42 84.1001 74.92Z" fill="black"/>
<path d="M123.43 120.92V123.47H120.87" stroke="black" stroke-width="0.344" stroke-miterlimit="10"/>
<path d="M115.54 123.47H11.5703" stroke="black" stroke-width="0.344" stroke-miterlimit="10" stroke-dasharray="5.33 5.33"/>
<path d="M8.91035 123.47H6.36035V120.92" stroke="black" stroke-width="0.344" stroke-miterlimit="10"/>
<path d="M6.36035 115.58V11.62" stroke="black" stroke-width="0.344" stroke-miterlimit="10" stroke-dasharray="5.33 5.33"/>
<path d="M6.36035 8.95002V6.40002H8.91035" stroke="black" stroke-width="0.344" stroke-miterlimit="10"/>
<path d="M14.2402 6.40002H118.21" stroke="black" stroke-width="0.344" stroke-miterlimit="10" stroke-dasharray="5.33 5.33"/>
<path d="M120.87 6.40002H123.43V8.95002" stroke="black" stroke-width="0.344" stroke-miterlimit="10"/>
<path d="M123.43 14.28V118.25" stroke="black" stroke-width="0.344" stroke-miterlimit="10" stroke-dasharray="5.33 5.33"/>
<path d="M6.36022 12.54C9.75124 12.54 12.5002 9.79104 12.5002 6.40001C12.5002 3.00898 9.75124 0.26001 6.36022 0.26001C2.96919 0.26001 0.220215 3.00898 0.220215 6.40001C0.220215 9.79104 2.96919 12.54 6.36022 12.54Z" fill="#333333" stroke="black" stroke-width="0.4252" stroke-miterlimit="10"/>
<path d="M123.43 12.54C126.821 12.54 129.57 9.79104 129.57 6.40001C129.57 3.00898 126.821 0.26001 123.43 0.26001C120.039 0.26001 117.29 3.00898 117.29 6.40001C117.29 9.79104 120.039 12.54 123.43 12.54Z" fill="#333333" stroke="black" stroke-width="0.4252" stroke-miterlimit="10"/>
<path d="M6.36022 129.61C9.75124 129.61 12.5002 126.861 12.5002 123.47C12.5002 120.079 9.75124 117.33 6.36022 117.33C2.96919 117.33 0.220215 120.079 0.220215 123.47C0.220215 126.861 2.96919 129.61 6.36022 129.61Z" fill="#333333" stroke="black" stroke-width="0.4252" stroke-miterlimit="10"/>
<path d="M123.43 129.61C126.821 129.61 129.57 126.861 129.57 123.47C129.57 120.079 126.821 117.33 123.43 117.33C120.039 117.33 117.29 120.079 117.29 123.47C117.29 126.861 120.039 129.61 123.43 129.61Z" fill="#333333" stroke="black" stroke-width="0.4252" stroke-miterlimit="10"/>
<path d="M78.6303 23.77C79.8103 24.42 80.8703 25.33 81.8603 26.23C84.6403 28.77 86.9203 31.83 88.7603 35.11C90.3003 37.85 91.5103 40.75 92.4803 43.74C92.7303 44.52 93.9603 44.19 93.7103 43.4C91.2603 35.84 87.0803 28.28 80.5503 23.51C80.1403 23.21 79.7203 22.91 79.2803 22.67C78.5603 22.28 77.9103 23.38 78.6303 23.77Z" fill="black"/>
<path d="M166.081 169.69C165.791 170.86 165.571 172.05 165.321 173.23L164.961 175L164.691 176.79C164.521 177.98 164.321 179.17 164.171 180.37L163.821 183.97C163.661 185.35 163.601 186.73 163.551 188.11C163.501 189.49 163.401 190.87 163.391 192.26C162.321 192.1 159.991 191.85 157.361 192.92C154.131 194.24 152.471 196.84 151.911 197.81C157.471 197.11 163.021 196.48 168.581 195.93C168.641 194.02 168.611 192.1 168.781 190.21C168.931 188.32 168.981 186.41 169.251 184.55L169.661 181.05L170.241 177.6L170.541 175.88L170.931 174.19C171.211 173.07 171.401 171.92 171.751 170.83L166.081 169.69Z" fill="white"/>
<path d="M165.77 169.61C165.19 172.22 164.6 174.83 164.26 177.48C164.11 178.56 163.9 179.62 163.81 180.7L163.5 183.94C163.28 185.82 163.26 187.72 163.16 189.6C163.13 190.49 163.06 191.37 163.07 192.25L163.4 191.95C158.77 191.2 154.13 193.33 151.64 197.64C151.52 197.84 151.66 198.19 151.9 198.16C157.46 197.45 163.01 196.81 168.57 196.24C168.74 196.22 168.89 196.12 168.9 195.94L168.99 191.82L169.27 187.73L169.38 186.15L169.57 184.59C169.8 182.81 169.94 181 170.29 179.25L170.74 176.61C170.88 175.73 171.12 174.88 171.31 174.02C171.57 172.99 171.74 171.92 172.07 170.91C172.12 170.75 172.02 170.55 171.85 170.52L166.2 169.34C165.8 169.26 165.6 169.93 166 170.01L171.66 171.14L171.44 170.75C170.69 173.59 170.06 176.48 169.6 179.43C169.27 181.09 169.15 182.82 168.93 184.52C168.74 185.9 168.66 187.3 168.56 188.7C168.49 190.1 168.32 191.49 168.32 192.91L168.26 195.93L168.59 195.63C163.04 196.17 157.48 196.78 151.92 197.47L152.18 197.98C154.56 193.87 158.97 191.88 163.38 192.57C163.55 192.6 163.71 192.42 163.71 192.27C163.78 189.86 163.88 187.45 164.04 185.05L164.14 184C164.34 182.09 164.46 180.17 164.79 178.28L165.22 175.43C165.36 174.48 165.6 173.55 165.78 172.61C165.99 171.66 166.15 170.7 166.4 169.76C166.51 169.34 165.89 169.17 165.77 169.61Z" fill="black"/>
<path d="M163.6 186.29L168.32 186.7L169 186.76C169.41 186.8 169.45 186.19 169.04 186.15L164.32 185.71L163.64 185.65C163.23 185.62 163.19 186.26 163.6 186.29Z" fill="black"/>
<path d="M170.811 174.58L165.561 173.43L166.171 170.78L171.381 172.1L170.811 174.58Z" fill="black"/>
<path d="M210.22 143.09C209.95 143.07 209.41 143.04 208.91 143.04C208.4 143.03 207.87 143.06 207.33 143.08C203.55 143.3 199.69 144.17 196.24 145.67C194.53 146.45 192.84 147.28 191.31 148.37C190.91 148.61 190.53 148.89 190.17 149.19L189.05 150.04L187.99 150.98C187.63 151.28 187.28 151.6 186.96 151.96C184.27 154.64 181.97 157.87 180.11 161.54C178.25 165.2 176.83 169.28 175.74 173.55L159.83 169.59C161.51 164.41 163.64 159.33 166.45 154.58C169.25 149.84 172.77 145.46 176.93 141.83C177.43 141.36 177.97 140.92 178.52 140.51L180.15 139.25L181.86 138.1C182.43 137.71 183 137.34 183.61 137.02C185.95 135.6 188.47 134.52 190.99 133.58C196.08 131.76 201.41 130.94 206.68 131C208.2 131.04 209.7 131.14 211.23 131.38L210.22 143.09Z" fill="white"/>
<path d="M210.24 142.84C209.96 142.82 209.41 142.79 208.91 142.79C208.4 142.78 207.86 142.81 207.32 142.83C206.88 142.87 206.44 142.88 206 142.93C202.05 143.33 198.12 144.38 194.65 146.14C192.54 147.19 190.58 148.49 188.75 149.98C186.92 151.48 185.31 153.27 183.79 155.17C181.22 158.55 179.14 162.51 177.54 166.85C177.29 167.57 177 168.28 176.76 169.01L176.1 171.25L175.69 172.63C175.64 172.85 175.51 173.15 175.52 173.38C175.52 173.41 175.51 173.44 175.5 173.47L175.8 173.29L161.87 169.77L159.9 169.27L160.08 169.63C160.39 168.51 160.84 167.42 161.23 166.32C161.65 165.23 161.99 164.12 162.5 163.05C164.65 157.86 167.44 152.86 170.99 148.42C173.11 145.72 175.57 143.28 178.18 141.09C180.82 138.91 183.74 137.1 186.77 135.62C192.01 133.05 197.71 131.67 203.35 131.31C204.47 131.25 205.59 131.22 206.71 131.23C207.38 131.26 208.04 131.27 208.7 131.33C209.23 131.36 209.76 131.42 210.29 131.48C210.54 131.52 210.86 131.61 211.12 131.59C211.15 131.59 211.19 131.6 211.22 131.61L210.97 131.33L210.22 141.59L210.11 143.06C210.1 143.22 210.14 143.31 210.18 143.31C210.29 143.32 210.09 143.22 210.14 143.05L211.36 132.83L211.54 131.36C211.56 131.22 211.41 131.1 211.27 131.08C209.72 130.84 208.21 130.74 206.68 130.7C206.08 130.7 205.48 130.69 204.88 130.71C199.42 130.88 193.89 131.96 188.71 134.15C185.57 135.46 182.56 137.16 179.76 139.19C176.95 141.21 174.45 143.63 172.13 146.21C168.19 150.74 165.08 155.92 162.68 161.34C162.3 162.23 161.88 163.12 161.52 164.02L160.52 166.74C160.21 167.6 159.79 168.48 159.62 169.37L159.59 169.48C159.54 169.64 159.64 169.81 159.77 169.84L173.72 173.27L175.69 173.75C175.82 173.78 175.96 173.7 175.99 173.57C176.17 172.62 176.49 171.75 176.74 170.84C177.02 169.95 177.23 169.01 177.58 168.17C179 164 180.85 160.15 183.17 156.84C184.54 154.81 186.14 153.06 187.82 151.43C189.52 149.83 191.41 148.49 193.41 147.33C196.87 145.32 200.84 144.06 204.92 143.51C205.73 143.41 206.54 143.33 207.34 143.29C207.81 143.28 208.3 143.25 208.74 143.25C209.27 143.24 209.82 143.33 210.15 143.29C210.16 143.29 210.17 143.29 210.18 143.29C210.19 143.29 210.21 143.28 210.22 143.27C210.21 143.26 210.18 143.23 210.17 143.21C210.14 143.16 210.14 143.09 210.14 143.03C210.15 142.97 210.17 142.9 210.21 142.86C210.22 142.84 210.26 142.82 210.26 142.81C210.27 142.85 210.25 142.84 210.24 142.84Z" fill="black"/>
<path d="M216.01 183.81L216.55 193.13L217.04 201.46C215.96 201.38 213.62 201.34 211.07 202.59C207.94 204.12 206.43 206.65 205.93 207.59L222.45 204.83C222.27 200.87 222.12 196.92 221.99 192.96L221.75 183.45L216.01 183.81Z" fill="white"/>
<path d="M215.69 183.81L215.98 188.96L216.23 193.14L216.55 198.82L216.72 201.48L217.02 201.15C212.35 200.8 207.87 203.28 205.65 207.45C205.54 207.65 205.7 207.96 205.95 207.92L222.47 205.15C222.64 205.12 222.78 205.01 222.77 204.82L222.43 196.26L222.32 192.95L222.12 185.65L222.08 183.44C222.08 183.32 221.93 183.21 221.76 183.22L216.01 183.57C215.6 183.6 215.61 184.05 216.02 184.02L221.77 183.67L221.45 183.45L221.59 189.5L221.69 192.96C221.8 195.88 221.87 198.79 222.01 201.71L222.14 204.83L222.45 204.5L205.93 207.26L206.23 207.73C208.35 203.75 212.62 201.44 217.07 201.77C217.24 201.78 217.39 201.6 217.37 201.44L216.94 194.17L216.88 193.11L216.44 185.67L216.34 183.79C216.32 183.51 215.68 183.52 215.69 183.81Z" fill="black"/>
<path d="M216.66 195.46L221.4 195.3L222.08 195.28C222.49 195.27 222.47 194.63 222.06 194.65L217.32 194.81L216.64 194.83C216.23 194.84 216.25 195.47 216.66 195.46Z" fill="black"/>
<path d="M221.79 186.1L216.42 186.22L216.38 184.46L221.75 184.35L221.79 186.1Z" fill="black"/>
<path d="M226.93 142.05C226.84 143.34 226.76 144.77 226.69 146.16C226.1 158.77 226.1 171.66 226.35 184.49L209.96 184.83C211.13 171.68 212.56 158.56 214.6 145.55C214.79 144.09 214.98 142.64 215.2 141.17L226.93 142.05Z" fill="white"/>
<path d="M226.67 142.03C226.58 143.33 226.5 144.75 226.43 146.15L226.38 147.24C226.24 150.48 226.12 153.76 226.06 157.05C225.97 161.02 225.93 165 225.93 168.99C225.92 172.45 225.96 175.91 226 179.38L226.06 182.81L226.08 183.87C226.08 184.04 226.03 184.26 226.09 184.42C226.1 184.44 226.09 184.47 226.09 184.49L226.34 184.31L211.98 184.61L209.95 184.65L210.21 184.83L210.6 180.6C210.92 177.21 211.25 173.83 211.62 170.45C212.05 166.36 212.54 162.28 213.06 158.2C213.52 154.68 214 151.16 214.53 147.66L214.86 145.58L215.11 143.65L215.32 142.11C215.35 141.87 215.46 141.55 215.44 141.31C215.44 141.28 215.45 141.24 215.45 141.21L215.18 141.45L225.44 142.18L226.91 142.29C227.07 142.3 227.17 142.19 227.17 142.08C227.18 141.99 227.1 141.89 226.94 141.88L216.68 141.05L215.21 140.93C215.06 140.92 214.96 141.03 214.93 141.18C214.71 142.65 214.52 144.1 214.33 145.56L214.16 146.66C213.64 150.02 213.16 153.38 212.72 156.76C212.19 160.84 211.7 164.92 211.25 169.01C210.86 172.55 210.51 176.08 210.17 179.63L209.85 183.11C209.8 183.66 209.68 184.23 209.7 184.78C209.7 184.8 209.7 184.83 209.69 184.85C209.68 184.95 209.82 185.03 209.95 185.03L224.31 184.73L226.34 184.69C226.48 184.69 226.6 184.6 226.59 184.51L226.52 180.35C226.47 177.04 226.43 173.74 226.44 170.44C226.42 166.45 226.47 162.47 226.54 158.5C226.61 155.06 226.7 151.62 226.85 148.22L226.94 146.2L227.04 144.33C227.08 143.61 227.18 142.86 227.18 142.18L227.19 142.09C227.2 141.84 226.69 141.79 226.67 142.03Z" fill="black"/>
<path d="M149.56 130.05C149.27 130.02 148.97 129.99 148.67 129.93C147.47 129.69 146.39 129.41 145.64 129.11C144.89 128.78 144.46 128.49 144.51 128.29C144.59 127.99 145.57 128.08 146.99 128.21C146.97 128.18 146.96 128.15 146.94 128.12L146.91 128.11C145.12 127.75 143.81 126.96 143.93 126.56C144.03 126.2 145.1 126.16 146.44 126.41C146.44 126.4 146.44 126.39 146.44 126.38C144.9 125.94 143.79 125.3 143.91 124.9C144.03 124.51 145.24 124.48 146.7 124.81C146.7 124.8 146.7 124.8 146.71 124.79C145.27 124.36 144.24 123.74 144.36 123.35C144.49 122.91 145.87 122.95 147.47 123.31L147.6 123.34C147.64 123.29 147.69 123.24 147.74 123.19C146.91 122.87 146.44 122.41 146.52 122.1C146.59 121.83 146.99 121.72 147.6 121.66C148.22 121.6 149.03 121.66 149.91 121.83C150.17 121.88 150.43 121.93 150.68 121.98C150.83 121.98 150.98 121.99 151.12 122.01L151.99 122.11C156.2 122.58 160.51 122.5 164.81 122.01C169.11 121.52 173.41 120.64 177.64 119.45C186.11 117.04 194.35 113.5 202.13 109.18C203.04 108.67 203.95 108.15 204.84 107.62C206.73 106.56 209.16 107.19 210.38 109.08C211.6 110.98 210.91 113.58 208.86 114.73C207.97 115.26 207.07 115.77 206.16 116.28C197.86 120.89 189.12 124.66 179.91 127.29C175.31 128.59 170.58 129.56 165.78 130.12C160.97 130.68 156.07 130.78 151.18 130.24L149.92 130.09C149.8 130.1 149.68 130.07 149.56 130.05Z" fill="white"/>
<path d="M149.6 129.73C148.2 129.51 146.77 129.27 145.48 128.68C145.31 128.6 145.13 128.45 144.96 128.38C144.93 128.37 144.87 128.28 144.85 128.28C144.75 128.43 144.75 128.49 144.85 128.45L144.94 128.43C145.15 128.49 145.5 128.41 145.72 128.43C146.13 128.46 146.54 128.48 146.94 128.53C147.25 128.56 147.41 128.28 147.27 128.03C147.06 127.66 146.38 127.69 146 127.57C145.51 127.4 144.99 127.2 144.57 126.91C144.48 126.85 144.28 126.74 144.25 126.62C144.27 126.72 144.19 126.68 144.31 126.65C144.41 126.62 144.5 126.6 144.6 126.59C145.19 126.52 145.8 126.63 146.38 126.73C146.58 126.75 146.79 126.6 146.77 126.39V126.36C146.75 126.21 146.65 126.11 146.51 126.08C145.98 125.93 145.46 125.74 144.97 125.5C144.8 125.42 144.64 125.33 144.49 125.22C144.42 125.17 144.25 124.97 144.22 125.03C144.28 124.89 144.91 124.93 145.03 124.93C145.58 124.94 146.12 125.04 146.65 125.15C146.78 125.17 146.95 125.1 146.99 124.97L147 124.95C147.08 124.75 146.99 124.56 146.78 124.5C146.19 124.32 145.58 124.1 145.05 123.76C144.98 123.72 144.65 123.47 144.66 123.45C144.65 123.47 144.95 123.39 145.02 123.39C145.58 123.32 146.15 123.41 146.69 123.51C146.95 123.57 147.28 123.69 147.55 123.68C147.76 123.67 147.83 123.57 147.98 123.42C148.12 123.28 148.05 123 147.88 122.93C147.7 122.86 146.71 122.42 146.87 122.17C147.03 121.94 147.88 121.99 148.11 121.99C149.13 121.98 150.09 122.29 151.1 122.37L151.59 122.43L151.97 122.47C152.95 122.61 153.94 122.63 154.93 122.71C159.37 122.96 163.88 122.6 168.35 121.89C174.11 120.97 179.8 119.35 185.36 117.32C190.15 115.54 194.84 113.46 199.39 111.08C200.37 110.57 201.33 110.03 202.29 109.49L205.02 107.95C206.9 106.9 209.42 107.72 210.36 109.76C211.15 111.51 210.37 113.53 208.7 114.53C208.09 114.9 207.48 115.25 206.86 115.6L206.02 116.07C202.57 117.99 199.05 119.75 195.45 121.35C189.8 123.84 183.98 126 177.95 127.55C175.09 128.3 172.19 128.93 169.25 129.38C167.79 129.64 166.3 129.78 164.82 129.97C163.33 130.08 161.84 130.24 160.34 130.27C157.32 130.41 154.27 130.29 151.23 129.98L150.4 129.88C150.12 129.81 149.86 129.78 149.6 129.73C149.17 129.64 149.09 130.28 149.52 130.36C150.05 130.47 150.61 130.53 151.15 130.58L151.84 130.65C153.65 130.79 155.46 130.92 157.27 130.91C158.74 130.96 160.19 130.85 161.64 130.82C163.08 130.7 164.54 130.63 165.97 130.43C168.85 130.12 171.68 129.59 174.49 129C180.91 127.58 187.11 125.51 193.1 123.01C197.57 121.13 201.93 119.02 206.17 116.66L206.31 116.58C207.16 116.11 208 115.63 208.84 115.13C209.57 114.7 210.21 114.17 210.66 113.44C211.78 111.64 211.38 109.31 209.84 107.99C208.38 106.7 206.3 106.46 204.67 107.36L204.25 107.61C203.5 108.06 202.73 108.49 201.96 108.92L201.18 109.35C196.99 111.63 192.68 113.7 188.27 115.47C182.67 117.73 176.91 119.55 171.08 120.72C168.63 121.24 166.17 121.56 163.72 121.84C161.26 122.04 158.81 122.2 156.38 122.11C155.68 122.12 154.98 122.06 154.28 122.02C153.58 121.97 152.88 121.95 152.2 121.85L152 121.83C151.37 121.74 150.72 121.65 150.08 121.56C149.45 121.44 148.82 121.36 148.18 121.35C147.64 121.36 146.62 121.27 146.28 121.87C145.82 122.65 147.07 123.32 147.58 123.5L147.5 123C147.45 123.05 147.4 123.1 147.36 123.15L147.65 123.04C146.86 122.89 146.04 122.68 145.22 122.73C144.86 122.74 144.31 122.79 144.1 123.17C143.5 124.22 146.08 124.94 146.64 125.11L146.42 124.65L146.41 124.67L146.75 124.51C146.15 124.38 143.88 123.81 143.59 124.84C143.48 125.23 143.83 125.54 144.12 125.74C144.78 126.2 145.59 126.48 146.37 126.7L146.11 126.4V126.43L146.49 126.1C145.98 126.01 143.4 125.51 143.59 126.72C143.66 127.15 144.18 127.44 144.54 127.63C144.88 127.81 145.24 127.96 145.6 128.09C145.81 128.17 146.02 128.24 146.24 128.29L146.64 128.38C146.89 128.44 146.91 128.44 146.71 128.39L147.04 127.89C146.3 127.84 145.31 127.6 144.59 127.84C144.16 127.98 144.05 128.38 144.36 128.72C144.79 129.17 145.57 129.46 146.17 129.63C147.26 129.96 148.38 130.21 149.51 130.36C149.96 130.42 150.03 129.79 149.6 129.73Z" fill="black"/>
<path d="M205.433 105.66L200.905 138.994L224.221 142.161L228.749 108.827L205.433 105.66Z" fill="white"/>
<path d="M228.44 108.74C227.12 118.47 225.8 128.2 224.47 137.93C224.28 139.31 224.09 140.69 223.91 142.07C224.05 141.99 224.18 141.92 224.32 141.84C217.52 140.92 210.73 139.99 203.93 139.07C202.95 138.94 201.97 138.8 201 138.67C201.08 138.81 201.15 138.94 201.23 139.08C202.55 129.35 203.87 119.62 205.2 109.89C205.39 108.51 205.58 107.13 205.76 105.75C205.62 105.83 205.49 105.9 205.35 105.98C212.15 106.9 218.94 107.83 225.74 108.75C226.72 108.88 227.7 109.02 228.67 109.15C229.09 109.21 229.26 108.57 228.85 108.51C222.05 107.59 215.26 106.66 208.46 105.74C207.48 105.61 206.5 105.47 205.53 105.34C205.37 105.32 205.15 105.38 205.12 105.57C203.8 115.3 202.48 125.03 201.15 134.76C200.96 136.14 200.77 137.52 200.59 138.9C200.57 139.06 200.63 139.28 200.82 139.31C207.62 140.23 214.41 141.16 221.21 142.08C222.19 142.21 223.17 142.35 224.14 142.48C224.3 142.5 224.52 142.44 224.55 142.25C225.87 132.52 227.19 122.79 228.52 113.06C228.71 111.68 228.9 110.3 229.08 108.92C229.13 108.5 228.5 108.32 228.44 108.74Z" fill="black"/>
<path d="M219.82 87.11H219.83C219.83 87.1 219.83 87.1 219.82 87.11ZM219.79 87.12C219.79 87.12 219.8 87.11 219.81 87.11C220.04 87.04 220.27 86.97 220.5 86.92C222.22 86.53 224.35 86.88 224.81 88.88C225.07 90.01 224.72 91.35 224.5 92.45C224.12 94.3 223.63 96.13 223.11 97.95C222.15 101.29 221.08 104.61 219.96 107.9C219.75 108.51 219.68 109 219.12 109.37C217.16 110.66 214.95 109.85 213.39 108.31C213.31 108.23 213.24 108.12 213.26 108.01C213.67 106.48 214.07 104.95 214.47 103.42C214.11 103.32 213.76 103.18 213.44 103.01C212.63 102.57 212.07 101.81 211.78 100.94C211.42 99.86 211.38 98.61 211.57 97.47C211.34 97.37 211.11 97.26 210.91 97.11C210.18 96.58 210.42 95.87 210.82 95.21C211.57 93.98 212.36 92.77 213.3 91.68C214.71 90.04 216.42 88.61 218.38 87.68C218.79 87.48 219.22 87.3 219.65 87.17C219.7 87.14 219.74 87.13 219.79 87.12C219.78 87.12 219.78 87.12 219.79 87.12ZM223.9 92.1C224.09 91.14 224.4 89.95 224.16 88.97C223.72 87.22 221.61 87.25 220.19 87.67C219.89 87.76 219.99 87.72 219.71 87.82C219.22 87.98 218.74 88.2 218.28 88.44C216.38 89.43 214.75 90.9 213.41 92.57C212.62 93.56 211.83 94.66 211.24 95.78C211.08 96.08 210.99 96.31 211.29 96.55C211.5 96.72 211.75 96.84 212.01 96.94C212.06 96.95 212.1 96.97 212.15 96.99C212.38 97.07 212.63 97.15 212.85 97.22C213.25 97.35 212.99 97.96 212.59 97.83C212.47 97.79 212.35 97.75 212.22 97.71C212.19 97.99 212.16 98.28 212.15 98.56C212.09 100.12 212.49 101.94 214.1 102.58C215.77 103.24 217.92 103.22 219.56 102.46C219.83 102.33 220.04 102.59 220 102.82C219.99 102.92 219.93 103.02 219.81 103.07C219.08 103.41 218.23 103.58 217.43 103.66C216.7 103.73 215.89 103.71 215.12 103.57C214.73 105.03 214.34 106.49 213.96 107.96C214.92 108.86 216.12 109.58 217.48 109.34C217.87 109.27 218.25 109.13 218.59 108.93C218.73 108.85 218.88 108.69 219.02 108.62C219.02 108.61 219.02 108.61 219.02 108.59C219.04 108.46 219.11 108.33 219.15 108.2C219.32 107.71 219.49 107.21 219.66 106.72C220.07 105.51 220.47 104.3 220.86 103.09C221.51 101.07 222.13 99.04 222.7 97C223.16 95.38 223.58 93.75 223.9 92.1ZM219.02 108.62C218.98 108.67 219 108.71 219.02 108.62V108.62Z" fill="black"/>
<path d="M224.16 88.97C224.4 89.95 224.09 91.14 223.9 92.1C223.58 93.74 223.15 95.37 222.7 96.98C222.13 99.02 221.51 101.05 220.86 103.07L219.99 102.79C220.02 102.56 219.82 102.3 219.55 102.43C217.9 103.2 215.75 103.21 214.09 102.55C212.48 101.91 212.08 100.09 212.14 98.53C212.15 98.25 212.18 97.96 212.21 97.68C212.34 97.72 212.46 97.76 212.58 97.8C212.98 97.93 213.25 97.32 212.84 97.19C212.62 97.12 212.38 97.04 212.14 96.96C212.1 96.94 212.06 96.92 212 96.91C211.74 96.81 211.48 96.69 211.28 96.52C210.98 96.29 211.07 96.06 211.23 95.75C211.82 94.63 212.6 93.53 213.4 92.54C214.73 90.88 216.37 89.4 218.27 88.41C218.73 88.17 219.21 87.95 219.7 87.79C219.99 87.69 219.89 87.73 220.18 87.64C221.61 87.26 223.72 87.23 224.16 88.97Z" fill="white"/>
<path d="M220.87 103.08C220.48 104.29 220.08 105.5 219.67 106.71C219.5 107.21 219.33 107.7 219.16 108.19C219.12 108.31 219.05 108.45 219.03 108.58C219.03 108.59 219.03 108.6 219.03 108.61C218.88 108.69 218.74 108.85 218.6 108.92C218.26 109.12 217.88 109.26 217.49 109.33C216.13 109.57 214.92 108.85 213.97 107.95C214.35 106.49 214.74 105.02 215.13 103.56C215.9 103.7 216.7 103.71 217.44 103.65C218.24 103.57 219.09 103.4 219.82 103.06C219.93 103.01 219.99 102.91 220.01 102.81L220.87 103.08Z" fill="white"/>
<path d="M216.663 93.6805C216.978 92.9805 216.956 92.2881 216.614 92.1339C216.271 91.9797 215.738 92.4221 215.423 93.1221C215.108 93.822 215.13 94.5145 215.472 94.6687C215.815 94.8229 216.348 94.3804 216.663 93.6805Z" fill="black"/>
<path d="M213.217 92.4011C213.532 91.7012 213.51 91.0087 213.167 90.8545C212.825 90.7003 212.292 91.1427 211.976 91.8427C211.661 92.5427 211.683 93.2351 212.026 93.3893C212.368 93.5435 212.901 93.1011 213.217 92.4011Z" fill="black"/>
<path d="M222.22 94.54C222.74 94.16 223.4 93.97 224.1 94.06C225.51 94.25 226.49 95.55 226.3 96.95C226.11 98.36 224.81 99.34 223.41 99.15C222.51 99.03 221.78 98.45 221.42 97.68" fill="white"/>
<path d="M222.38 94.82C223.05 94.34 223.9 94.21 224.66 94.55C225.29 94.83 225.75 95.4 225.92 96.06C226.28 97.48 225.13 98.87 223.68 98.84C222.81 98.82 222.06 98.28 221.69 97.51C221.51 97.13 220.94 97.46 221.12 97.84C221.97 99.6 224.35 100.04 225.76 98.68C227.11 97.38 226.84 95.07 225.23 94.11C224.24 93.52 222.97 93.58 222.04 94.25C221.71 94.5 222.04 95.07 222.38 94.82Z" fill="black"/>
<path d="M224.4 86.66C224.4 86.66 218.2 80.64 212.42 85.64C212.38 85.96 215.1 85.28 216.48 85.92C216.48 85.92 215.67 87.67 215.95 87.89C216.23 88.11 217.16 87.44 217.16 87.44C217.16 87.44 215.98 89.57 217.05 89.22C218.12 88.88 219.78 88.04 219.78 88.04C219.78 88.04 220.69 90.06 221.11 90.14C221.53 90.22 221.68 89.05 221.68 89.05C221.68 89.05 222.97 92.41 222.1 94.53C222.1 94.53 223.3 93.63 225.65 94.67C225.65 94.67 227.24 91.21 225.67 88.8C225.67 88.8 227.18 87.74 228.42 87.77C229.66 87.8 226.06 86.94 226.06 86.94C226.06 86.94 226.16 84.46 225.42 84.66C224.69 84.86 224.4 86.66 224.4 86.66Z" fill="black"/>
<path d="M222.79 97.51C222.87 97.32 222.98 97.15 223.1 96.98C223.13 96.94 223.15 96.91 223.18 96.87C223.19 96.86 223.2 96.85 223.21 96.84C223.21 96.84 223.17 96.89 223.19 96.86C223.21 96.84 223.23 96.81 223.25 96.79C223.32 96.7 223.4 96.62 223.47 96.54C223.56 96.45 223.65 96.36 223.75 96.28C223.77 96.27 223.81 96.23 223.77 96.26C223.8 96.24 223.82 96.22 223.85 96.2C223.91 96.16 223.97 96.12 224.03 96.08C224.1 96.04 224.17 96 224.24 95.96C224.28 95.94 224.31 95.92 224.35 95.91C224.36 95.9 224.38 95.9 224.39 95.89C224.4 95.89 224.45 95.86 224.42 95.88C224.39 95.89 224.45 95.87 224.45 95.87C224.47 95.86 224.49 95.85 224.51 95.85C224.55 95.84 224.59 95.82 224.63 95.81C224.72 95.78 224.81 95.76 224.9 95.74C225.07 95.7 225.18 95.5 225.13 95.33C225.08 95.15 224.9 95.06 224.72 95.1C223.69 95.33 222.83 96.06 222.32 96.97C222.28 97.04 222.25 97.11 222.22 97.18C222.15 97.34 222.17 97.53 222.34 97.63C222.47 97.71 222.72 97.67 222.79 97.51Z" fill="black"/>
<path d="M223.73 96.42C223.74 96.43 223.64 96.35 223.69 96.39C223.72 96.41 223.74 96.43 223.76 96.45C223.79 96.48 223.83 96.51 223.86 96.55C223.88 96.57 223.89 96.59 223.91 96.61C223.92 96.62 223.93 96.63 223.94 96.64C223.94 96.65 223.95 96.65 223.95 96.66C223.97 96.69 223.9 96.6 223.92 96.63C223.95 96.68 223.99 96.73 224.02 96.78C224.04 96.81 224.05 96.84 224.06 96.87C224.07 96.89 224.03 96.79 224.05 96.85C224.06 96.87 224.06 96.88 224.07 96.9C224.08 96.93 224.08 96.96 224.09 96.99C224.1 97.04 224.09 96.91 224.09 96.96C224.09 96.98 224.09 97 224.09 97.01C224.09 97.03 224.09 97.04 224.09 97.06C224.09 97.07 224.09 97.08 224.09 97.08C224.09 97.08 224.11 97 224.1 97.03C224.09 97.06 224.08 97.1 224.07 97.13C224.06 97.18 224.11 97.06 224.07 97.12C224.06 97.14 224.05 97.16 224.03 97.18C224.02 97.19 223.99 97.22 223.99 97.24C223.99 97.24 224.03 97.19 224.01 97.21C224 97.22 223.99 97.23 223.98 97.24C223.94 97.28 223.9 97.32 223.86 97.35C223.85 97.36 223.84 97.37 223.83 97.37C223.85 97.36 223.86 97.35 223.83 97.37C223.8 97.39 223.77 97.41 223.74 97.43C223.59 97.52 223.52 97.73 223.62 97.88C223.71 98.03 223.92 98.1 224.07 98C224.29 97.86 224.5 97.69 224.62 97.46C224.73 97.25 224.76 97.04 224.72 96.81C224.67 96.51 224.47 96.23 224.26 96.02C224.19 95.96 224.12 95.9 224.05 95.84C223.91 95.74 223.68 95.81 223.6 95.96C223.52 96.14 223.58 96.31 223.73 96.42Z" fill="black"/>
<path d="M217.2 89.64C217.2 89.64 218.01 89.9 219.4 91.41L217.2 89.64Z" fill="black"/>
<path d="M217.06 90.15C217.07 90.15 217.08 90.16 217.09 90.16C216.97 90.1 217.02 90.13 217.1 90.17C217.24 90.25 217.38 90.33 217.51 90.42C218.07 90.8 218.56 91.3 219.02 91.79C219.49 92.29 220.24 91.54 219.77 91.04C219.11 90.33 218.29 89.45 217.34 89.13C216.69 88.91 216.41 89.93 217.06 90.15Z" fill="black"/>
<path d="M214.15 88.69C214.15 88.69 213.31 88.58 211.41 89.38L214.15 88.69Z" fill="black"/>
<path d="M214.15 88.16C213.21 88.05 212.11 88.52 211.27 88.86C210.65 89.12 210.92 90.14 211.55 89.89C212.31 89.58 213.3 89.13 214.15 89.22C214.83 89.3 214.82 88.24 214.15 88.16Z" fill="black"/>
<path d="M216.1 100.13C217.37 100.46 218.86 100.18 219.87 99.33C220.04 99.19 219.79 98.94 219.62 99.08C218.71 99.84 217.33 100.08 216.19 99.79C215.97 99.74 215.88 100.08 216.1 100.13Z" fill="black"/>
<path d="M218.08 100.13C218.08 100.13 218.27 101.89 219.07 101.54C219.87 101.19 219.7 100.57 219.41 99.67" fill="black"/>
<path d="M219.98 102.84C219.98 102.84 216.86 105.56 214.51 105.21L214.89 103.24C214.89 103.23 219.36 103.8 219.98 102.84Z" fill="black"/>
<path d="M149.54 127.44L148.3 132.93C148 134.27 144.96 134.51 142.78 133.37L133.89 128.69L123.17 122.91C121.89 122.22 122.1 121.22 123.55 121.1L135.68 120.07L145.7 119.32C148.15 119.14 150.84 120.57 150.58 121.92L149.54 127.44Z" fill="white"/>
<path d="M149.24 127.36C149.02 128.36 148.79 129.35 148.57 130.35C148.36 131.26 148.33 132.91 147.46 133.46C145.19 134.9 141.8 132.5 139.79 131.45C136.26 129.59 132.74 127.72 129.23 125.83C127.3 124.79 125.3 123.82 123.42 122.69C123.3 122.62 123.2 122.59 123.08 122.47C122.62 121.97 123.06 121.57 123.59 121.4C123.83 121.33 124.15 121.35 124.4 121.33C125.57 121.23 126.74 121.13 127.91 121.03C131.88 120.69 135.85 120.36 139.83 120.06C141.34 119.95 142.85 119.84 144.36 119.72C145.69 119.62 146.97 119.51 148.27 119.98C149.21 120.32 150.3 120.9 150.26 122C150.24 122.57 150.03 123.19 149.92 123.76C149.7 124.96 149.47 126.16 149.24 127.36C149.17 127.75 149.76 127.91 149.83 127.52C150.05 126.36 150.27 125.2 150.5 124.03C150.67 123.13 151.16 121.89 150.72 121.01C149.89 119.38 147.33 118.92 145.71 119C144.8 119.04 143.88 119.14 142.97 119.2C138.27 119.55 133.58 119.92 128.89 120.32C127.49 120.44 126.1 120.56 124.7 120.68C124.01 120.74 122.99 120.69 122.44 121.14C120.72 122.54 125.07 124.27 125.87 124.7C130.04 126.95 134.21 129.2 138.41 131.4C140.94 132.73 144.07 135.05 147.08 134.24C148.51 133.86 148.62 132.9 148.91 131.65C149.22 130.27 149.53 128.89 149.84 127.51C149.92 127.14 149.33 126.97 149.24 127.36Z" fill="black"/>
<path d="M142.23 131.33L144.39 120.95C144.63 119.81 145.75 119.08 146.89 119.31L266.9 144.28C269.46 144.81 271.12 147.34 270.58 149.9L269.5 155.11C268.97 157.67 266.44 159.33 263.88 158.79L143.87 133.82C142.73 133.59 141.99 132.47 142.23 131.33Z" fill="white"/>
<path d="M142.52 131.42C143 129.09 143.49 126.77 143.97 124.44C144.33 122.72 144.39 119.32 146.88 119.63C148.47 119.83 150.07 120.29 151.64 120.62C160.45 122.45 169.25 124.28 178.06 126.12C190.53 128.71 203 131.31 215.46 133.9C226.84 136.27 238.22 138.63 249.59 141C255.25 142.18 260.93 143.3 266.58 144.54C269.3 145.14 270.71 147.47 270.2 150.17C269.63 153.17 269.42 157.61 265.83 158.48C264.2 158.87 262.1 158.12 260.51 157.79C252.24 156.07 243.97 154.35 235.69 152.63C223.4 150.07 211.1 147.51 198.81 144.96C187.14 142.53 175.47 140.1 163.8 137.68C157.41 136.35 151.03 135.02 144.64 133.69C143.43 133.44 142.33 132.96 142.53 131.34C142.58 130.95 141.96 130.95 141.92 131.34C141.57 134.15 144.56 134.29 146.5 134.7C149.74 135.37 152.99 136.05 156.23 136.72C167.23 139.01 178.24 141.3 189.24 143.59C202.19 146.28 215.14 148.98 228.09 151.67C237.8 153.69 247.51 155.71 257.22 157.73C259.29 158.16 261.35 158.6 263.42 159.02C265.13 159.37 266.84 159.13 268.19 157.93C269.33 156.92 269.7 155.61 270 154.19C270.28 152.83 270.59 151.47 270.85 150.11C271.39 147.27 269.75 144.65 266.92 143.97C266.41 143.85 265.9 143.76 265.39 143.65C262.59 143.07 259.79 142.49 257 141.9C246.43 139.7 235.87 137.5 225.3 135.31C212.31 132.61 199.32 129.9 186.32 127.2C176.09 125.07 165.86 122.94 155.63 120.82C153.08 120.29 150.54 119.76 147.99 119.23C147.65 119.16 147.31 119.07 146.97 119.02C143.89 118.58 143.8 122.28 143.36 124.39C142.88 126.68 142.41 128.97 141.93 131.26C141.85 131.64 142.44 131.8 142.52 131.42Z" fill="black"/>
<path d="M203.81 142.72C203.55 142.62 203.29 142.52 203.02 142.42C200.87 141.56 199.26 140.54 199.41 140.17C199.52 139.91 200.47 140.05 201.78 140.45C201.77 140.42 201.76 140.39 201.75 140.35L201.72 140.34C200.09 139.68 198.93 138.79 199.1 138.39C199.25 138.05 200.29 138.15 201.57 138.58V138.55C200.13 137.91 199.13 137.11 199.29 136.74C199.45 136.37 200.66 136.52 202.09 137.05C202.09 137.04 202.09 137.04 202.1 137.03C200.71 136.4 199.76 135.63 199.92 135.26C200.09 134.85 201.52 135.07 203.11 135.72L203.24 135.78C203.29 135.74 203.35 135.7 203.41 135.66C202.63 135.16 202.19 134.66 202.32 134.36C202.52 133.87 204.13 134.07 205.91 134.78C206.18 134.89 206.44 135 206.68 135.12C206.83 135.16 206.98 135.21 207.13 135.27L209.34 136.07L212.05 137.01C213.86 137.62 215.68 138.21 217.5 138.77C221.14 139.89 224.81 140.89 228.48 141.71C232.14 142.52 235.83 143.17 239.38 143.38C241.13 143.48 242.89 143.49 244.36 143.25C245.12 143.16 245.75 142.96 246.22 142.78C246.32 142.73 246.47 142.69 246.52 142.64C246.58 142.59 246.55 142.64 246.59 142.61C246.64 142.58 246.69 142.53 246.73 142.48C246.84 142.22 246.94 142.39 246.68 141.19C246.4 140.17 245.84 138.94 245.14 137.72C243.72 135.27 241.82 132.83 239.83 130.48C235.79 125.78 231.2 121.36 226.45 117.15L224.06 115.05C222.42 113.57 222.25 111.01 223.73 109.3C225.21 107.59 227.82 107.43 229.53 108.98L231.83 111C236.78 115.39 241.58 119.99 246.01 125.14C248.21 127.74 250.34 130.43 252.19 133.6C253.1 135.2 253.97 136.92 254.56 139.04C254.83 140.15 255.08 141.22 254.99 142.88C254.88 144.4 254.4 145.9 253.5 147.12C252.99 147.88 252.32 148.53 251.58 149.08C251.25 149.36 250.75 149.62 250.4 149.82C250.04 150.04 249.72 150.15 249.37 150.31C248.02 150.86 246.75 151.16 245.56 151.32C243.16 151.67 240.98 151.63 238.83 151.52C234.56 151.25 230.52 150.52 226.55 149.64C222.58 148.75 218.7 147.68 214.86 146.5C212.94 145.91 211.04 145.29 209.15 144.64L206.32 143.65L204.14 142.86C204.02 142.82 203.92 142.77 203.81 142.72Z" fill="white"/>
<path d="M203.92 142.42C202.66 141.93 201.38 141.45 200.26 140.68C200.11 140.58 199.97 140.41 199.81 140.32C199.78 140.3 199.74 140.21 199.72 140.21C199.6 140.35 199.59 140.4 199.69 140.37L199.78 140.36C199.96 140.45 200.31 140.41 200.52 140.45C200.91 140.52 201.28 140.63 201.66 140.75C201.94 140.83 202.15 140.58 202.06 140.32C201.92 139.92 201.28 139.82 200.94 139.65C200.49 139.42 200.03 139.15 199.66 138.81C199.58 138.74 199.4 138.6 199.4 138.49C199.41 138.59 199.34 138.55 199.46 138.53C199.56 138.52 199.65 138.51 199.75 138.51C200.33 138.52 200.91 138.71 201.46 138.88C201.65 138.94 201.88 138.83 201.89 138.61V138.58C201.9 138.43 201.82 138.31 201.68 138.25C201.18 138.03 200.7 137.77 200.25 137.46C200.1 137.35 199.95 137.24 199.81 137.11C199.75 137.05 199.6 136.82 199.57 136.88C199.65 136.75 200.27 136.88 200.38 136.9C200.93 136.99 201.45 137.16 201.97 137.35C202.09 137.39 202.27 137.36 202.34 137.24L202.35 137.22C202.46 137.03 202.41 136.83 202.21 136.74C201.63 136.48 201.05 136.17 200.57 135.76C200.51 135.71 200.2 135.41 200.21 135.39C200.2 135.41 200.51 135.38 200.58 135.38C201.16 135.4 201.73 135.57 202.28 135.76C202.55 135.85 202.86 136.04 203.13 136.08C203.35 136.11 203.43 136.03 203.61 135.91C203.78 135.8 203.75 135.51 203.6 135.41C203.43 135.3 202.47 134.67 202.67 134.46C202.87 134.24 203.75 134.47 204 134.52C205.06 134.74 206.02 135.2 207.03 135.57L207.52 135.75L209.86 136.59L212.42 137.47C219.19 139.73 226.07 141.72 232.94 142.92C235.85 143.42 238.77 143.77 241.52 143.76C242.88 143.76 244.21 143.65 245.29 143.4C245.85 143.29 246.28 143.11 246.62 142.96C246.79 142.88 246.89 142.8 246.99 142.67C247.09 142.55 247.14 142.39 247.15 142.23C247.17 142.18 247.11 141.67 247 141.19C246.73 140.16 246.18 138.94 245.5 137.75C243.73 134.66 241.28 131.62 238.7 128.73C236.11 125.83 233.31 123.05 230.43 120.35C229.18 119.19 227.92 118.05 226.63 116.93L224.25 114.81C222.62 113.33 222.62 110.64 224.31 109.16C225.75 107.89 227.87 107.99 229.32 109.24L230.9 110.62L234.11 113.5C235.3 114.59 236.48 115.7 237.65 116.83C239.98 119.08 242.26 121.41 244.45 123.86C246.9 126.64 249.28 129.52 251.36 132.86C252.39 134.56 253.37 136.33 254.07 138.53L254.32 139.38L254.51 140.3C254.61 140.94 254.71 141.58 254.68 142.44C254.65 144.05 254.18 145.66 253.24 146.96C252.73 147.72 252.05 148.36 251.31 148.9C250.99 149.17 250.45 149.44 250.14 149.62C249.79 149.82 249.45 149.94 249.11 150.09C247.75 150.62 246.48 150.89 245.27 151.06C242.69 151.39 240.3 151.33 237.96 151.16C235.63 150.97 233.37 150.65 231.14 150.26C226.69 149.45 222.35 148.38 218.09 147.14C215.74 146.46 213.41 145.74 211.1 144.97L207.64 143.8L204.62 142.72C204.38 142.61 204.15 142.53 203.92 142.42C203.54 142.24 203.33 142.84 203.7 143.02C204.03 143.18 204.37 143.31 204.72 143.44C205.18 143.6 205.64 143.76 206.1 143.92C208.58 144.8 211.07 145.65 213.59 146.44C217.66 147.73 221.79 148.89 226.02 149.85C230.25 150.81 234.55 151.59 239.13 151.86C241.24 151.96 243.4 151.98 245.78 151.61C246.96 151.43 248.23 151.13 249.59 150.56C249.93 150.41 250.26 150.28 250.63 150.06C251.02 149.84 251.48 149.58 251.82 149.29C252.57 148.73 253.24 148.07 253.75 147.3C254.58 146.19 255.06 144.83 255.23 143.45C255.33 142.78 255.32 142.02 255.28 141.39C255.22 140.8 255.15 140.24 255.04 139.74C254.59 137.69 253.86 136.07 253.08 134.57C251.5 131.61 249.66 129.12 247.75 126.74C242.96 120.86 237.66 115.78 232.2 110.91L232.02 110.75L229.87 108.86C229.24 108.31 228.55 107.89 227.74 107.7C225.73 107.23 223.65 108.28 222.8 110.12C221.98 111.89 222.43 114.01 223.84 115.29L224.21 115.61L226.22 117.38L227.25 118.29C232.71 123.21 238.01 128.43 242.27 134.02C243.64 135.85 244.89 137.75 245.72 139.54C246.13 140.42 246.42 141.29 246.48 141.86C246.52 142.21 246.51 142.11 246.5 142.18C246.49 142.22 246.48 142.25 246.45 142.28C246.35 142.35 246.55 142.28 245.83 142.56C245.23 142.77 244.39 142.93 243.47 143.01C241.63 143.18 239.52 143.08 237.41 142.87C233.71 142.48 229.91 141.73 226.14 140.81C222.36 139.89 218.6 138.78 214.85 137.58C212.69 136.87 210.54 136.15 208.4 135.37L208.09 135.26C206.8 134.77 205.53 134.19 204.19 133.89C203.63 133.77 202.55 133.51 202.11 134.05C201.53 134.76 202.74 135.59 203.21 135.89L203.2 135.39C203.14 135.43 203.08 135.47 203.03 135.51L203.34 135.46C202.56 135.13 201.72 134.84 200.88 134.74C200.51 134.7 199.94 134.66 199.68 135.01C198.97 135.97 201.44 137.07 201.98 137.31L201.84 136.83L201.83 136.85L202.2 136.74C201.61 136.53 199.39 135.62 198.99 136.61C198.84 136.98 199.15 137.34 199.4 137.58C199.98 138.13 200.74 138.51 201.46 138.83L201.25 138.5V138.53L201.68 138.26C201.18 138.1 198.73 137.25 198.76 138.48C198.77 138.91 199.23 139.27 199.54 139.51C199.84 139.73 200.16 139.92 200.48 140.1C200.67 140.2 200.86 140.3 201.06 140.39L201.42 140.55C201.64 140.65 201.67 140.65 201.49 140.57L201.89 140.14C201.2 139.94 200.29 139.58 199.56 139.73C199.12 139.82 198.97 140.2 199.21 140.57C199.55 141.08 200.24 141.42 200.76 141.71C201.71 142.23 202.7 142.62 203.71 143.01C204.09 143.17 204.31 142.57 203.92 142.42Z" fill="black"/>
<path d="M60.8902 96.93C60.1202 87.72 59.6102 78.63 56.8302 69.74C56.2802 67.98 55.5502 66.07 54.0302 64.91C52.7202 63.9 50.7102 63.56 49.3002 64.58C48.1102 65.44 47.7602 67.04 48.1202 68.41C48.5802 70.17 50.0602 71.3 51.7802 71.7C57.7302 73.09 62.3202 67.47 65.5602 63.36C66.3202 62.4 64.9702 61.04 64.2002 62C61.8002 65.04 58.7102 69.25 54.6002 69.89C53.0302 70.14 50.7502 69.92 50.0602 68.22C49.6302 67.15 50.0102 65.89 51.3002 65.88C54.4602 65.87 55.2702 71.17 55.8902 73.45C56.9302 77.33 57.6102 81.3 58.0102 85.3C58.3902 89.17 58.6402 93.05 58.9602 96.93C59.0702 98.15 60.9902 98.16 60.8902 96.93Z" fill="black"/>
<path d="M70.8102 96.9301C71.4202 89.6601 71.7502 82.3901 73.4302 75.2601C73.8502 73.4801 74.3302 71.7101 74.9002 69.9701C75.3402 68.6201 75.9502 66.9001 77.2902 66.1901C78.4402 65.5801 79.9002 65.9001 79.8902 67.3801C79.8702 69.0301 78.3102 69.8001 76.8602 69.9501C71.9802 70.4501 68.2502 65.3801 65.5802 62.0101C64.8202 61.0401 63.4702 62.4101 64.2202 63.3701C67.1702 67.1001 70.9702 71.8901 76.2002 71.9101C78.1102 71.9101 80.2102 71.2501 81.2202 69.5101C81.9402 68.2801 82.0502 66.6101 81.2602 65.3901C80.3302 63.9501 78.4502 63.7101 76.9402 64.2701C75.1502 64.9301 74.1402 66.6401 73.4702 68.3201C71.7202 72.7101 70.8202 77.6101 70.2002 82.2701C69.5602 87.1401 69.3102 92.0501 68.9002 96.9401C68.7902 98.1601 70.7102 98.1501 70.8102 96.9301Z" fill="black"/>
<path d="M184 0.25H154.44V29.81H184V0.25Z" fill="#1A1A1A" stroke="#333333" stroke-width="0.5094" stroke-miterlimit="10"/>
<path d="M184 37.37H154.44V66.93H184V37.37Z" fill="#666666" stroke="#333333" stroke-width="0.5094" stroke-miterlimit="10"/>
<path d="M184 74.48H154.44V104.04H184V74.48Z" fill="#F0F0F0" stroke="#333333" stroke-width="0.5094" stroke-miterlimit="10"/>
</g>
<defs>
<clipPath id="clip0_150_689">
<rect width="270.95" height="207.92" fill="white"/>
</clipPath>
</defs>
</svg>
