<svg width="50" height="50" viewBox="0 0 50 50" fill="none" xmlns="http://www.w3.org/2000/svg">
<g clip-path="url(#clip0_284_20)">
<path d="M20.5704 23.4999C21.608 22.978 22.3925 22.3967 22.93 21.7685C23.8863 20.6372 24.3582 19.1371 24.3582 17.2776C24.3582 15.468 23.8863 13.921 22.9425 12.624C21.3674 10.5114 18.7015 9.43003 14.9325 9.37378H0V39.8544H13.923C15.4919 39.8544 16.9451 39.72 18.289 39.445C19.6329 39.1668 20.7955 38.6574 21.7799 37.9136C22.655 37.2667 23.3863 36.4635 23.9676 35.5165C24.8864 34.0852 25.3458 32.4632 25.3458 30.6568C25.3458 28.9066 24.9427 27.4159 24.1426 26.1908C23.3332 24.9657 22.1456 24.0687 20.5704 23.4999ZM6.15988 14.668H12.8854C14.3637 14.668 15.5825 14.8274 16.5389 15.143C17.6452 15.6024 18.1984 16.5369 18.1984 17.962C18.1984 19.2402 17.7765 20.134 16.942 20.6372C16.1013 21.1404 15.0106 21.3935 13.673 21.3935H6.15988V14.668ZM16.7951 34.0289C16.0513 34.3883 15.0044 34.5665 13.6636 34.5665H6.15988V26.4377H13.7668C15.0919 26.4471 16.1232 26.6221 16.8608 26.9502C18.1734 27.544 18.8265 28.6316 18.8265 30.2224C18.8265 32.0975 18.1515 33.3601 16.7951 34.0289Z" fill="white"/>
<path d="M45.1943 10.7957H31.9526V14.5897H45.1943V10.7957Z" fill="white"/>
<path d="M49.7947 25.7688C49.5197 24.003 48.9134 22.4498 47.9696 21.109C46.9351 19.5901 45.6225 18.4776 44.0255 17.7744C42.4347 17.0681 40.644 16.7149 38.65 16.718C35.3029 16.718 32.5839 17.765 30.4806 19.8433C28.3836 21.9278 27.3335 24.925 27.3335 28.8315C27.3335 32.9975 28.493 36.0071 30.8244 37.8541C33.1465 39.7043 35.8279 40.6262 38.8719 40.6262C42.5566 40.6262 45.4225 39.5293 47.4695 37.3416C48.779 35.9602 49.5197 34.6008 49.6822 33.2663H43.5817C43.2285 33.9257 42.8191 34.4414 42.3504 34.8164C41.5003 35.504 40.3939 35.8477 39.0376 35.8477C37.7469 35.8477 36.653 35.5633 35.7404 34.9977C34.2341 34.0913 33.4465 32.5037 33.3465 30.2441H49.9947C50.0197 28.2971 49.9572 26.8001 49.7947 25.7688ZM33.4965 26.3532C33.7153 24.8875 34.2466 23.7249 35.0904 22.8654C35.9342 22.0091 37.1281 21.5778 38.6563 21.5747C40.0658 21.5747 41.244 21.9778 42.2035 22.7873C43.1504 23.603 43.6848 24.7874 43.7942 26.3532H33.4965Z" fill="white"/>
</g>
<defs>
<clipPath id="clip0_284_20">
<rect width="50" height="50" fill="white"/>
</clipPath>
</defs>
</svg>
