<svg width="1312" height="48" viewBox="0 0 1312 48" fill="none" xmlns="http://www.w3.org/2000/svg">
<path d="M19.55 39.8755C19.78 38.8905 19.85 37.8958 19.77 36.9206C21.03 34.1218 22.45 30.9231 22.45 30.9231L28.08 27.4904C34.35 30.6793 46.91 37.0669 49.77 38.4614C53.18 40.1388 59.04 38.754 59.04 38.754L34.31 23.6871L59.03 8.6203C59.03 8.6203 53.17 7.23552 49.76 8.91286C46.91 10.3172 34.35 16.695 28.07 19.8839L22.44 16.4512C22.44 16.4512 21.02 13.2525 19.76 10.4439C19.84 9.46873 19.77 8.47402 19.54 7.48907C18.94 4.97306 17.38 2.83737 15.14 1.47209C12.9 0.106808 10.24 -0.332032 7.67 0.253088C5.1 0.838208 2.91 2.35952 1.5 4.55372C0.49 6.13354 0 7.90841 0 9.65402C0 12.8722 1.65 16.0318 4.65 17.8554C7.9 19.8351 11.88 19.7376 14.96 17.953C16.83 18.07 18.93 18.4503 20.59 19.4645C22.66 20.7323 23.63 22.3999 24.08 23.6871C23.63 24.9744 22.67 26.642 20.59 27.9098C18.92 28.924 16.83 29.3043 14.96 29.4213C11.87 27.6367 7.89 27.5392 4.64 29.5188C1.65 31.3425 0 34.4924 0 37.7203C0 39.4659 0.49 41.231 1.5 42.8206C2.9 45.005 5.09 46.5263 7.67 47.1114C10.25 47.6868 12.9 47.2577 15.14 45.8924C17.39 44.5174 18.95 42.3817 19.55 39.8755ZM5.91 15.8855C2.4 13.7499 1.32 9.21517 3.52 5.78247C4.58 4.12463 6.25 2.96414 8.21 2.5253C10.17 2.08646 12.18 2.41803 13.89 3.45174C15.59 4.48546 16.78 6.11404 17.23 8.02543C17.36 8.5813 17.43 9.13716 17.43 9.69302C17.43 11.0486 17.04 12.3846 16.28 13.5646C14.08 16.9875 9.43 18.031 5.91 15.8855ZM27.26 24.9549C26.54 24.5161 26.33 23.5994 26.77 22.8972C27.22 22.1951 28.16 21.9805 28.88 22.4194C29.6 22.8582 29.81 23.7749 29.37 24.4771C28.92 25.1792 27.98 25.384 27.26 24.9549ZM8.21 44.849C6.25 44.4101 4.58 43.2497 3.52 41.5918C1.32 38.1591 2.4 33.6244 5.91 31.479C7.61 30.4453 9.63 30.1137 11.59 30.5525C13.55 30.9914 15.21 32.1519 16.28 33.8097C17.04 34.9897 17.43 36.3257 17.43 37.6813C17.43 38.2371 17.36 38.793 17.23 39.3489C16.78 41.2602 15.59 42.8791 13.89 43.9225C12.18 44.9562 10.16 45.2878 8.21 44.849Z" fill="#2A2A2A"/>
<path d="M29.3702 24.4771C29.8202 23.775 29.6002 22.8583 28.8802 22.4194C28.1602 21.9806 27.2202 22.1951 26.7702 22.8973C26.3202 23.5994 26.5402 24.5161 27.2602 24.9549C27.9802 25.384 28.9202 25.1792 29.3702 24.4771Z" fill="#2A2A2A"/>
<line x1="45.5" y1="22.5" x2="1311.5" y2="22.5001" stroke="black" stroke-linecap="round" stroke-dasharray="6 6"/>
</svg>
