<svg width="741" height="148" viewBox="0 0 741 148" fill="none" xmlns="http://www.w3.org/2000/svg">
<path d="M83.5714 74.5593C83.5714 84.4883 79.9823 92.4263 72.8041 98.347C65.6258 104.294 56.4304 107.254 45.2176 107.254C37.6464 107.254 29.7609 105.892 21.6395 103.141C13.4657 100.417 6.26131 96.5656 0 91.588L10.5578 74.5593C22.6874 83.7024 34.4503 88.2608 45.794 88.2608C50.7716 88.2608 54.6751 87.1343 57.5569 84.8289C60.4124 82.5497 61.8533 79.6417 61.8533 76.1312C61.8533 70.9178 54.9371 66.2022 41.1046 62.0367C40.0566 61.6437 39.2445 61.3818 38.7467 61.2508C17.0811 55.3824 6.26131 45.5844 6.26131 31.8829C6.26131 22.242 10.0076 14.5137 17.5264 8.69771C25.019 2.90797 34.7647 0 46.7895 0C58.8144 0 70.1319 3.53672 80.8468 10.584L72.6207 26.8267C64.1325 21.2203 54.9371 18.4171 45.0081 18.4171C39.7947 18.4171 35.5506 19.3603 32.2759 21.2465C29.0273 23.1328 27.403 25.9883 27.403 29.7609C27.403 33.1404 29.0797 35.6292 32.4854 37.2011C34.8171 38.38 38.118 39.5065 42.3883 40.5282C46.6323 41.5761 50.3786 42.624 53.6272 43.672C56.8757 44.7199 60.0719 45.8988 63.1108 47.1825C66.176 48.4924 69.4769 50.3 72.9874 52.6578C80.0609 57.3473 83.5714 64.6565 83.5714 74.5593Z" fill="white"/>
<path d="M205.313 63.2418H123.68C124.204 70.813 127.636 76.9171 134.055 81.528C140.447 86.165 147.756 88.4966 155.983 88.4966C169.055 88.4966 178.958 84.3836 185.743 76.1574L198.266 89.8589C187.053 101.465 172.435 107.281 154.437 107.281C139.818 107.281 127.401 102.434 117.157 92.7145C106.914 82.9951 101.779 69.9485 101.779 53.5748C101.779 37.2011 106.992 24.1807 117.445 14.5399C127.872 4.84662 140.159 0 154.332 0C168.479 0 180.504 4.29646 190.433 12.8108C200.362 21.3513 205.313 33.1404 205.313 48.1256V63.2418ZM123.68 46.0036H183.359C183.359 37.2535 180.609 30.5468 175.133 25.8312C169.658 21.1417 162.899 18.7839 154.882 18.7839C146.866 18.7839 139.661 21.2465 133.269 26.1193C126.903 31.0184 123.68 37.6464 123.68 46.0036Z" fill="white"/>
<path d="M326.269 63.2418H244.636C245.16 70.813 248.592 76.9171 255.011 81.528C261.403 86.165 268.712 88.4966 276.938 88.4966C290.011 88.4966 299.914 84.3836 306.699 76.1574L319.222 89.8589C308.009 101.465 293.391 107.281 275.393 107.281C260.774 107.281 248.356 102.434 238.113 92.7145C227.87 82.9951 222.735 69.9485 222.735 53.5748C222.735 37.2011 227.948 24.1807 238.401 14.5399C248.828 4.84662 261.115 0 275.262 0C289.409 0 301.433 4.29646 311.362 12.8108C321.291 21.3513 326.243 33.1404 326.243 48.1256V63.2418H326.269ZM244.636 46.0036H304.315C304.315 37.2535 301.564 30.5468 296.089 25.8312C290.614 21.1417 283.855 18.7839 275.838 18.7839C267.821 18.7839 260.617 21.2465 254.225 26.1193C247.832 30.9922 244.636 37.6464 244.636 46.0036Z" fill="white"/>
<path d="M362.265 147.179C352.729 147.179 344.136 143.721 336.434 136.805L346.415 118.991C350.974 123.287 355.689 125.435 360.615 125.435C365.514 125.435 369.469 123.68 372.535 120.143C375.6 116.633 377.145 112.782 377.145 108.59C377.145 106.782 363.13 71.0745 335.072 1.54517H358.545L389.668 78.2789L420.791 1.57136H444.291L393.781 125.252C390.795 132.037 386.498 137.381 380.892 141.285C375.259 145.215 369.05 147.179 362.265 147.179Z" fill="white"/>
<path d="M544.472 105.682H524.509V91.7976C515.916 102.093 504.363 107.254 489.875 107.254C479.055 107.254 470.07 104.189 462.97 98.0589C455.87 91.9286 452.307 83.7286 452.307 73.5114C452.307 63.2942 456.106 55.592 463.651 50.5096C471.222 45.401 481.466 42.886 494.381 42.886H522.754V38.9563C522.754 25.1238 515.051 18.2076 499.647 18.2076C490.006 18.2076 479.946 21.7181 469.519 28.7915L459.748 15.09C472.401 5.03 486.731 0 502.791 0C515.051 0 525.085 3.11755 532.84 9.30027C540.594 15.483 544.472 25.2548 544.472 38.5634V105.682ZM522.57 66.9357V58.1332H497.918C482.121 58.1332 474.209 63.0846 474.209 73.0136C474.209 78.096 476.174 81.9733 480.077 84.6455C484.007 87.3177 489.43 88.6538 496.425 88.6538C503.393 88.6538 509.497 86.689 514.711 82.7855C519.95 78.882 522.57 73.59 522.57 66.9357Z" fill="white"/>
<path d="M576.276 102.958C573.473 100.102 572.058 96.6443 572.058 92.5837C572.058 88.5492 573.473 85.1172 576.276 82.3141C579.105 79.5109 582.511 78.0962 586.572 78.0962C590.606 78.0962 594.064 79.5109 596.946 82.3141C599.802 85.1172 601.269 88.5492 601.269 92.5837C601.269 96.6181 599.828 100.076 596.946 102.958C594.091 105.814 590.632 107.254 586.572 107.254C582.511 107.254 579.079 105.814 576.276 102.958Z" fill="white"/>
<path d="M629.694 82.2092V105.709H620.55V62.2988H629.694V70.2106C631.003 67.5384 632.968 65.4426 635.614 63.9231C638.234 62.4036 641.09 61.6177 644.129 61.6177C650.966 61.6177 655.63 64.4471 658.092 70.1058C662.389 64.4471 667.733 61.6177 674.151 61.6177C679.05 61.6177 683.006 63.111 686.045 66.0975C689.058 69.0841 690.578 73.4067 690.578 79.0655V105.656H681.434V81.8425C681.434 73.8521 678.134 69.8438 671.505 69.8438C668.388 69.8438 665.69 70.8393 663.384 72.8304C661.079 74.8214 659.874 77.7294 659.743 81.5019V105.656H650.626V81.8425C650.626 77.7294 649.892 74.6642 648.399 72.7518C646.932 70.8132 644.653 69.8438 641.483 69.8438C638.313 69.8438 635.562 70.8917 633.23 72.9876C630.872 75.1358 629.694 78.1748 629.694 82.2092Z" fill="white"/>
<path d="M710.174 62.2983L719.448 76.5762L729.089 62.2983H739.908L724.74 83.4925L740.563 105.682H729.298L718.95 91.2471L708.864 105.682H698.175L713.579 83.5711L698.987 62.2983H710.174Z" fill="white"/>
</svg>
