<svg width="56" height="70" viewBox="0 0 56 70" fill="none" xmlns="http://www.w3.org/2000/svg">
<path d="M53.7262 0H18.081C17.1592 0 16.4341 0.736277 16.4341 1.63745V27.6257L1.00664 35.951L0.87551 36.0162C0.87551 36.0162 0.860083 36.0162 0.860083 36.0316C0.744377 36.0967 0.62867 36.1619 0.532248 36.2616C0.401115 36.3767 0.300836 36.5224 0.219842 36.672C0.138847 36.787 0.104136 36.9021 0.0732806 37.0324C0.0154275 37.1628 0 37.3124 0 37.4581V68.3626C0 69.2637 0.74052 70 1.64688 70C2.55325 70 3.29377 69.2637 3.29377 68.3626V39.0955H16.4303V59.5119C16.4303 60.4131 17.1554 61.1493 18.0772 61.1493C18.9835 61.1493 19.724 60.4131 19.724 59.5119V39.0955H35.6606V68.3626C35.6606 69.2637 36.4012 70 37.3075 70C38.2139 70 38.9544 69.2637 38.9544 68.3626V38.4398L52.0716 31.3608V59.5119C52.0716 60.4131 52.8122 61.1493 53.7185 61.1493C54.6249 61.1493 55.3654 60.4131 55.3654 59.5119V1.63745C55.3731 0.736277 54.6326 0 53.7262 0ZM36.8987 35.8206H8.14186L18.4898 30.2487H47.2313L36.8987 35.8206ZM52.0794 26.97H19.7279V3.27873H52.0794V26.97Z" fill="black"/>
</svg>
